<svg width="537" height="307" viewBox="0 0 537 307" fill="none" xmlns="http://www.w3.org/2000/svg">
<path opacity="0.05" d="M187.795 43.1454C180.852 63.7867 168.433 74.4005 152.011 76.4325C135.617 78.4606 119.255 74.7707 102.847 75.4389C91.4895 75.9006 79.6536 74.7356 72.1968 64.6205C64.3159 53.9287 56.8708 35.5415 64.3606 22.5664C71.6618 9.91472 88.1803 6.5521 99.847 13.4683C104.181 16.0379 109.275 20.2461 114.502 19.9558C122.896 19.4902 130.962 14.5554 138.816 9.76665C146.665 4.9799 154.789 0.179505 163.178 0.00611426C184.689 -0.43613 194.505 23.1976 187.795 43.1454Z" fill="#121A33"/>
<path d="M225.023 217.581C223.354 217.581 221.994 216.187 221.994 214.47C221.994 212.754 223.352 211.359 225.023 211.359C226.694 211.359 228.052 212.754 228.052 214.47C228.052 216.187 226.694 217.581 225.023 217.581ZM225.023 212.197C223.813 212.197 222.831 213.217 222.831 214.47C222.831 215.723 223.815 216.744 225.023 216.744C226.231 216.744 227.216 215.723 227.216 214.47C227.216 213.217 226.231 212.197 225.023 212.197Z" fill="#CBCBFF"/>
<path d="M7.75065 169.075C5.66711 169.075 3.9707 167.281 3.9707 165.075C3.9707 162.87 5.66711 161.076 7.75065 161.076C9.83419 161.076 11.5306 162.87 11.5306 165.075C11.5306 167.281 9.83419 169.075 7.75065 169.075ZM7.75065 161.911C6.12817 161.911 4.80723 163.332 4.80723 165.075C4.80723 166.819 6.12817 168.239 7.75065 168.239C9.37313 168.239 10.6941 166.819 10.6941 165.075C10.6941 163.332 9.37313 161.911 7.75065 161.911Z" fill="#CBCBFF"/>
<path d="M163.688 260.633C165.303 260.633 166.612 259.33 166.612 257.722C166.612 256.115 165.303 254.812 163.688 254.812C162.073 254.812 160.764 256.115 160.764 257.722C160.764 259.33 162.073 260.633 163.688 260.633Z" fill="#CBCBFF"/>
<path d="M532.786 158.27C534.862 158.27 536.544 156.595 536.544 154.53C536.544 152.464 534.862 150.789 532.786 150.789C530.71 150.789 529.027 152.464 529.027 154.53C529.027 156.595 530.71 158.27 532.786 158.27Z" fill="#CBCBFF"/>
<path d="M288.618 133.238C286.613 133.238 284.982 131.523 284.982 129.417C284.982 127.311 286.615 125.597 288.618 125.597C290.622 125.597 292.254 127.311 292.254 129.417C292.254 131.523 290.622 133.238 288.618 133.238ZM288.618 126.432C287.074 126.432 285.817 127.771 285.817 129.417C285.817 131.063 287.074 132.402 288.618 132.402C290.163 132.402 291.42 131.063 291.42 129.417C291.42 127.771 290.163 126.432 288.618 126.432Z" fill="#CBCBFF"/>
<path d="M392.326 159.427L388.198 155.196L392.41 150.879L396.538 155.11L392.326 159.427ZM389.365 155.196L392.326 158.229L395.371 155.108L392.41 152.075L389.365 155.196Z" fill="#CBCBFF"/>
<path d="M35.7077 113.161L31.9922 109.44L28.1886 113.249L31.9041 116.97L35.7077 113.161Z" fill="#CBCBFF"/>
<path d="M130.474 220.886L126.346 216.654L130.558 212.337L134.686 216.568L130.474 220.886ZM127.513 216.654L130.474 219.687L133.518 216.566L130.558 213.533L127.513 216.654Z" fill="#CBCBFF"/>
<path d="M519.744 89.2937L516.052 85.596L519.818 81.8242L523.511 85.5219L519.744 89.2937ZM517.233 85.596L519.744 88.1091L522.328 85.5219L519.818 83.0087L517.233 85.596Z" fill="#CBCBFF"/>
<path d="M254.204 225.372H214.548C214.311 225.372 214.118 225.179 214.118 224.942C214.118 224.704 214.311 224.511 214.548 224.511H254.204C254.441 224.511 254.633 224.704 254.633 224.942C254.633 225.179 254.441 225.372 254.204 225.372Z" fill="#CBCBFF"/>
<path d="M222.048 233.939H214.546C214.309 233.939 214.116 233.746 214.116 233.508C214.116 233.27 214.309 233.078 214.546 233.078H222.048C222.285 233.078 222.478 233.27 222.478 233.508C222.478 233.746 222.285 233.939 222.048 233.939Z" fill="#CBCBFF"/>
<path d="M243.638 233.939H228.123C227.886 233.939 227.693 233.746 227.693 233.508C227.693 233.27 227.886 233.078 228.123 233.078H243.638C243.875 233.078 244.068 233.27 244.068 233.508C244.068 233.746 243.875 233.939 243.638 233.939Z" fill="#CBCBFF"/>
<path d="M254.204 242.505H214.548C214.311 242.505 214.118 242.312 214.118 242.074C214.118 241.837 214.311 241.644 214.548 241.644H254.204C254.441 241.644 254.633 241.837 254.633 242.074C254.633 242.312 254.441 242.505 254.204 242.505Z" fill="#CBCBFF"/>
<path d="M349.959 298.822C349.728 298.822 349.541 298.635 349.541 298.403V231.84C349.541 231.609 349.728 231.422 349.959 231.422C350.191 231.422 350.378 231.609 350.378 231.84V298.403C350.378 298.635 350.191 298.822 349.959 298.822Z" fill="#1B1B43"/>
<path d="M341.925 292.463H357.992C361.191 292.463 363.788 295.064 363.788 298.267V298.403H336.13V298.267C336.13 295.064 338.727 292.463 341.925 292.463Z" fill="white"/>
<path d="M364.101 298.719H335.816V298.269C335.816 294.896 338.558 292.151 341.925 292.151H357.992C361.36 292.151 364.101 294.896 364.101 298.269V298.719ZM336.447 298.091H363.472C363.379 295.146 360.957 292.779 357.992 292.779H341.925C338.962 292.779 336.54 295.146 336.445 298.091H336.447Z" fill="#1B1B43"/>
<path d="M331.338 227.778H361.863C365.569 227.778 368.577 230.79 368.577 234.502V234.66H331.338V227.778Z" fill="#CBCBFF"/>
<path d="M295.91 282.465L297.363 298.405H275.564L285.29 288.839L285.179 282.591L295.91 282.465Z" fill="#CBCBFF"/>
<path d="M286.737 292.379C286.677 292.379 286.614 292.366 286.556 292.338L283.319 290.77C283.111 290.669 283.025 290.419 283.124 290.211C283.225 290.002 283.474 289.917 283.683 290.016L286.92 291.584C287.128 291.686 287.214 291.935 287.114 292.143C287.042 292.293 286.893 292.379 286.739 292.379H286.737Z" fill="#1B1B43"/>
<path d="M284.65 294.68C284.59 294.68 284.527 294.666 284.469 294.639L281.232 293.071C281.024 292.969 280.938 292.72 281.037 292.512C281.138 292.303 281.388 292.217 281.596 292.317L284.833 293.885C285.041 293.986 285.127 294.236 285.027 294.444C284.955 294.594 284.806 294.68 284.652 294.68H284.65Z" fill="#1B1B43"/>
<path d="M290.705 298.549C290.493 298.549 290.31 298.387 290.291 298.171C290.098 296.2 290.806 294.479 292.285 293.326C293.678 292.241 295.565 291.853 296.979 292.364C297.197 292.442 297.308 292.681 297.23 292.899C297.152 293.116 296.913 293.231 296.695 293.151C295.557 292.74 293.954 293.084 292.797 293.986C291.551 294.957 290.956 296.414 291.12 298.089C291.143 298.319 290.974 298.524 290.744 298.547C290.73 298.547 290.717 298.549 290.703 298.549H290.705Z" fill="#1B1B43"/>
<path d="M325.793 210.847L299.073 217.194C289.741 219.791 283.158 228.361 282.874 238.381L282.267 285.623L299.036 285.855L307.53 236.88L325.795 210.848L325.793 210.847Z" fill="#BE443D"/>
<path d="M334.194 278.993L346.249 293.607L328.678 307.001L331.176 293.361L325.614 285.689L334.194 278.993Z" fill="#CBCBFF"/>
<path d="M331.028 295.109C330.834 295.109 330.659 294.972 330.62 294.774C330.573 294.548 330.721 294.327 330.947 294.281L334.472 293.566C334.698 293.519 334.917 293.667 334.964 293.893C335.011 294.119 334.863 294.339 334.637 294.386L331.112 295.101C331.085 295.107 331.056 295.109 331.028 295.109Z" fill="#1B1B43"/>
<path d="M330.758 298.204C330.563 298.204 330.388 298.068 330.349 297.869C330.303 297.643 330.451 297.421 330.676 297.376L334.201 296.661C334.427 296.615 334.647 296.763 334.694 296.989C334.74 297.215 334.592 297.435 334.367 297.482L330.842 298.197C330.814 298.202 330.785 298.204 330.758 298.204Z" fill="#1B1B43"/>
<path d="M342.39 296.778C342.31 296.778 342.228 296.755 342.158 296.708C340.641 295.691 340.133 293.474 340.304 291.843C340.466 290.295 341.174 289.159 342.248 288.728C342.462 288.643 342.705 288.748 342.79 288.962C342.876 289.176 342.773 289.42 342.557 289.506C341.792 289.811 341.261 290.717 341.135 291.931C340.985 293.363 341.448 295.226 342.623 296.013C342.816 296.141 342.866 296.4 342.738 296.593C342.658 296.714 342.526 296.778 342.39 296.778Z" fill="#1B1B43"/>
<path d="M358.153 215.24L356.05 223.829C355.912 224.468 355.651 225.189 355.283 225.943C353.412 229.787 349.879 232.273 345.982 232.791L318.552 240.407L341.734 281.399L327.114 291.438L299.894 252.745C293.705 243.857 295.641 230.968 304.09 224.811C306.981 222.705 309.212 221.186 309.537 221.258L328.715 210.706L358.151 215.24H358.153Z" fill="#FE5B52"/>
<path d="M306.439 198.637L305.857 215.696C322.24 212.884 340.766 211.599 358.125 215.238C361.609 207.622 360.448 201.452 357.399 194.37L306.439 198.635V198.637Z" fill="#121A33"/>
<path d="M302.41 204.719C302.41 204.719 288.158 205.966 285.829 195.839C284.097 188.317 290.506 176.529 296.221 167.92C300.766 161.074 306.937 155.85 313.977 152.772L322.008 149.262L333.468 153.4L351.745 164.528L356.337 203.94C356.337 203.94 302.137 204.719 302.412 204.719H302.41Z" fill="#121A33"/>
<path d="M342.955 190.488L340.309 190.911C337.982 191.283 334.333 192.044 331.955 192.746C326.786 194.271 324.594 200.379 324.594 200.379L329.344 200.667L337.593 197.112L344.188 197.418L342.955 190.488Z" fill="#FFBC96"/>
<path d="M328.352 200.301C328.284 200.301 328.218 200.268 328.179 200.207C328.115 200.112 328.14 199.981 328.235 199.917L332.36 197.147C332.455 197.082 332.585 197.108 332.65 197.203C332.714 197.299 332.689 197.429 332.593 197.494L328.469 200.264C328.434 200.287 328.393 200.299 328.352 200.299V200.301Z" fill="#D28572"/>
<path d="M326.576 200.196C326.524 200.196 326.469 200.176 326.428 200.135C326.347 200.053 326.347 199.921 326.428 199.839L329.613 196.65C329.695 196.568 329.827 196.568 329.909 196.65C329.991 196.732 329.991 196.864 329.909 196.946L326.724 200.135C326.683 200.176 326.631 200.196 326.576 200.196Z" fill="#D28572"/>
<path d="M328.071 148.829L340.934 152.145C344.38 153.086 348.782 155.406 350.994 157.582C356.957 163.447 367.841 178.777 368.538 188.816C368.902 194.059 365.517 198.36 358.984 199.305L344.623 201.38L340.267 190.87L353.478 187.519L341.429 168.175L328.071 148.831V148.829Z" fill="#121A33"/>
<path d="M344.493 201.608L340.022 190.766L353.15 187.384L340.445 167.103C340.382 167.006 340.413 166.877 340.511 166.815C340.608 166.753 340.736 166.784 340.799 166.881L353.808 187.647L340.591 191.051L344.754 201.146L358.953 199.095C359.068 199.077 359.173 199.157 359.191 199.272C359.206 199.387 359.128 199.492 359.014 199.51L344.491 201.608H344.493Z" fill="#1B1B43"/>
<path d="M324.319 161.434C321.609 161.434 318.893 160.318 316.737 158.292C316.654 158.212 316.65 158.079 316.728 157.995C316.807 157.912 316.938 157.908 317.023 157.986C319.35 160.174 322.352 161.261 325.258 160.966C328.274 160.663 330.951 158.968 332.999 156.065C333.065 155.971 333.196 155.948 333.291 156.014C333.384 156.08 333.408 156.211 333.342 156.306C331.221 159.311 328.441 161.066 325.301 161.383C324.974 161.417 324.646 161.432 324.319 161.432V161.434Z" fill="#1B1B43"/>
<path d="M304.77 179.683C304.741 179.683 304.71 179.677 304.68 179.663C304.575 179.615 304.531 179.49 304.579 179.385L309.871 168.091C309.919 167.986 310.044 167.941 310.149 167.99C310.254 168.038 310.299 168.163 310.25 168.268L304.959 179.562C304.924 179.638 304.848 179.683 304.77 179.683Z" fill="#1B1B43"/>
<path d="M310.038 126.386C309.252 125.158 309.013 123.594 309.398 122.187C309.784 120.781 310.785 119.557 312.087 118.903C313.126 118.381 314.56 118.299 315.299 119.197C317.022 117.49 319.993 117.247 321.972 118.649C322.577 119.074 324.205 118.143 324.82 117.993C326.016 117.703 327.218 117.853 328.175 118.733C328.981 119.473 329.341 120.74 328.845 121.716C329.421 120.588 333.521 122.072 334.154 122.567C337.336 125.059 337.157 130.508 334.496 133.319C333.973 133.871 333.171 134.26 332.965 134.993C332.706 135.911 332.51 135.474 332.827 136.372C333.889 139.367 331.434 142.589 328.269 142.353L310.038 126.384V126.386Z" fill="#1B1B43"/>
<path d="M325.712 158.032C322.236 158.788 318.868 156.449 318.195 152.817L317.987 151.687L316.586 144.155L316.478 143.565L329.086 140.838L330.804 150.082C331.477 153.721 329.197 157.278 325.71 158.032H325.712Z" fill="#FFBC96"/>
<path d="M326.897 144.29C325.107 147.793 322.224 150.333 317.985 151.687L316.584 144.155L326.897 144.29Z" fill="#D28572"/>
<path d="M324.164 146.355C318.934 148.732 314.088 147.668 312.76 140.483C312.509 139.137 312.384 137.572 312.4 135.772C312.408 135.27 312.425 134.744 312.45 134.2C312.709 129.298 311.322 127.136 312.633 125.478C314.956 122.532 318.58 123.775 321.681 123.775C326.634 123.775 329.944 126.277 330.261 132.852C330.519 138.131 329.609 143.886 324.162 146.355H324.164Z" fill="#FFBC96"/>
<path d="M310.826 123.491C307.028 124.438 308.557 130.313 312.009 130.602C313.536 130.73 316.464 129.125 316.497 127.22C316.469 128.792 317.609 130.298 319.063 130.609C320.516 130.921 322.117 130.005 322.671 128.546C322.911 129.382 323.551 130.076 324.333 130.35C325.115 130.625 326.018 130.471 326.681 129.953C326.208 131.492 327.025 133.214 328.237 134.198C329.449 135.182 330.978 135.593 332.463 135.969L330.389 124.494C330.389 124.494 319.425 121.504 319.111 121.504C318.798 121.504 310.832 123.489 310.828 123.491H310.826Z" fill="#1B1B43"/>
<path d="M330.58 139.517C332.241 139.517 333.587 138.105 333.587 136.363C333.587 134.621 332.241 133.208 330.58 133.208C328.919 133.208 327.572 134.621 327.572 136.363C327.572 138.105 328.919 139.517 330.58 139.517Z" fill="#FFBC96"/>
<path d="M320.105 134.49C320.105 135.09 320.454 135.577 320.882 135.577C321.31 135.577 321.658 135.09 321.658 134.49C321.658 133.89 321.31 133.403 320.882 133.403C320.454 133.403 320.105 133.89 320.105 134.49Z" fill="#1B1B43"/>
<path d="M315.45 134.284C315.45 134.884 315.798 135.371 316.226 135.371C316.654 135.371 317.003 134.884 317.003 134.284C317.003 133.684 316.654 133.197 316.226 133.197C315.798 133.197 315.45 133.684 315.45 134.284Z" fill="#1B1B43"/>
<path d="M317.958 139.752C317.935 139.752 317.913 139.749 317.89 139.741L317.843 139.725C317.388 139.569 316.762 139.353 316.481 138.874C316.135 138.281 316.682 137.65 316.886 137.413C317.361 136.863 317.911 136.117 317.942 135.217C317.946 135.102 318.049 135.012 318.158 135.014C318.273 135.018 318.365 135.116 318.361 135.231C318.326 136.261 317.723 137.083 317.203 137.685C316.824 138.124 316.709 138.433 316.843 138.661C317.046 139.008 317.565 139.185 317.979 139.33L318.028 139.345C318.137 139.382 318.195 139.501 318.158 139.61C318.129 139.696 318.047 139.75 317.96 139.75L317.958 139.752Z" fill="#D28572"/>
<path d="M320.464 140.276L316.254 141.364C316.254 141.364 318.657 144.72 320.464 140.276Z" fill="white"/>
<path d="M323.032 133.319C322.82 133.012 322.59 132.764 322.318 132.585C322.051 132.402 321.752 132.283 321.442 132.23C321.133 132.178 320.82 132.189 320.524 132.275C320.228 132.361 319.956 132.528 319.705 132.799L319.419 132.661C319.501 132.23 319.822 131.831 320.238 131.617C320.652 131.397 321.139 131.344 321.586 131.43C322.036 131.513 322.458 131.734 322.773 132.055C323.088 132.376 323.294 132.795 323.333 133.22L323.032 133.321V133.319Z" fill="#1B1B43"/>
<path d="M314.505 132.676C314.528 132.306 314.752 131.965 315.04 131.73C315.332 131.494 315.701 131.354 316.083 131.334C316.464 131.311 316.855 131.418 317.162 131.63C317.472 131.839 317.695 132.135 317.81 132.458L317.555 132.649C317.291 132.486 317.059 132.349 316.824 132.263C316.588 132.178 316.357 132.139 316.12 132.147C315.884 132.154 315.645 132.211 315.421 132.316C315.195 132.417 314.989 132.565 314.804 132.78L314.503 132.676H314.505Z" fill="#1B1B43"/>
<path opacity="0.5" d="M324.255 140.367C325.545 140.158 326.422 138.942 326.213 137.651C326.005 136.359 324.79 135.481 323.5 135.69C322.211 135.899 321.334 137.115 321.542 138.406C321.751 139.698 322.965 140.576 324.255 140.367Z" fill="#FF9289"/>
<path opacity="0.5" d="M315.118 138.056C315.151 139.234 314.298 140.28 313.104 140.456C312.987 140.473 312.871 140.481 312.762 140.481C312.511 139.135 312.386 137.57 312.402 135.77C313.68 135.577 314.867 136.448 315.082 137.711L315.09 137.761C315.108 137.863 315.108 137.954 315.116 138.054L315.118 138.056Z" fill="#FF9289"/>
<path d="M329.658 137.818C329.551 137.818 329.459 137.734 329.449 137.625C329.327 136.082 329.875 135.01 331.082 134.44C331.187 134.391 331.311 134.436 331.36 134.539C331.408 134.644 331.364 134.769 331.261 134.818C330.212 135.314 329.757 136.22 329.866 137.592C329.875 137.707 329.79 137.808 329.673 137.818C329.667 137.818 329.661 137.818 329.656 137.818H329.658Z" fill="#D28572"/>
<path d="M340.847 200.215H320.667V204.938H340.847V200.215Z" fill="#1B1B43"/>
<path d="M327.221 204.938H293.863L281.994 172.952H315.352L327.221 204.938Z" fill="#CBCBFF"/>
<path d="M189.701 281.738C189.47 281.738 189.283 281.551 189.283 281.319L189.299 171.804C189.299 171.573 189.486 171.385 189.717 171.385C189.949 171.385 190.135 171.573 190.135 171.804L190.12 281.319C190.12 281.551 189.933 281.738 189.701 281.738Z" fill="#1B1B43"/>
<path d="M220.389 298.719C220.32 298.719 220.25 298.701 220.186 298.666L189.715 281.781L159.244 298.666C159.042 298.777 158.789 298.705 158.676 298.502C158.565 298.3 158.637 298.046 158.839 297.933L189.715 280.824L220.591 297.933C220.793 298.045 220.865 298.3 220.754 298.502C220.678 298.641 220.536 298.719 220.389 298.719Z" fill="#1B1B43"/>
<path d="M250.631 60.0315H128.803V182.401H250.631V60.0315Z" fill="white"/>
<path d="M250.944 182.714H128.489V59.7178H250.944V182.714ZM129.116 182.087H250.317V60.3452H129.116V182.087Z" fill="#1B1B43"/>
<path d="M152.383 150.588H143.045V154.847H152.383V150.588Z" fill="#CBCBFF"/>
<path d="M196.295 152.404H155.412V153.031H196.295V152.404Z" fill="#1B1B43"/>
<path d="M152.383 158.882H143.045V163.141H152.383V158.882Z" fill="#1A9AD7"/>
<path d="M196.295 160.696H155.412V161.323H196.295V160.696Z" fill="#1B1B43"/>
<g opacity="0.2">
<path d="M151.598 111.322H147.39V125.402H151.598V111.322Z" fill="#CBCBFF"/>
<path d="M160.296 107.059H156.088V125.402H160.296V107.059Z" fill="#121A33"/>
<path d="M168.993 99.5413H164.785V125.402H168.993V99.5413Z" fill="#121A33"/>
<path d="M177.691 92.6835H173.483V125.402H177.691V92.6835Z" fill="#121A33"/>
<path d="M186.388 85.6563H182.18V125.402H186.388V85.6563Z" fill="#121A33"/>
<path d="M195.086 82.5743H190.878V125.402H195.086V82.5743Z" fill="#121A33"/>
<path d="M203.783 85.9018H199.575V125.404H203.783V85.9018Z" fill="#121A33"/>
<path d="M212.481 89.7515H208.273V125.402H212.481V89.7515Z" fill="#121A33"/>
<path d="M221.18 82.5743H216.972V125.402H221.18V82.5743Z" fill="#121A33"/>
<path d="M229.877 78.5298H225.669V125.402H229.877V78.5298Z" fill="#121A33"/>
<path d="M238.573 73.1527H234.365V125.402H238.573V73.1527Z" fill="#121A33"/>
</g>
<path d="M241.299 125.731H141.388V70.8558H142.224V124.895H241.299V125.731Z" fill="#1B1B43"/>
<path d="M149.568 117.975L149.42 117.151L158.009 115.604L166.189 108.817L166.224 108.799L175.144 103.874L183.92 96.7534L193.167 94.7116L201.133 101.244L209.738 106.309L218.994 94.1467L227.822 91.3159L237.197 86.8798L237.553 87.6357L228.102 92.103L219.498 94.8636L209.954 107.408L200.629 101.912L192.953 95.6156L184.293 97.5288L175.613 104.572L175.58 104.589L166.662 109.512L158.373 116.389L149.568 117.975Z" fill="#1A9AD7"/>
<path opacity="0.4" d="M220.068 131.091H159.363V134.159H220.068V131.091Z" fill="#121A33"/>
<path d="M224.198 156.936L232.172 144.409C229.867 142.934 227.136 142.069 224.198 142.069C215.998 142.069 209.351 148.726 209.351 156.937C209.351 165.149 215.998 171.806 224.198 171.806C232.398 171.806 239.045 165.149 239.045 156.937C239.045 156.665 239.02 156.398 239.005 156.129L224.198 156.937V156.936Z" fill="#CBCBFF"/>
<path d="M239.005 156.127C238.74 151.198 236.087 146.912 232.173 144.409L224.198 156.936L239.005 156.127Z" fill="#1A9AD7"/>
<path d="M88.5668 281.629L86.9424 298.45H111.311L100.438 288.358L100.564 281.763L88.5668 281.629Z" fill="#CBCBFF"/>
<path d="M97.9889 291.438C97.8274 291.438 97.6737 291.343 97.6057 291.185C97.5142 290.973 97.6115 290.727 97.8235 290.636L101.325 289.122C101.537 289.03 101.782 289.128 101.874 289.34C101.965 289.552 101.868 289.798 101.656 289.889L98.1543 291.403C98.0998 291.426 98.0434 291.438 97.9889 291.438Z" fill="#1B1B43"/>
<path d="M100.076 293.809C99.9143 293.809 99.7607 293.714 99.6926 293.556C99.6011 293.344 99.6984 293.098 99.9105 293.006L103.412 291.493C103.624 291.401 103.869 291.499 103.961 291.711C104.052 291.923 103.955 292.169 103.743 292.26L100.241 293.774C100.187 293.797 100.13 293.809 100.076 293.809Z" fill="#1B1B43"/>
<path d="M87.5731 291.352C89.3415 291.621 91.0982 292.219 92.3122 293.597C93.4405 294.877 93.8821 296.611 94.0533 298.271C94.1078 298.8 94.9443 298.806 94.8879 298.271C94.6953 296.406 94.209 294.538 92.9697 293.084C91.6683 291.557 89.7267 290.84 87.793 290.548C87.2677 290.468 87.0401 291.275 87.5712 291.354L87.5731 291.352Z" fill="#1B1B43"/>
<path d="M59.9787 281.796L58.0956 298.45H35.3848L44.3823 289.367L48.1525 281.763L59.9787 281.796Z" fill="#CBCBFF"/>
<path d="M47.8842 291.298C47.8297 291.298 47.7733 291.286 47.7188 291.263L44.2171 289.749C44.005 289.658 43.9078 289.412 43.9992 289.2C44.0906 288.987 44.3358 288.89 44.5478 288.981L48.0496 290.495C48.2616 290.587 48.3589 290.832 48.2675 291.045C48.1994 291.202 48.0457 291.298 47.8842 291.298Z" fill="#1B1B43"/>
<path d="M45.7944 293.669C45.7399 293.669 45.6835 293.657 45.629 293.634L42.1273 292.12C41.9152 292.028 41.8179 291.783 41.9094 291.571C42.0008 291.358 42.2459 291.261 42.458 291.352L45.9597 292.866C46.1718 292.958 46.269 293.203 46.1776 293.416C46.1095 293.573 45.9558 293.669 45.7944 293.669Z" fill="#1B1B43"/>
<path d="M58.5625 290.616C56.6288 290.91 54.6872 291.627 53.3858 293.153C52.1465 294.606 51.6602 296.474 51.4676 298.339C51.4112 298.874 52.2477 298.871 52.3022 298.339C52.4734 296.679 52.915 294.945 54.0433 293.665C55.2572 292.288 57.0159 291.689 58.7823 291.421C59.3115 291.341 59.0878 290.534 58.5606 290.614L58.5625 290.616Z" fill="#1B1B43"/>
<path d="M64.8479 168.451L41.7285 285.666H63.4724L90.4651 159.704L64.8479 168.451Z" fill="#121A33"/>
<path d="M82.001 166.836L85.7498 284.993H104.869L104.118 160.781L82.001 166.836Z" fill="#121A33"/>
<path d="M101.099 165.356L68.041 169.663L68.8484 112.333L95.7243 111.527L101.099 165.356Z" fill="white"/>
<path d="M85.684 95.374V110.147C85.684 114.246 85.2346 117.321 81.0578 117.531C78.3712 117.665 74.6496 116.029 73.5466 113.753C73.0194 112.682 72.7275 111.453 72.7275 110.147V95.374H85.684Z" fill="#D28572"/>
<path d="M85.6799 101.369V108.312C82.0362 107.4 77.5831 104.55 75.3848 101.369H85.6799Z" fill="#925D4F"/>
<path d="M85.6841 104.542C85.4254 104.626 85.1413 104.685 84.8398 104.725C82.6512 105.051 79.6767 104.7 76.9531 103.227C75.4415 102.415 73.996 101.254 72.8171 99.6718C72.784 99.6387 72.7588 99.5958 72.7257 99.5549C72.4164 99.136 72.1245 98.684 71.8561 98.1989L71.3211 96.2994L70.5196 93.4804L68.3135 85.6836L79.1397 80.3377C79.1397 80.3377 87.3766 82.0521 88.1956 82.5879C88.0536 84.0763 88.0361 85.5667 88.0945 87.0298C88.1704 89.1222 88.4038 91.1464 88.612 93.0459C88.8046 94.7019 88.9797 96.2585 89.038 97.6554C89.1878 101.17 88.6198 103.73 85.6802 104.54L85.6841 104.542Z" fill="#D28572"/>
<path d="M70.1828 96.7397C70.1828 96.7397 73.2099 95.7325 72.8111 95.1071C72.2099 94.1642 70.4201 91.3393 72.3053 88.1091C72.6807 87.4643 74.6903 86.9441 75.3673 86.6967C76.2155 86.385 77.089 86.1356 77.9781 85.9973C79.2718 85.7947 80.5752 85.8453 81.8436 86.1823C83.5984 86.6499 85.3065 87.8578 87.1682 87.3844C88.5106 87.0435 90.0377 85.968 90.4015 84.4738C90.6077 83.6263 90.421 82.7145 90.0514 81.9313C87.7694 77.0881 82.2347 76.7783 77.7835 77.203C74.1514 77.5498 71.2586 79.0168 69.3035 82.4301C69.2295 82.5606 68.8599 83.4549 68.7607 83.4665C64.0119 84.0724 66.6227 94.7701 70.1847 96.7397H70.1828Z" fill="#1B1B43"/>
<path d="M71.3596 100.05C73.098 100.05 74.5073 98.5521 74.5073 96.7046C74.5073 94.8572 73.098 93.3596 71.3596 93.3596C69.6212 93.3596 68.2119 94.8572 68.2119 96.7046C68.2119 98.5521 69.6212 100.05 71.3596 100.05Z" fill="#D28572"/>
<path d="M72.3947 87.0668C72.5076 89.8723 72.6943 92.8355 72.5484 95.6429C72.5037 96.5001 72.2372 96.4085 71.9123 96.0442C71.5174 95.6 71.2372 94.8344 71.1536 93.9577L70.7217 89.4807L72.3947 87.0668Z" fill="#1B1B43"/>
<path d="M80.649 92.6329C80.649 93.2485 80.2929 93.7492 79.8513 93.7492C79.4097 93.7492 79.0537 93.2505 79.0537 92.6329C79.0537 92.0153 79.4097 91.5166 79.8513 91.5166C80.2929 91.5166 80.649 92.0153 80.649 92.6329Z" fill="#1B1B43"/>
<path d="M85.4234 92.4205C85.4234 93.0362 85.0674 93.5368 84.6257 93.5368C84.1841 93.5368 83.8281 93.0381 83.8281 92.4205C83.8281 91.8029 84.1841 91.3042 84.6257 91.3042C85.0674 91.3042 85.4234 91.8029 85.4234 92.4205Z" fill="#1B1B43"/>
<path d="M82.851 98.0236C82.7635 98.0236 82.6837 97.969 82.6526 97.8833C82.6157 97.7742 82.6721 97.6554 82.783 97.6184L82.8316 97.6008C83.2596 97.4547 83.7907 97.2716 84.0008 96.9131C84.1389 96.6774 84.0202 96.3579 83.6312 95.9059C83.0981 95.2902 82.4814 94.4486 82.4445 93.3927C82.4406 93.2777 82.5301 93.1803 82.6468 93.1764C82.7596 93.1725 82.8588 93.2622 82.8627 93.3791C82.8938 94.3045 83.458 95.0701 83.9463 95.6331C84.1564 95.8767 84.7148 96.5196 84.3607 97.1255C84.0728 97.6164 83.4347 97.8366 82.9678 97.9963L82.9191 98.0139C82.8958 98.0216 82.8744 98.0255 82.851 98.0255V98.0236Z" fill="#925D4F"/>
<path d="M80.2812 98.5691L84.5981 99.6835C84.5981 99.6835 80.9407 102.6 80.2812 98.5691Z" fill="white"/>
<path d="M77.2617 91.1308C77.4446 90.8444 77.7053 90.6145 78.001 90.4314C78.2986 90.2522 78.6371 90.1333 78.9893 90.0846C79.6915 89.9853 80.4405 90.1957 80.923 90.6827L80.7751 90.973C80.4619 90.9379 80.1798 90.899 79.9036 90.8873C79.6293 90.8736 79.3628 90.8795 79.0982 90.9107C78.8336 90.9418 78.569 91.0003 78.3025 91.0821C78.0341 91.16 77.7675 91.2691 77.4738 91.3802L77.2656 91.1289L77.2617 91.1308Z" fill="#1B1B43"/>
<path d="M85.9206 90.7684C85.6385 90.7139 85.3856 90.6321 85.1424 90.5775C84.9012 90.5171 84.6755 90.4743 84.4595 90.4626C84.2436 90.4509 84.0354 90.4665 83.8117 90.5093C83.588 90.5522 83.3545 90.6282 83.0822 90.7041L82.876 90.4509C83.0316 90.1859 83.267 89.9677 83.5569 89.8177C83.8448 89.6677 84.1911 89.6015 84.5199 89.6307C84.8506 89.656 85.1579 89.7651 85.4206 89.9151C85.6832 90.071 85.9108 90.258 86.0937 90.4898L85.9225 90.7684H85.9206Z" fill="#1B1B43"/>
<path opacity="0.2" d="M78.6334 98.4332C79.6209 97.5248 79.6861 95.9867 78.779 94.9978C77.8719 94.0089 76.3361 93.9436 75.3486 94.852C74.3611 95.7604 74.2959 97.2985 75.203 98.2874C76.1101 99.2763 77.6459 99.3416 78.6334 98.4332Z" fill="#BE443D"/>
<path opacity="0.2" d="M89.0413 97.6573C88.7495 97.782 88.4324 97.8502 88.0978 97.8502C86.8527 97.8502 85.8333 96.9209 85.6835 95.7247C85.6757 95.6234 85.666 95.524 85.666 95.4227V95.3721C85.6913 94.0512 86.7691 92.9875 88.0978 92.9875C88.2729 92.9875 88.448 93.005 88.6153 93.0459C88.8079 94.7019 88.983 96.2585 89.0413 97.6554V97.6573Z" fill="#BE443D"/>
<path d="M72.7291 110.145C86.6524 128.885 79.1956 175.718 75.9701 184.398L55.2086 182.782L61.6596 148.467L51.1777 136.758L72.731 110.145H72.7291Z" fill="#1A9AD7"/>
<path d="M77.2615 147.962C78.3996 144.453 75.8725 140.43 71.5342 136.154L68.8379 141.967L77.2615 147.962Z" fill="#1B1B43"/>
<path d="M71.554 178.993C71.5345 178.993 71.5131 178.991 71.4937 178.983C71.3828 178.95 71.3205 178.833 71.3536 178.722C75.26 165.658 75.9409 147.506 76.114 134.989C76.114 134.874 76.2094 134.782 76.3222 134.782H76.3261C76.4409 134.782 76.5342 134.88 76.5323 134.995C76.1724 161.183 73.6336 172.56 71.7543 178.841C71.7271 178.933 71.6435 178.991 71.554 178.991V178.993Z" fill="#1B1B43"/>
<path d="M84.0164 136.025C84.028 134.478 83.8393 132.883 82.855 131.735C82.3025 131.092 80.3084 131.739 79.2151 132.258C79.1625 132.283 80.538 125.978 79.9621 125.519C79.252 124.95 78.5206 125.33 78.1937 125.982C77.6432 127.083 77.2736 128.369 76.8456 129.524C76.2055 131.256 75.4196 132.748 74.0033 133.972C72.8808 134.942 71.5949 135.532 71.0404 137.017C70.628 138.122 70.7642 139.263 70.8926 140.411C71.0326 141.675 71.2875 142.936 71.7875 144.11C72.0229 144.662 72.3594 145.258 72.9372 145.501C73.6278 145.792 74.4663 145.396 75.1258 145.141C76.6102 144.564 78.114 144.036 79.6333 143.557C80.8804 143.164 82.1429 142.532 83.0028 141.515C83.8919 140.463 83.8607 139.289 83.9308 137.987C83.9638 137.372 84.0086 136.703 84.0144 136.027L84.0164 136.025ZM72.6435 141.771L72.661 141.775C72.5773 141.874 72.5676 141.876 72.6435 141.771Z" fill="#D28572"/>
<path d="M80.3945 135.03C80.2544 135.03 80.126 134.934 80.091 134.79C80.0501 134.623 80.1532 134.451 80.3205 134.41L83.4527 133.643C83.62 133.602 83.7892 133.705 83.832 133.873C83.8729 134.04 83.7698 134.212 83.6024 134.253L80.4703 135.02C80.445 135.026 80.4197 135.03 80.3964 135.03H80.3945Z" fill="#925D4F"/>
<path d="M80.6044 137.539C80.4643 137.539 80.3359 137.444 80.3009 137.3C80.2601 137.132 80.3632 136.961 80.5305 136.92L83.6626 136.152C83.8299 136.111 83.9992 136.214 84.042 136.382C84.0828 136.549 83.9797 136.721 83.8124 136.762L80.6803 137.529C80.655 137.535 80.6297 137.539 80.6064 137.539H80.6044Z" fill="#925D4F"/>
<path d="M80.5341 140.189C80.394 140.189 80.2656 140.093 80.2306 139.949C80.1898 139.782 80.2929 139.61 80.4602 139.569L83.5923 138.802C83.7596 138.761 83.9289 138.864 83.9717 139.031C84.0125 139.199 83.9094 139.37 83.7421 139.411L80.61 140.179C80.5847 140.185 80.5594 140.189 80.536 140.189H80.5341Z" fill="#925D4F"/>
<path d="M77.1957 147.861C73.6453 151.332 69.6689 154.461 65.4746 157.113C61.4476 159.665 56.7941 162.283 51.917 162.525C44.3824 162.901 41.1491 154.896 41.4487 148.486C41.7833 141.2 45.6255 134.523 49.1 128.307C52.5745 122.082 57.5217 116.502 64.1459 113.592C64.1965 113.574 64.247 113.551 64.2957 113.533L72.7252 109.876V110.143C72.7252 111.449 73.017 112.678 73.5442 113.75L60.2453 141.934L71.5307 136.154C72.5501 140.22 74.5383 144.101 77.1938 147.859L77.1957 147.861Z" fill="#1A9AD7"/>
<path d="M52.7224 145.556C52.6465 145.556 52.5726 145.515 52.5357 145.443C52.4831 145.34 52.524 145.215 52.6251 145.161L71.2642 135.583C71.3673 135.531 71.4918 135.571 71.5463 135.673C71.5988 135.776 71.5579 135.901 71.4568 135.955L52.8177 145.533C52.7866 145.548 52.7555 145.556 52.7224 145.556Z" fill="#1B1B43"/>
<path d="M59.3022 160.719C59.2361 160.719 59.1719 160.688 59.131 160.631C59.0649 160.538 59.0863 160.407 59.1816 160.339L77.0756 147.689C77.1689 147.623 77.2993 147.645 77.3674 147.74C77.4335 147.834 77.4121 147.964 77.3168 148.032L59.4228 160.682C59.3859 160.707 59.345 160.721 59.3022 160.721V160.719Z" fill="#1B1B43"/>
<path d="M57.8391 142.733C57.8118 142.733 57.7846 142.727 57.7574 142.717C57.6504 142.673 57.6017 142.55 57.6465 142.443L62.973 129.789C63.0178 129.682 63.1403 129.633 63.2473 129.678C63.3543 129.723 63.403 129.846 63.3582 129.953L58.0317 142.606C57.9986 142.686 57.9208 142.735 57.8391 142.735V142.733Z" fill="#1B1B43"/>
<path d="M74.4783 133.53C74.4122 133.53 74.3461 133.497 74.3052 133.438L67.2861 123.037L70.5194 112.9C70.5544 112.791 70.6731 112.731 70.782 112.764C70.8929 112.799 70.9532 112.916 70.9182 113.027L67.7472 122.968L74.6515 133.202C74.7157 133.298 74.6904 133.428 74.5951 133.493C74.5601 133.516 74.5192 133.528 74.4783 133.528V133.53Z" fill="#1B1B43"/>
<path d="M162.076 113.471C161.85 115.707 159.79 115.298 158.811 117.116C157.627 119.316 154.401 121.642 151.847 120.062C150.487 119.22 149.485 117.851 148.97 116.335C148.226 114.149 150.351 111.075 151.491 109.425C152.596 107.825 155.302 107.332 157.138 107.313C158.347 107.301 159.741 108.289 160.457 109.45C161.2 110.656 162.22 112.076 162.078 113.471H162.076Z" fill="#D28572"/>
<path d="M162.953 113.225C163.319 114.09 162.334 114.823 160.98 115.394C159.626 115.967 158.416 116.163 158.052 115.298C157.659 114.365 158.671 113.701 160.025 113.13C161.379 112.557 162.474 112.092 162.953 113.225Z" fill="#D28572"/>
<path d="M162.893 111.182C163.251 112.029 162.014 112.861 160.351 113.564C158.687 114.268 157.23 114.578 156.872 113.728C156.487 112.814 157.752 112.049 159.415 111.345C161.078 110.642 162.425 110.069 162.893 111.182Z" fill="#D28572"/>
<path d="M172.909 85.9737L171.485 85.0975L155.918 110.469L157.341 111.345L172.909 85.9737Z" fill="#1B1B43"/>
<path d="M151.555 109.923C152.592 110.114 153.596 108.924 154.627 109.14C156.139 109.456 157.175 109.323 158.817 108.694C159.705 108.355 160.959 107.416 160.988 106.35C160.996 106.037 160.913 105.678 160.636 105.528C160.253 105.318 159.808 105.627 159.446 105.873C157.107 107.457 153.919 105.978 151.429 109.875L151.555 109.925V109.923Z" fill="#D28572"/>
<path d="M161.461 109.228C161.99 109.98 161.247 110.866 159.656 112.002C158.064 113.138 157.16 113.438 156.891 112.557C156.72 111.998 156.679 111.172 158.271 110.036C159.862 108.9 160.767 108.244 161.461 109.23V109.228Z" fill="#D28572"/>
<path d="M153.884 114.55C153.821 114.55 153.761 114.523 153.72 114.47C153.648 114.381 153.664 114.248 153.753 114.176C154.989 113.194 155.424 111.988 155.09 110.49C155.064 110.377 155.135 110.266 155.247 110.241C155.36 110.215 155.471 110.286 155.496 110.399C155.87 112.068 155.385 113.411 154.012 114.503C153.973 114.535 153.928 114.548 153.882 114.548L153.884 114.55Z" fill="#925D4F"/>
<path d="M157.658 112.45C157.337 112.45 157.045 112.316 156.874 112.082C156.757 111.922 156.706 111.706 156.741 111.501C156.773 111.316 156.868 111.162 157.012 111.063C157.107 110.999 157.237 111.022 157.302 111.117C157.368 111.213 157.343 111.343 157.247 111.408C157.181 111.453 157.16 111.529 157.154 111.571C157.138 111.663 157.16 111.764 157.212 111.832C157.315 111.975 157.523 112.051 157.741 112.025C158.016 111.994 159.014 111.69 159.185 111.571C159.28 111.505 159.41 111.529 159.475 111.624C159.541 111.719 159.517 111.85 159.422 111.914C159.163 112.095 158.076 112.409 157.786 112.442C157.743 112.446 157.699 112.45 157.656 112.45H157.658Z" fill="#925D4F"/>
<path d="M158.642 113.931C158.453 113.931 158.2 113.89 158.029 113.695C157.885 113.531 157.837 113.288 157.901 113.06C157.946 112.906 158.442 111.934 158.613 111.792C158.702 111.718 158.833 111.729 158.907 111.819C158.979 111.907 158.969 112.035 158.883 112.109C158.782 112.216 158.344 113.035 158.302 113.173C158.276 113.262 158.292 113.362 158.342 113.418C158.414 113.5 158.57 113.529 158.805 113.5C159.391 113.43 159.965 113.22 160.519 113.019C160.628 112.98 160.747 113.035 160.788 113.144C160.827 113.253 160.772 113.372 160.663 113.412C160.086 113.623 159.49 113.839 158.856 113.917C158.809 113.923 158.733 113.933 158.642 113.933V113.931Z" fill="#925D4F"/>
<path d="M159.644 115.727C159.461 115.727 159.274 115.709 159.087 115.672C158.846 115.626 158.665 115.493 158.595 115.306C158.354 114.679 159.229 113.714 159.603 113.453C159.698 113.387 159.829 113.411 159.893 113.506C159.959 113.601 159.936 113.732 159.84 113.796C159.492 114.04 158.862 114.839 158.984 115.154C159.002 115.199 159.076 115.242 159.167 115.259C159.589 115.341 160.006 115.316 160.373 115.183C160.482 115.144 160.601 115.201 160.64 115.31C160.679 115.419 160.622 115.538 160.513 115.577C160.241 115.674 159.947 115.723 159.646 115.723L159.644 115.727Z" fill="#925D4F"/>
<path d="M103.585 132.115L113.596 138.036C123.331 143.736 132.947 143.016 141.816 134.671L155.59 121.618L147.123 112.534C141.139 118.242 129.587 129.557 119.921 122.961L109.303 115.174C105.13 112.366 100.43 110.441 95.4901 109.518L85.6735 107.887C84.5004 123.28 89.7998 159.227 96.1263 179.956L114.067 173.092C111.244 163.807 106.34 143.351 103.585 132.113V132.115Z" fill="#1A9AD7"/>
<path d="M106.083 143.36C105.986 143.36 105.9 143.294 105.879 143.195L101.702 123.744C101.678 123.631 101.748 123.52 101.861 123.496C101.974 123.471 102.085 123.543 102.108 123.656L106.285 143.107C106.308 143.22 106.238 143.331 106.126 143.355C106.11 143.358 106.096 143.358 106.081 143.358L106.083 143.36Z" fill="#1B1B43"/>
<path d="M99.072 174.288C98.9728 174.288 98.8852 174.218 98.8677 174.117L90.8312 130.516L93.8816 122.045L87.2439 109.857C87.1894 109.756 87.2264 109.629 87.3275 109.573C87.4287 109.518 87.5551 109.555 87.6115 109.656L94.3407 122.008L91.265 130.549L99.2802 174.039C99.3016 174.152 99.2257 174.261 99.1129 174.282C99.0992 174.284 99.0876 174.286 99.0739 174.286L99.072 174.288Z" fill="#1B1B43"/>
<path d="M151.611 122.376C151.557 122.376 151.501 122.355 151.46 122.312L145.474 116.037C145.394 115.953 145.398 115.82 145.48 115.741C145.563 115.661 145.695 115.665 145.775 115.746L151.761 122.022C151.841 122.105 151.837 122.238 151.755 122.318C151.715 122.357 151.662 122.376 151.611 122.376Z" fill="#1B1B43"/>
<path d="M73.085 147.335C73.0403 147.335 72.9936 147.319 72.9566 147.29C70.8361 145.62 69.4452 142.98 68.704 139.219C68.6826 139.106 68.7545 138.994 68.8693 138.973C68.9821 138.952 69.093 139.024 69.1144 139.139C69.8342 142.797 71.1766 145.357 73.2154 146.963C73.3068 147.035 73.3224 147.165 73.2504 147.257C73.2095 147.309 73.1473 147.337 73.087 147.337L73.085 147.335Z" fill="#1B1B43"/>
<path d="M82.4833 196.903C82.4697 196.903 82.4581 196.903 82.4444 196.899C82.3316 196.878 82.2577 196.769 82.2791 196.656L84.5766 184.524C84.598 184.411 84.705 184.337 84.8198 184.359C84.9326 184.38 85.0066 184.489 84.9852 184.602L82.6876 196.734C82.6682 196.833 82.5806 196.903 82.4833 196.903Z" fill="#1B1B43"/>
<path d="M311.23 204.673H308.39V298.372H311.23V204.673Z" fill="#1B1B43"/>
<path d="M424.842 204.673H422.002V298.372H424.842V204.673Z" fill="#1B1B43"/>
<path d="M473.766 204.359H268.12V209.594H473.766V204.359Z" fill="white"/>
<path d="M474.079 209.905H267.807V204.043H474.079V209.905ZM268.433 209.278H473.453V204.671H268.433V209.278Z" fill="#1B1B43"/>
<path d="M492.434 270.653L505.914 285.397L492.187 298.779L492.705 285.208L484.695 278.428L492.434 270.653Z" fill="#CBCBFF"/>
<path d="M492.469 285.718C492.29 285.718 492.125 285.603 492.07 285.424C492.002 285.204 492.127 284.97 492.347 284.902L496.234 283.702C496.453 283.634 496.689 283.758 496.755 283.978C496.823 284.199 496.699 284.432 496.479 284.501L492.592 285.701C492.551 285.714 492.51 285.72 492.469 285.72V285.718Z" fill="#1B1B43"/>
<path d="M492.538 289.046C492.359 289.046 492.193 288.931 492.139 288.752C492.071 288.531 492.195 288.296 492.415 288.229L496.302 287.029C496.522 286.961 496.755 287.086 496.823 287.306C496.891 287.526 496.767 287.76 496.547 287.828L492.66 289.028C492.619 289.042 492.578 289.048 492.538 289.048V289.046Z" fill="#1B1B43"/>
<path d="M502.068 288.59C502.027 288.59 501.986 288.584 501.945 288.57C500.453 288.111 499.36 286.591 499.288 284.877C499.22 283.25 500.068 281.921 501.558 281.319C501.772 281.233 502.015 281.337 502.101 281.551C502.187 281.765 502.084 282.009 501.87 282.095C500.216 282.761 500.097 284.236 500.123 284.84C500.181 286.207 501.031 287.411 502.191 287.77C502.41 287.838 502.535 288.072 502.467 288.292C502.412 288.471 502.247 288.588 502.068 288.588V288.59Z" fill="#1B1B43"/>
<path d="M451.938 170.55L441.906 210.441C439.379 220.486 441.892 231.131 448.639 238.983L485.133 281.438L497.636 270.567L465.696 227.823L470.698 163.748L451.94 170.55H451.938Z" fill="#1A9AD7"/>
<path d="M451.52 182.471C451.436 182.471 451.359 182.42 451.325 182.338C451.283 182.231 451.335 182.11 451.442 182.066C455.1 180.601 456.695 176.872 456.185 170.984C456.175 170.869 456.261 170.768 456.376 170.758C456.489 170.748 456.592 170.834 456.601 170.949C457.129 177.043 455.446 180.914 451.598 182.455C451.573 182.465 451.545 182.471 451.52 182.471Z" fill="#1B1B43"/>
<path d="M484.659 276.727C484.595 276.727 484.532 276.698 484.491 276.643C484.421 276.552 484.441 276.419 484.532 276.351L492.31 270.485C492.402 270.415 492.534 270.434 492.602 270.526C492.672 270.618 492.652 270.75 492.561 270.818L484.783 276.684C484.746 276.714 484.702 276.727 484.659 276.727Z" fill="#1B1B43"/>
<path d="M477.419 280.803L478.269 298.828H455.904L465.882 289.541L466.408 280.928L477.419 280.803Z" fill="#CBCBFF"/>
<path d="M469.48 291.857C469.413 291.857 469.347 291.842 469.285 291.808L465.686 289.911C465.482 289.804 465.404 289.55 465.511 289.346C465.618 289.141 465.871 289.063 466.075 289.171L469.674 291.068C469.878 291.175 469.956 291.428 469.849 291.633C469.775 291.775 469.629 291.857 469.48 291.857Z" fill="#1B1B43"/>
<path d="M467.182 294.261C467.116 294.261 467.049 294.246 466.987 294.212L463.388 292.315C463.184 292.208 463.106 291.955 463.213 291.75C463.32 291.545 463.573 291.467 463.777 291.575L467.376 293.472C467.58 293.579 467.658 293.833 467.551 294.037C467.477 294.179 467.331 294.261 467.182 294.261Z" fill="#1B1B43"/>
<path d="M472.771 298.705C472.621 298.705 472.477 298.625 472.401 298.483C471.592 296.961 471.921 294.922 473.199 293.525C474.411 292.202 476.106 291.824 477.736 292.518C477.948 292.607 478.047 292.853 477.958 293.067C477.868 293.279 477.623 293.379 477.409 293.289C476.119 292.742 474.775 293.042 473.814 294.092C472.771 295.231 472.493 296.878 473.137 298.093C473.246 298.298 473.168 298.551 472.964 298.658C472.901 298.691 472.833 298.707 472.767 298.707L472.771 298.705Z" fill="#1B1B43"/>
<path d="M466.429 167.064L460.768 227.858L463.448 284.756L479.874 283.864L486.815 189.792C489.321 181.635 489.947 175.362 488.92 167.953L466.429 167.064Z" fill="#1A9AD7"/>
<path d="M484.099 182.157C484.085 182.157 484.072 182.157 484.058 182.153C478.868 181.15 475.794 176.26 476.232 169.698C476.239 169.583 476.335 169.494 476.454 169.504C476.568 169.511 476.656 169.611 476.648 169.726C476.454 172.64 477 175.391 478.189 177.474C479.496 179.767 481.552 181.242 484.138 181.742C484.251 181.764 484.325 181.873 484.303 181.988C484.284 182.087 484.196 182.157 484.099 182.157Z" fill="#1B1B43"/>
<path d="M463.215 284.814C463.104 284.814 463.011 284.727 463.007 284.616L460.291 225.984C460.291 225.974 460.291 225.963 460.291 225.953L465.094 178.685C465.106 178.57 465.207 178.485 465.324 178.498C465.439 178.51 465.522 178.613 465.511 178.728L460.709 225.98L463.413 284.388L479.679 283.663L483.613 229.097C483.62 228.982 483.718 228.895 483.836 228.904C483.951 228.912 484.039 229.014 484.029 229.129L480.082 283.879C480.074 283.984 479.988 284.068 479.883 284.074L463.225 284.816C463.225 284.816 463.219 284.816 463.215 284.816V284.814Z" fill="#1B1B43"/>
<path d="M466.139 281.607C466.028 281.607 465.937 281.522 465.931 281.409C465.925 281.294 466.013 281.194 466.129 281.189L477.409 280.592C477.526 280.587 477.623 280.674 477.629 280.791C477.635 280.906 477.547 281.005 477.43 281.011L466.151 281.607C466.151 281.607 466.143 281.607 466.139 281.607Z" fill="#1B1B43"/>
<path d="M488.642 125.686C500.871 112.627 477.207 112.197 478.147 99.9602C479.139 87.0435 469.896 87.7254 469.896 87.7254C469.896 87.7254 461.654 80.4118 454.858 87.3065C446.538 95.7501 453.041 100.49 446.608 107.593C437.025 118.178 448.273 129.972 448.273 129.972L488.638 125.684L488.642 125.686Z" fill="#1B1B43"/>
<path d="M516.279 117.697C516.571 117.469 522.586 111.053 522.586 111.053C522.586 111.053 524.981 101.552 525.876 102.643C526.771 103.734 525.421 109.68 525.421 109.68C525.421 109.68 529.635 109.598 530.008 110.625C530.382 111.651 530.205 117.531 522.153 123.804L516.279 117.697Z" fill="#FFBC96"/>
<path d="M522.946 111.562C522.709 109.824 521.797 106.699 521.223 106.644C520.649 106.59 520.495 108.994 520.45 110.823C520.378 113.792 519.046 116.177 519.59 116.364C520.816 116.785 523.129 112.9 522.944 111.562H522.946Z" fill="#FFBC96"/>
<path d="M525.646 113.689C525.555 113.689 525.467 113.67 525.388 113.633C525.139 113.51 525.008 113.239 525.002 112.824C524.993 112.136 525.127 111.437 525.39 110.802C525.436 110.689 525.569 110.634 525.679 110.681C525.792 110.728 525.847 110.858 525.8 110.971C525.561 111.55 525.438 112.189 525.448 112.816C525.452 113.042 525.499 113.19 525.582 113.231C525.635 113.257 525.718 113.245 525.792 113.2C526.172 112.968 526.532 112.292 526.753 111.394C526.783 111.275 526.903 111.203 527.022 111.233C527.14 111.262 527.214 111.383 527.183 111.501C527.034 112.103 526.685 113.175 526.022 113.58C525.903 113.652 525.771 113.689 525.644 113.689H525.646Z" fill="#D28572"/>
<path d="M526.779 114.268C526.644 114.268 526.516 114.225 526.419 114.141C526.218 113.97 526.205 113.701 526.213 113.516C526.232 113.009 526.343 112.518 526.539 112.051C526.588 111.938 526.718 111.885 526.831 111.932C526.944 111.981 526.997 112.111 526.95 112.224C526.775 112.641 526.676 113.081 526.658 113.533C526.652 113.679 526.67 113.769 526.709 113.804C526.742 113.831 526.814 113.831 526.874 113.804C526.965 113.761 527.049 113.668 527.119 113.586C527.65 112.955 528.006 112.191 528.152 111.379C528.174 111.258 528.288 111.178 528.411 111.199C528.531 111.221 528.611 111.336 528.59 111.459C528.43 112.347 528.039 113.183 527.46 113.874C527.351 114.003 527.228 114.133 527.061 114.211C526.969 114.254 526.872 114.276 526.779 114.276V114.268Z" fill="#D28572"/>
<path d="M528.371 114.266C528.237 114.266 528.109 114.223 528.011 114.139C527.811 113.968 527.798 113.699 527.805 113.512C527.817 113.22 527.864 112.968 527.92 112.676C527.959 112.468 528 112.251 528.035 111.988C528.05 111.866 528.163 111.78 528.284 111.796C528.406 111.811 528.492 111.922 528.476 112.045C528.441 112.322 528.397 112.553 528.358 112.758C528.305 113.033 528.261 113.268 528.251 113.527C528.245 113.674 528.262 113.763 528.301 113.798C528.334 113.826 528.406 113.826 528.467 113.798C528.558 113.755 528.642 113.664 528.712 113.58C529.241 112.949 529.599 112.185 529.745 111.373C529.766 111.252 529.883 111.172 530.004 111.194C530.124 111.215 530.206 111.332 530.183 111.453C530.023 112.341 529.632 113.177 529.052 113.868C528.943 113.997 528.821 114.128 528.653 114.205C528.562 114.248 528.465 114.268 528.371 114.268V114.266Z" fill="#D28572"/>
<path d="M523.597 115.524C523.576 115.524 523.557 115.522 523.535 115.517C523.417 115.484 523.348 115.359 523.383 115.242C523.8 113.796 523.607 112.672 522.778 111.708C522.699 111.614 522.708 111.474 522.802 111.394C522.895 111.314 523.035 111.324 523.115 111.418C524.039 112.491 524.265 113.783 523.81 115.365C523.782 115.462 523.693 115.526 523.596 115.526L523.597 115.524Z" fill="#D28572"/>
<path d="M477.75 130.974L494.44 141.968C498.578 145.048 504.202 144.9 507.821 141.34C508.815 140.362 524.755 123.561 524.755 123.561L518.865 114.979L502.301 130.769L486.896 118.659C485.662 117.745 484.246 117.151 482.765 116.931L463.749 114.091C463.749 114.091 477.268 130.615 477.748 130.972L477.75 130.974Z" fill="#CBCBFF"/>
<path d="M418.243 174.873L414.553 179.893C409.331 180.38 405.781 182.264 402.752 185.436L422.21 185.401L426.317 174.456L418.241 174.875L418.243 174.873Z" fill="#FFBC96"/>
<path d="M463.26 114.301C458.095 116.986 453.317 118.807 448.388 121.755C446.804 122.702 445.185 124.132 443.592 126.006C441.734 128.19 440.256 130.654 439.075 133.245L431.75 149.493L415.321 178.913L426.877 179.192L442.053 154.233L463.262 114.299L463.26 114.301Z" fill="#CBCBFF"/>
<path d="M452.994 125.918C441.693 133.353 451.393 149.556 449.278 170.591C449.021 173.149 451.313 175.243 453.815 174.668C463.622 172.416 476.049 171.561 485.988 172.305C488.303 172.478 490.208 170.509 489.984 168.194C486.768 156.078 485.317 142.569 486.031 127.348L469.493 114.057L457.729 117.422L452.992 125.918H452.994Z" fill="#CBCBFF"/>
<path d="M460.292 100.48V116.791C460.292 120.508 463.728 121.517 466.229 121.389C468.358 121.279 471.607 120.068 471.57 116.791V100.48H460.292Z" fill="#FFBC96"/>
<path d="M460.292 108.102V115.752C463.346 115.057 467.34 112.351 468.698 108.6L460.292 108.102Z" fill="#D28572"/>
<path d="M474.919 92.5979L471.882 102.471C471.308 105.252 470.997 107.19 468.754 108.928C465.383 111.54 461.356 112.201 459.939 111.256C457.675 109.74 456.815 108.567 456.523 106.613C456.331 105.37 456.364 103.802 456.407 101.63C456.457 99.0114 456.523 95.4988 456.206 90.5932C456.165 89.9191 464.887 86.5117 464.887 86.5117L474.919 92.5998V92.5979Z" fill="#FFBC96"/>
<path d="M472.353 100.695C471.674 98.1853 469.883 98.01 468.698 93.4785C462.537 96.9287 459.091 90.5503 453.792 99.9621L454.027 92.2238L457.37 87.6221L464 86.1064L474.911 90.447L476.688 95.5708L472.353 100.695Z" fill="#1B1B43"/>
<path d="M474.562 102.243C475.094 100.567 474.184 98.781 472.53 98.255C470.877 97.729 469.105 98.6618 468.573 100.338C468.041 102.015 468.951 103.801 470.605 104.327C472.259 104.853 474.03 103.92 474.562 102.243Z" fill="#FFBC96"/>
<path d="M448.491 150.158C448.388 150.158 448.298 150.082 448.285 149.979L446.195 135.338C446.18 135.223 446.258 135.118 446.372 135.102C446.487 135.086 446.592 135.166 446.608 135.279L448.697 149.92C448.713 150.035 448.635 150.14 448.52 150.156C448.51 150.156 448.501 150.158 448.491 150.158Z" fill="#1B1B43"/>
<path d="M490.574 139.7C490.531 139.7 490.489 139.686 490.452 139.661L481.053 132.864C480.96 132.795 480.939 132.665 481.007 132.571C481.075 132.478 481.205 132.456 481.298 132.525L490.697 139.322C490.79 139.39 490.812 139.521 490.744 139.614C490.703 139.671 490.638 139.702 490.574 139.702V139.7Z" fill="#1B1B43"/>
<path d="M465.287 123.734C463.12 123.734 461.104 122.891 459.538 121.706C459.447 121.636 459.427 121.505 459.497 121.414C459.567 121.322 459.698 121.303 459.789 121.373C462.729 123.596 467.328 124.564 471.423 120.623C471.506 120.543 471.639 120.545 471.718 120.629C471.798 120.713 471.796 120.845 471.713 120.925C469.608 122.949 467.376 123.736 465.285 123.736L465.287 123.734Z" fill="#1B1B43"/>
<path d="M471.987 166.472C471.899 166.472 471.82 166.418 471.788 166.33C471.751 166.221 471.81 166.102 471.919 166.065C476.428 164.518 479.525 160.154 481.391 152.722C481.418 152.609 481.533 152.542 481.644 152.57C481.757 152.597 481.823 152.712 481.796 152.823C479.893 160.401 476.706 164.863 472.053 166.46C472.03 166.468 472.008 166.472 471.985 166.472H471.987Z" fill="#1B1B43"/>
<path d="M435.647 151.935C435.622 151.935 435.596 151.931 435.571 151.921L431.951 150.526C431.844 150.485 431.789 150.364 431.83 150.255C431.871 150.148 431.991 150.093 432.1 150.134L435.721 151.529C435.828 151.57 435.882 151.691 435.841 151.8C435.81 151.884 435.731 151.935 435.647 151.935Z" fill="#1B1B43"/>
<path d="M499.694 133.391C499.637 133.391 499.581 133.368 499.54 133.323C499.462 133.238 499.466 133.107 499.552 133.027L502.158 130.615C502.244 130.537 502.376 130.541 502.454 130.627C502.532 130.713 502.528 130.843 502.443 130.923L499.836 133.335C499.795 133.372 499.744 133.391 499.694 133.391Z" fill="#1B1B43"/>
<path d="M458.146 99.9504C458.183 100.434 458.51 100.8 458.876 100.773C459.241 100.743 459.508 100.33 459.471 99.8472C459.434 99.364 459.107 98.9977 458.741 99.025C458.376 99.0542 458.109 99.4673 458.146 99.9504Z" fill="#1B1B43"/>
<path d="M461.117 104.351C461.099 104.351 461.082 104.349 461.064 104.346L461.023 104.334C460.619 104.229 460.066 104.086 459.788 103.685C459.442 103.184 459.874 102.598 460.037 102.378C460.403 101.883 460.819 101.215 460.786 100.455C460.78 100.34 460.87 100.243 460.987 100.237C461.103 100.233 461.199 100.321 461.204 100.437C461.243 101.328 460.78 102.076 460.374 102.627C460.088 103.013 460.012 103.274 460.131 103.447C460.319 103.72 460.767 103.835 461.127 103.929L461.169 103.94C461.28 103.97 461.348 104.083 461.319 104.196C461.296 104.289 461.21 104.351 461.117 104.351Z" fill="#D28572"/>
<path d="M463.368 104.741L459.771 105.68C459.771 105.68 461.835 108.544 463.368 104.741Z" fill="white"/>
<path d="M465.12 97.7197C464.84 97.5872 464.572 97.4742 464.298 97.3944C464.023 97.3145 463.749 97.2658 463.479 97.258C463.208 97.2521 462.942 97.2814 462.689 97.3632C462.434 97.445 462.195 97.5794 461.955 97.7665L461.757 97.6223C461.885 97.3047 462.144 97.0281 462.463 96.8605C462.78 96.6891 463.146 96.6151 463.498 96.6326C463.85 96.6482 464.192 96.7417 464.498 96.8976C464.801 97.0515 465.074 97.2658 465.276 97.5307L465.119 97.7197H465.12Z" fill="#1B1B43"/>
<path d="M457.405 98.3957C457.576 97.8463 458.108 97.4041 458.711 97.297C459.01 97.2385 459.323 97.2658 459.607 97.3632C459.89 97.4606 460.144 97.6301 460.32 97.86L460.176 98.0587C459.928 97.9827 459.701 97.9262 459.477 97.899C459.253 97.8717 459.034 97.8795 458.822 97.9145C458.608 97.9515 458.401 98.0197 458.201 98.123C458.001 98.2262 457.812 98.3646 457.613 98.5302L457.407 98.3977L457.405 98.3957Z" fill="#1B1B43"/>
<path opacity="0.5" d="M458.555 103.707C458.646 104.969 457.753 106.083 456.526 106.267C456.333 105.078 456.366 103.582 456.409 101.507C457.537 101.624 458.463 102.536 458.557 103.707H458.555Z" fill="#FF9289"/>
<path opacity="0.5" d="M463.979 102.618C464.082 103.936 465.232 104.922 466.549 104.821C467.866 104.718 468.85 103.566 468.749 102.247C468.646 100.928 467.496 99.9426 466.179 100.044C464.862 100.147 463.878 101.299 463.979 102.618Z" fill="#FF9289"/>
<path d="M462.932 99.3757C462.969 99.8589 463.296 100.225 463.662 100.198C464.027 100.169 464.294 99.7556 464.257 99.2724C464.22 98.7893 463.893 98.423 463.527 98.4503C463.162 98.4795 462.895 98.8925 462.932 99.3757Z" fill="#1B1B43"/>
<path d="M471.291 102.436C471.182 102.436 471.091 102.351 471.083 102.242C470.978 100.634 471.643 99.6679 473.06 99.3738C473.174 99.3504 473.283 99.4225 473.307 99.5355C473.33 99.6485 473.258 99.7595 473.145 99.7829C471.931 100.036 471.41 100.808 471.501 102.214C471.509 102.329 471.421 102.429 471.307 102.436C471.303 102.436 471.297 102.436 471.293 102.436H471.291Z" fill="#D28572"/>
<path d="M429.335 185.457H393.761V204.334H429.335V185.457Z" fill="white"/>
<path d="M429.644 204.645H393.449V185.148H429.644V204.645ZM394.07 204.024H429.023V185.767H394.07V204.024Z" fill="#1B1B43"/>
<path opacity="0.6" d="M429.331 191.464L394.035 196.851V188.799L429.331 191.464Z" fill="#CBCBFF"/>
<path d="M432.309 185.457H390.784V191.522H432.309V185.457Z" fill="white"/>
<path d="M432.622 191.838H390.471V185.146H432.622V191.838ZM391.097 191.21H431.996V185.773H391.097V191.21Z" fill="#1B1B43"/>
<path d="M373.514 109.627C373.514 101.567 366.989 95.0331 358.941 95.0331C350.893 95.0331 344.368 101.567 344.368 109.627C344.368 116.421 349.008 122.111 355.282 123.74L353.722 129.318L358.947 124.221C366.993 124.217 373.514 117.685 373.514 109.627Z" fill="#CBCBFF"/>
<path d="M353.302 110.837C354.138 110.837 354.815 110.158 354.815 109.321C354.815 108.484 354.138 107.806 353.302 107.806C352.466 107.806 351.788 108.484 351.788 109.321C351.788 110.158 352.466 110.837 353.302 110.837Z" fill="white"/>
<path d="M358.939 110.837C359.775 110.837 360.453 110.158 360.453 109.321C360.453 108.484 359.775 107.806 358.939 107.806C358.103 107.806 357.426 108.484 357.426 109.321C357.426 110.158 358.103 110.837 358.939 110.837Z" fill="white"/>
<path d="M364.579 110.837C365.415 110.837 366.092 110.158 366.092 109.321C366.092 108.484 365.415 107.806 364.579 107.806C363.743 107.806 363.065 108.484 363.065 109.321C363.065 110.158 363.743 110.837 364.579 110.837Z" fill="white"/>
<path d="M431.34 117.167L426.905 114.554C427.502 112.961 427.845 111.24 427.845 109.436C427.845 101.376 421.32 94.8422 413.271 94.8422C405.223 94.8422 398.698 101.376 398.698 109.436C398.698 117.496 405.223 124.03 413.271 124.03C418.279 124.03 422.693 121.5 425.317 117.648L431.342 117.165L431.34 117.167Z" fill="#CBCBFF"/>
<path d="M407.765 110.523C408.601 110.523 409.279 109.845 409.279 109.008C409.279 108.171 408.601 107.492 407.765 107.492C406.93 107.492 406.252 108.171 406.252 109.008C406.252 109.845 406.93 110.523 407.765 110.523Z" fill="white"/>
<path d="M413.405 110.523C414.241 110.523 414.919 109.845 414.919 109.008C414.919 108.171 414.241 107.492 413.405 107.492C412.569 107.492 411.892 108.171 411.892 109.008C411.892 109.845 412.569 110.523 413.405 110.523Z" fill="white"/>
<path d="M419.043 110.523C419.879 110.523 420.556 109.845 420.556 109.008C420.556 108.171 419.879 107.492 419.043 107.492C418.207 107.492 417.529 108.171 417.529 109.008C417.529 109.845 418.207 110.523 419.043 110.523Z" fill="white"/>
<path d="M330.178 298.723H0.313212C0.14007 298.723 0 298.582 0 298.409C0 298.235 0.14007 298.095 0.313212 298.095H330.178C330.351 298.095 330.491 298.235 330.491 298.409C330.491 298.582 330.351 298.723 330.178 298.723Z" fill="#1B1B43"/>
<path d="M534.041 298.828H344.172C343.941 298.828 343.754 298.641 343.754 298.409C343.754 298.177 343.941 297.99 344.172 297.99H534.041C534.273 297.99 534.459 298.177 534.459 298.409C534.459 298.641 534.273 298.828 534.041 298.828Z" fill="#1B1B43"/>
</svg>
