<svg width="219" height="279" viewBox="0 0 219 279" fill="none" xmlns="http://www.w3.org/2000/svg">
<g clip-path="url(#clip0_513_4324)">
<path d="M128.233 244.755H211.133C214.531 244.755 217.288 247.513 217.288 250.912V258.858C217.288 262.257 214.531 265.015 211.133 265.015H128.233V244.759V244.755Z" stroke="#BDCCD4" stroke-width="4" stroke-miterlimit="10"/>
<path d="M128.233 198.596H211.133C214.531 198.596 217.288 201.354 217.288 204.753V212.699C217.288 216.098 214.531 218.856 211.133 218.856H128.233V198.6V198.596Z" stroke="#BDCCD4" stroke-width="4" stroke-miterlimit="10"/>
<path d="M128.233 152.466H211.133C214.531 152.466 217.288 155.224 217.288 158.624V166.569C217.288 169.968 214.531 172.727 211.133 172.727H128.233V152.471V152.466Z" stroke="#BDCCD4" stroke-width="4" stroke-miterlimit="10"/>
<path d="M128.233 106.307H211.133C214.531 106.307 217.288 109.065 217.288 112.465V120.41C217.288 123.809 214.531 126.567 211.133 126.567H128.233V106.311V106.307Z" stroke="#BDCCD4" stroke-width="4" stroke-miterlimit="10"/>
<path d="M128.233 60.1481H211.133C214.531 60.1481 217.288 62.9063 217.288 66.3055V74.251C217.288 77.6502 214.531 80.4083 211.133 80.4083H128.233V60.1523V60.1481Z" stroke="#BDCCD4" stroke-width="4" stroke-miterlimit="10"/>
<path d="M128.233 13.989H211.133C214.531 13.989 217.288 16.7472 217.288 20.1464V28.0919C217.288 31.4911 214.531 34.2493 211.133 34.2493H128.233V13.989Z" stroke="#BDCCD4" stroke-width="4" stroke-miterlimit="10"/>
<path d="M128.486 47.2134H82.3779V93.3388H128.486V47.2134Z" stroke="#1B1B43" stroke-width="5" stroke-miterlimit="10"/>
<path d="M128.486 1.05435H82.3779V47.1797H128.486V1.05435Z" stroke="#1B1B43" stroke-width="5" stroke-miterlimit="10"/>
<path d="M128.486 139.498H82.3779V185.623H128.486V139.498Z" stroke="#1B1B43" stroke-width="5" stroke-miterlimit="10"/>
<path d="M128.486 93.3388H82.3779V139.464H128.486V93.3388Z" stroke="#1B1B43" stroke-width="5" stroke-miterlimit="10"/>
<path d="M128.486 231.82H82.3779V277.946H128.486V231.82Z" stroke="#1B1B43" stroke-width="5" stroke-miterlimit="10"/>
<path d="M128.486 185.657H82.3779V231.782H128.486V185.657Z" stroke="#1B1B43" stroke-width="5" stroke-miterlimit="10"/>
<path d="M143.081 24.5873H139.658V27.7629H143.473V28.7161H138.52V19.9018H143.279V20.8549H139.658V23.6384H143.081V24.5788V24.5873Z" fill="#1B1B43"/>
<path d="M144.911 24.1023C144.911 23.4486 144.898 22.913 144.86 22.39H145.868L145.919 23.4106H145.956C146.311 22.8075 146.897 22.2466 147.942 22.2466C148.806 22.2466 149.46 22.7696 149.734 23.5161H149.759C149.953 23.1618 150.202 22.8877 150.463 22.6937C150.843 22.4069 151.26 22.2508 151.863 22.2508C152.698 22.2508 153.941 22.7991 153.941 24.9964V28.7245H152.816V25.1397C152.816 23.9251 152.373 23.1913 151.445 23.1913C150.792 23.1913 150.282 23.6763 150.088 24.2372C150.037 24.3933 149.995 24.6041 149.995 24.8108V28.7203H148.87V24.9289C148.87 23.9209 148.427 23.1913 147.55 23.1913C146.829 23.1913 146.306 23.7649 146.125 24.3427C146.062 24.5114 146.032 24.7096 146.032 24.9036V28.7203H144.907V24.1065L144.911 24.1023Z" fill="#1B1B43"/>
<path d="M155.808 24.4565C155.808 23.6468 155.783 22.9931 155.758 22.39H156.791L156.841 23.4739H156.867C157.339 22.7021 158.081 22.2424 159.114 22.2424C160.644 22.2424 161.795 23.5371 161.795 25.4603C161.795 27.7334 160.408 28.8595 158.92 28.8595C158.085 28.8595 157.351 28.4925 156.972 27.8642H156.947V31.3013H155.808V24.4481V24.4565ZM156.947 26.1435C156.947 26.3122 156.972 26.4682 156.997 26.6158C157.208 27.4129 157.899 27.9612 158.722 27.9612C159.936 27.9612 160.644 26.9659 160.644 25.5151C160.644 24.2457 159.978 23.1618 158.764 23.1618C157.98 23.1618 157.246 23.7227 157.027 24.5873C156.989 24.7306 156.947 24.8993 156.947 25.0596V26.1435Z" fill="#1B1B43"/>
<path d="M163.245 19.4336H164.396V28.7161H163.245V19.4336Z" fill="#1B1B43"/>
<path d="M172.056 25.5024C172.056 27.8431 170.437 28.8637 168.907 28.8637C167.196 28.8637 165.876 27.6069 165.876 25.6079C165.876 23.4908 167.263 22.2466 169.013 22.2466C170.762 22.2466 172.056 23.5667 172.056 25.5024ZM167.035 25.5699C167.035 26.9574 167.832 28.0033 168.958 28.0033C170.083 28.0033 170.88 26.9701 170.88 25.5446C170.88 24.4734 170.345 23.1112 168.983 23.1112C167.621 23.1112 167.035 24.368 167.035 25.5699Z" fill="#1B1B43"/>
<path d="M173.832 22.39L175.219 26.1308C175.362 26.5483 175.518 27.046 175.623 27.4256H175.649C175.767 27.046 175.897 26.561 176.053 26.1055L177.31 22.39H178.524L176.799 26.9026C175.977 29.0745 175.412 30.1837 174.628 30.8669C174.068 31.3646 173.503 31.5586 173.216 31.6134L172.929 30.6476C173.216 30.5548 173.595 30.3735 173.937 30.0867C174.249 29.8379 174.641 29.3951 174.902 28.8046C174.953 28.6865 174.995 28.5938 174.995 28.5305C174.995 28.4672 174.97 28.3745 174.915 28.2311L172.575 22.3984H173.832V22.39Z" fill="#1B1B43"/>
<path d="M180.079 25.7639C180.104 27.3201 181.099 27.9612 182.25 27.9612C183.072 27.9612 183.57 27.8178 184 27.6322L184.193 28.4546C183.789 28.6359 183.097 28.8468 182.09 28.8468C180.142 28.8468 178.979 27.5647 178.979 25.6543C178.979 23.7438 180.104 22.2424 181.946 22.2424C184.012 22.2424 184.56 24.0601 184.56 25.2241C184.56 25.4603 184.535 25.6416 184.522 25.7597H180.079V25.7639ZM183.452 24.9415C183.464 24.2077 183.152 23.0732 181.858 23.0732C180.694 23.0732 180.184 24.1444 180.091 24.9415H183.452Z" fill="#1B1B43"/>
<path d="M186.626 25.7639C186.652 27.3201 187.647 27.9612 188.798 27.9612C189.62 27.9612 190.117 27.8178 190.551 27.6322L190.745 28.4546C190.341 28.6359 189.649 28.8468 188.642 28.8468C186.694 28.8468 185.53 27.5647 185.53 25.6543C185.53 23.7438 186.656 22.2424 188.498 22.2424C190.564 22.2424 191.112 24.0601 191.112 25.2241C191.112 25.4603 191.087 25.6416 191.074 25.7597H186.631L186.626 25.7639ZM189.999 24.9415C190.012 24.2077 189.7 23.0732 188.405 23.0732C187.242 23.0732 186.732 24.1444 186.639 24.9415H189.999Z" fill="#1B1B43"/>
<path d="M192.376 27.5394C192.718 27.7629 193.316 27.9949 193.894 27.9949C194.729 27.9949 195.125 27.5774 195.125 27.0544C195.125 26.5062 194.796 26.2025 193.949 25.8904C192.81 25.4856 192.275 24.8572 192.275 24.098C192.275 23.0774 193.097 22.2424 194.459 22.2424C195.1 22.2424 195.66 22.4237 196.014 22.6346L195.728 23.4697C195.479 23.3136 195.024 23.1027 194.434 23.1027C193.755 23.1027 193.375 23.495 193.375 23.9673C193.375 24.4903 193.755 24.7264 194.577 25.0385C195.673 25.456 196.238 26.0043 196.238 26.949C196.238 28.0624 195.374 28.8468 193.873 28.8468C193.181 28.8468 192.541 28.6781 192.094 28.4166L192.38 27.5394H192.376Z" fill="#1B1B43"/>
<path d="M0.40918 58.8239C1.05842 58.7142 1.97325 58.6299 3.25907 58.6299C4.5449 58.6299 5.48503 58.8787 6.10897 59.3763C6.7034 59.8487 7.1039 60.6205 7.1039 61.5356C7.1039 62.4508 6.80036 63.2226 6.24809 63.7498C5.52718 64.4287 4.4648 64.7324 3.21692 64.7324C2.93867 64.7324 2.68994 64.7197 2.49601 64.6902V68.0262H0.40918V58.8239ZM2.49601 63.0581C2.67729 63.1003 2.89651 63.1129 3.20005 63.1129C4.32146 63.1129 5.01285 62.5478 5.01285 61.5905C5.01285 60.7343 4.41842 60.2198 3.36868 60.2198C2.93867 60.2198 2.64778 60.262 2.49601 60.3042V63.0581Z" fill="#1B1B43"/>
<path d="M13.9884 64.0787H10.5568V66.2928H14.389V68.0219H8.44043V58.6973H14.195V60.4265H10.5568V62.3622H13.9884V64.0787Z" fill="#1B1B43"/>
<path d="M24.3593 63.2647C24.3593 66.3223 22.5044 68.178 19.7809 68.178C17.0575 68.178 15.3965 66.0904 15.3965 63.4334C15.3965 60.6373 17.1798 58.5497 19.9327 58.5497C22.6856 58.5497 24.3593 60.6922 24.3593 63.269V63.2647ZM17.6224 63.3871C17.6224 65.2132 18.4782 66.4995 19.8905 66.4995C21.3028 66.4995 22.1291 65.1457 22.1291 63.3322C22.1291 61.6579 21.3281 60.2198 19.8737 60.2198C18.4192 60.2198 17.6182 61.5778 17.6182 63.3871H17.6224Z" fill="#1B1B43"/>
<path d="M25.7422 58.8239C26.3914 58.7142 27.3063 58.6299 28.5921 58.6299C29.8779 58.6299 30.818 58.8787 31.442 59.3763C32.0364 59.8487 32.4369 60.6205 32.4369 61.5356C32.4369 62.4508 32.1334 63.2226 31.5811 63.7498C30.8602 64.4287 29.7978 64.7324 28.5541 64.7324C28.2759 64.7324 28.0272 64.7197 27.8332 64.6902V68.0262H25.7464V58.8239H25.7422ZM27.829 63.0581C28.0103 63.1003 28.2295 63.1129 28.5331 63.1129C29.6545 63.1129 30.3459 62.5478 30.3459 61.5905C30.3459 60.7343 29.7514 60.2198 28.7017 60.2198C28.2717 60.2198 27.9808 60.262 27.829 60.3042V63.0581Z" fill="#1B1B43"/>
<path d="M33.7734 58.6973H35.8898V66.2506H39.5955V68.0219H33.7734V58.6973Z" fill="#1B1B43"/>
<path d="M46.3869 64.0787H42.9552V66.2928H46.7874V68.0219H40.8389V58.6973H46.5935V60.4265H42.9552V62.3622H46.3869V64.0787Z" fill="#1B1B43"/>
<path d="M3.03165 77.9749H0.852074V79.995H3.28039V80.6023H0.126953V74.9932H3.15391V75.6005H0.852074V77.3718H3.03165V77.9707V77.9749Z" fill="#1B1B43"/>
<path d="M4.41824 76.5748L5.2066 78.8395C5.34151 79.2064 5.4469 79.5396 5.53122 79.8727H5.55651C5.64926 79.5396 5.76309 79.2064 5.89799 78.8395L6.67792 76.5748H7.44098L5.86005 80.6023H5.16022L3.62988 76.5748H4.40981H4.41824Z" fill="#1B1B43"/>
<path d="M8.46185 78.7214C8.47872 79.7125 9.11109 80.1173 9.84043 80.1173C10.3632 80.1173 10.6794 80.0246 10.9534 79.9107L11.0799 80.4337C10.8227 80.5517 10.3801 80.6825 9.73925 80.6825C8.4998 80.6825 7.75781 79.8685 7.75781 78.6539C7.75781 77.4393 8.4745 76.482 9.6465 76.482C10.9618 76.482 11.3117 77.6375 11.3117 78.3798C11.3117 78.5274 11.2949 78.6455 11.2865 78.7214H8.45764H8.46185ZM10.6077 78.1984C10.6161 77.7345 10.418 77.0092 9.59169 77.0092C8.84971 77.0092 8.52509 77.6924 8.47029 78.1984H10.6077Z" fill="#1B1B43"/>
<path d="M12.2183 77.8315C12.2183 77.3592 12.2099 76.9501 12.1846 76.5748H12.8254L12.8507 77.3634H12.8844C13.0657 76.8236 13.5083 76.482 13.9974 76.482C14.0817 76.482 14.1365 76.4904 14.2039 76.5073V77.1989C14.1281 77.1821 14.0522 77.1736 13.9552 77.1736C13.4409 77.1736 13.0741 77.5658 12.9729 78.1141C12.9561 78.2153 12.9392 78.3292 12.9392 78.4557V80.6023H12.2141V77.8315H12.2183Z" fill="#1B1B43"/>
<path d="M15.4133 76.5748L16.2944 78.9534C16.3872 79.2191 16.4841 79.5354 16.5516 79.7757H16.5684C16.6443 79.5354 16.7286 79.2275 16.8256 78.9365L17.6224 76.5748H18.3939L17.2978 79.4468C16.775 80.8259 16.4167 81.5344 15.915 81.9688C15.5566 82.2851 15.1983 82.4116 15.017 82.4411L14.8357 81.8254C15.017 81.7663 15.2615 81.6525 15.4765 81.4669C15.6747 81.3109 15.9276 81.0241 16.0921 80.653C16.1258 80.577 16.1511 80.518 16.1511 80.48C16.1511 80.4421 16.1342 80.3788 16.1005 80.2903L14.6123 76.579H15.4091L15.4133 76.5748Z" fill="#1B1B43"/>
<path d="M20.7503 79.7209C21.0749 79.9191 21.547 80.0878 22.0487 80.0878C22.7907 80.0878 23.2207 79.6956 23.2207 79.1305C23.2207 78.6075 22.9214 78.3081 22.1626 78.0171C21.2477 77.6924 20.6828 77.22 20.6828 76.4271C20.6828 75.5542 21.4079 74.9047 22.4956 74.9047C23.069 74.9047 23.4863 75.0396 23.7351 75.1788L23.5369 75.7692C23.3556 75.668 22.9804 75.5035 22.4703 75.5035C21.7072 75.5035 21.4121 75.959 21.4121 76.3428C21.4121 76.8658 21.7536 77.123 22.5251 77.4224C23.4737 77.7894 23.9543 78.2448 23.9543 79.0714C23.9543 79.936 23.3135 80.6867 21.9897 80.6867C21.4501 80.6867 20.8599 80.5264 20.5605 80.3282L20.7418 79.7209H20.7503Z" fill="#1B1B43"/>
<path d="M25.7423 75.4445C25.7508 75.6933 25.5695 75.8958 25.2786 75.8958C25.0214 75.8958 24.8359 75.6975 24.8359 75.4445C24.8359 75.1915 25.0256 74.989 25.2955 74.989C25.5653 74.989 25.7423 75.1872 25.7423 75.4445ZM24.9287 80.6023V76.5748H25.6622V80.6023H24.9287Z" fill="#1B1B43"/>
<path d="M26.8726 77.6671C26.8726 77.2495 26.8642 76.9079 26.8389 76.579H27.4881L27.5303 77.2453H27.5471C27.7453 76.8615 28.2132 76.4862 28.8793 76.4862C29.4358 76.4862 30.3001 76.8194 30.3001 78.1984V80.6023H29.5665V78.2828C29.5665 77.6333 29.3262 77.0935 28.6348 77.0935C28.1542 77.0935 27.779 77.4351 27.6525 77.8442C27.6188 77.937 27.6019 78.0593 27.6019 78.1858V80.6066H26.8684V77.6713L26.8726 77.6671Z" fill="#1B1B43"/>
<path d="M34.9539 76.5748C34.937 76.8658 34.9201 77.1905 34.9201 77.6797V80.0161C34.9201 80.9397 34.7389 81.5049 34.3468 81.8549C33.9547 82.2218 33.3898 82.3357 32.8839 82.3357C32.378 82.3357 31.8679 82.2176 31.5433 82.0025L31.7246 81.4458C31.9901 81.6145 32.4075 81.7621 32.905 81.7621C33.6554 81.7621 34.2035 81.3699 34.2035 80.3577V79.9065H34.1866C33.9632 80.2818 33.5289 80.5813 32.905 80.5813C31.9058 80.5813 31.1934 79.7336 31.1934 78.616C31.1934 77.2495 32.0829 76.4778 33.0062 76.4778C33.706 76.4778 34.0854 76.8447 34.2625 77.1778H34.2793L34.3131 76.5705H34.9539V76.5748ZM34.195 78.1647C34.195 78.0382 34.1866 77.9327 34.1529 77.8315C34.018 77.4056 33.6638 77.0598 33.1284 77.0598C32.4286 77.0598 31.9311 77.6502 31.9311 78.5822C31.9311 79.3709 32.3316 80.0288 33.12 80.0288C33.5711 80.0288 33.9758 79.7462 34.136 79.2781C34.1782 79.1516 34.195 79.0124 34.195 78.8859V78.1605V78.1647Z" fill="#1B1B43"/>
<path d="M36.1338 74.6938H36.8673V80.6023H36.1338V74.6938Z" fill="#1B1B43"/>
<path d="M38.5078 78.7214C38.5246 79.7125 39.157 80.1173 39.8863 80.1173C40.4091 80.1173 40.7253 80.0246 40.9993 79.9107L41.1258 80.4337C40.8686 80.5517 40.4259 80.6825 39.7851 80.6825C38.5457 80.6825 37.8037 79.8685 37.8037 78.6539C37.8037 77.4393 38.5204 76.482 39.6924 76.482C41.0077 76.482 41.3576 77.6375 41.3576 78.3798C41.3576 78.5274 41.3408 78.6455 41.3323 78.7214H38.5035H38.5078ZM40.6536 78.1984C40.662 77.7345 40.4639 77.0092 39.6376 77.0092C38.8956 77.0092 38.571 77.6924 38.5162 78.1984H40.6536Z" fill="#1B1B43"/>
<path d="M44.0511 75.0607C44.401 75.0017 44.8563 74.9511 45.4381 74.9511C46.1548 74.9511 46.6775 75.1155 47.0106 75.415C47.3184 75.6807 47.4996 76.0898 47.4996 76.5874C47.4996 77.0851 47.3521 77.4941 47.0654 77.7851C46.6818 78.1942 46.0578 78.4009 45.3538 78.4009C45.1388 78.4009 44.9364 78.3924 44.772 78.3503V80.5981H44.0469V75.0565L44.0511 75.0607ZM44.7762 77.764C44.9364 77.8062 45.1346 77.8231 45.3749 77.8231C46.2475 77.8231 46.7787 77.3971 46.7787 76.6254C46.7787 75.8536 46.256 75.5288 45.455 75.5288C45.1388 75.5288 44.8985 75.5541 44.772 75.5879V77.7683L44.7762 77.764Z" fill="#1B1B43"/>
<path d="M48.6513 78.7214C48.6682 79.7125 49.3005 80.1173 50.0299 80.1173C50.5526 80.1173 50.8688 80.0246 51.1429 79.9107L51.2693 80.4337C51.0122 80.5517 50.5695 80.6825 49.9287 80.6825C48.6892 80.6825 47.9473 79.8685 47.9473 78.6539C47.9473 77.4393 48.664 76.482 49.836 76.482C51.1513 76.482 51.5012 77.6375 51.5012 78.3798C51.5012 78.5274 51.4843 78.6455 51.4759 78.7214H48.6471H48.6513ZM50.7972 78.1984C50.8056 77.7345 50.6074 77.0092 49.7811 77.0092C49.0392 77.0092 48.7145 77.6924 48.6597 78.1984H50.7972Z" fill="#1B1B43"/>
<path d="M52.4117 77.8315C52.4117 77.3592 52.4032 76.9501 52.3779 76.5748H53.0187L53.044 77.3634H53.0778C53.259 76.8236 53.7017 76.482 54.1907 76.482C54.275 76.482 54.3299 76.4904 54.3973 76.5073V77.1989C54.3214 77.1821 54.2455 77.1736 54.1486 77.1736C53.6342 77.1736 53.2675 77.5658 53.1663 78.1141C53.1494 78.2153 53.1326 78.3292 53.1326 78.4557V80.6023H52.4074V77.8315H52.4117Z" fill="#1B1B43"/>
<path d="M55.0292 79.8517C55.2443 79.995 55.6279 80.1427 55.9947 80.1427C56.5259 80.1427 56.7746 79.877 56.7746 79.5438C56.7746 79.1937 56.568 79.004 56.0242 78.8015C55.2991 78.5443 54.9576 78.1436 54.9576 77.6628C54.9576 77.0134 55.4803 76.482 56.3446 76.482C56.7535 76.482 57.1119 76.6001 57.3353 76.7308L57.154 77.2622C56.9938 77.161 56.7029 77.0302 56.3319 77.0302C55.8977 77.0302 55.6574 77.2791 55.6574 77.5785C55.6574 77.9117 55.8977 78.0593 56.4205 78.2617C57.1203 78.5274 57.4786 78.8774 57.4786 79.4763C57.4786 80.1848 56.9306 80.6825 55.9736 80.6825C55.5309 80.6825 55.1262 80.5728 54.8438 80.4083L55.025 79.8517H55.0292Z" fill="#1B1B43"/>
<path d="M62.0662 78.5569C62.0662 80.0457 61.0333 80.6951 60.0637 80.6951C58.976 80.6951 58.1328 79.898 58.1328 78.6244C58.1328 77.2748 59.0139 76.4862 60.1311 76.4862C61.2483 76.4862 62.0704 77.3254 62.0704 78.5569H62.0662ZM58.8706 78.5991C58.8706 79.4805 59.3765 80.1469 60.0932 80.1469C60.8099 80.1469 61.3158 79.489 61.3158 78.5822C61.3158 77.899 60.9743 77.0344 60.11 77.0344C59.2458 77.0344 58.8706 77.8315 58.8706 78.5991Z" fill="#1B1B43"/>
<path d="M62.9888 77.6671C62.9888 77.2495 62.9804 76.9079 62.9551 76.579H63.6043L63.6465 77.2453H63.6633C63.8615 76.8615 64.3294 76.4862 64.9955 76.4862C65.552 76.4862 66.4163 76.8194 66.4163 78.1984V80.6023H65.6827V78.2828C65.6827 77.6333 65.4424 77.0935 64.751 77.0935C64.2704 77.0935 63.8952 77.4351 63.7687 77.8442C63.735 77.937 63.7181 78.0593 63.7181 78.1858V80.6066H62.9846V77.6713L62.9888 77.6671Z" fill="#1B1B43"/>
<path d="M0.40918 195.741C1.05842 195.631 1.97325 195.547 3.25907 195.547C4.5449 195.547 5.48503 195.796 6.10897 196.293C6.7034 196.766 7.1039 197.537 7.1039 198.452C7.1039 199.368 6.80036 200.139 6.24809 200.667C5.52718 201.346 4.4648 201.649 3.21692 201.649C2.93867 201.649 2.68994 201.637 2.49601 201.607V204.943H0.40918V195.741ZM2.49601 199.975C2.67729 200.017 2.89651 200.03 3.20005 200.03C4.32146 200.03 5.01285 199.465 5.01285 198.507C5.01285 197.651 4.41842 197.137 3.36868 197.137C2.93867 197.137 2.64778 197.179 2.49601 197.221V199.975Z" fill="#1B1B43"/>
<path d="M8.44043 195.618H10.5568V203.172H14.2625V204.943H8.44043V195.618Z" fill="#1B1B43"/>
<path d="M17.7617 202.548L17.0998 204.943H14.916L17.7659 195.618H20.5315L23.4235 204.943H21.1554L20.4345 202.548H17.7659H17.7617ZM20.1268 200.97L19.545 198.992C19.3806 198.44 19.2119 197.748 19.0728 197.196H19.0433C18.9042 197.748 18.7651 198.457 18.6133 198.992L18.061 200.97H20.1226H20.1268Z" fill="#1B1B43"/>
<path d="M31.1632 204.677C30.7754 204.871 29.9027 205.078 28.7686 205.078C25.5478 205.078 23.8867 203.071 23.8867 200.414C23.8867 197.229 26.1548 195.458 28.9752 195.458C30.0671 195.458 30.8976 195.682 31.2728 195.871L30.8428 197.546C30.4128 197.364 29.8184 197.2 29.0722 197.2C27.3985 197.2 26.1 198.208 26.1 200.287C26.1 202.155 27.2046 203.332 29.089 203.332C29.7256 203.332 30.4297 203.193 30.847 203.028L31.1632 204.673V204.677Z" fill="#1B1B43"/>
<path d="M38.09 201H34.6583V203.214H38.4905V204.943H32.542V195.618H38.2966V197.348H34.6583V199.283H38.09V201Z" fill="#1B1B43"/>
<path d="M39.9997 202.771C40.5688 203.062 41.4373 203.353 42.3352 203.353C43.3049 203.353 43.815 202.952 43.815 202.345C43.815 201.738 43.3723 201.43 42.2509 201.029C40.7037 200.489 39.6919 199.633 39.6919 198.275C39.6919 196.685 41.0199 195.467 43.2205 195.467C44.2703 195.467 45.046 195.69 45.5983 195.939L45.1261 197.643C44.7509 197.461 44.089 197.2 43.1742 197.2C42.2593 197.2 41.8209 197.613 41.8209 198.098C41.8209 198.693 42.3479 198.954 43.5494 199.414C45.1935 200.021 45.9693 200.882 45.9693 202.193C45.9693 203.758 44.7677 205.086 42.2087 205.086C41.1421 205.086 40.0924 204.808 39.5654 204.517L39.9954 202.775L39.9997 202.771Z" fill="#1B1B43"/>
<path d="M3.03165 214.892H0.852074V216.912H3.28039V217.519H0.126953V211.91H3.15391V212.517H0.852074V214.289H3.03165V214.888V214.892Z" fill="#1B1B43"/>
<path d="M4.41824 213.496L5.2066 215.761C5.34151 216.127 5.4469 216.461 5.53122 216.794H5.55651C5.64926 216.461 5.76309 216.127 5.89799 215.761L6.67792 213.496H7.44098L5.86005 217.523H5.16022L3.62988 213.496H4.40981H4.41824Z" fill="#1B1B43"/>
<path d="M8.46185 215.642C8.47872 216.634 9.11109 217.038 9.84043 217.038C10.3632 217.038 10.6794 216.946 10.9534 216.832L11.0799 217.355C10.8227 217.473 10.3801 217.604 9.73925 217.604C8.4998 217.604 7.75781 216.79 7.75781 215.575C7.75781 214.36 8.4745 213.403 9.6465 213.403C10.9618 213.403 11.3117 214.559 11.3117 215.301C11.3117 215.448 11.2949 215.567 11.2865 215.642H8.45764H8.46185ZM10.6077 215.12C10.6161 214.656 10.418 213.93 9.59169 213.93C8.84971 213.93 8.52509 214.613 8.47029 215.12H10.6077Z" fill="#1B1B43"/>
<path d="M12.2183 214.748C12.2183 214.276 12.2099 213.867 12.1846 213.492H12.8254L12.8507 214.284H12.8844C13.0657 213.745 13.5083 213.403 13.9974 213.403C14.0817 213.403 14.1365 213.411 14.2039 213.428V214.12C14.1281 214.103 14.0522 214.095 13.9552 214.095C13.4409 214.095 13.0741 214.487 12.9729 215.035C12.9561 215.136 12.9392 215.25 12.9392 215.377V217.523H12.2141V214.753L12.2183 214.748Z" fill="#1B1B43"/>
<path d="M15.4133 213.496L16.2944 215.874C16.3872 216.14 16.4841 216.456 16.5516 216.697H16.5684C16.6443 216.456 16.7286 216.149 16.8256 215.858L17.6224 213.496H18.3939L17.2978 216.368C16.775 217.747 16.4167 218.455 15.915 218.89C15.5566 219.206 15.1983 219.333 15.017 219.362L14.8357 218.746C15.017 218.687 15.2615 218.569 15.4765 218.388C15.6747 218.228 15.9276 217.945 16.0921 217.574C16.1258 217.498 16.1511 217.439 16.1511 217.401C16.1511 217.363 16.1342 217.3 16.1005 217.211L14.6123 213.5H15.4091L15.4133 213.496Z" fill="#1B1B43"/>
<path d="M20.7503 216.638C21.0749 216.836 21.547 217.005 22.0487 217.005C22.7907 217.005 23.2207 216.612 23.2207 216.047C23.2207 215.524 22.9214 215.225 22.1626 214.934C21.2477 214.609 20.6828 214.137 20.6828 213.344C20.6828 212.471 21.4079 211.822 22.4956 211.822C23.069 211.822 23.4863 211.957 23.7351 212.096L23.5369 212.686C23.3556 212.585 22.9804 212.42 22.4703 212.42C21.7072 212.42 21.4121 212.876 21.4121 213.26C21.4121 213.783 21.7536 214.04 22.5251 214.339C23.4737 214.706 23.9543 215.162 23.9543 215.988C23.9543 216.853 23.3135 217.604 21.9897 217.604C21.4501 217.604 20.8599 217.443 20.5605 217.245L20.7418 216.638H20.7503Z" fill="#1B1B43"/>
<path d="M27.72 216.899H27.7031C27.4881 217.3 27.037 217.616 26.3878 217.616C25.4476 217.616 24.6846 216.802 24.6846 215.579C24.6846 214.074 25.6584 213.407 26.5058 213.407C27.1297 213.407 27.5471 213.715 27.7453 214.107H27.7621L27.7874 213.5H28.4788C28.4619 213.842 28.4535 214.192 28.4535 214.605V219.172H27.72V216.899ZM27.72 215.128C27.72 215.027 27.7115 214.913 27.6862 214.82C27.5766 214.369 27.1888 213.989 26.6365 213.989C25.8776 213.989 25.4223 214.63 25.4223 215.537C25.4223 216.334 25.806 217.034 26.6112 217.034C27.0834 217.034 27.4923 216.743 27.6609 216.237C27.6947 216.136 27.72 215.997 27.72 215.887V215.128Z" fill="#1B1B43"/>
<path d="M33.0275 216.423C33.0275 216.84 33.036 217.203 33.0613 217.519H32.412L32.3699 216.861H32.353C32.1633 217.186 31.7375 217.612 31.0208 217.612C30.3884 217.612 29.6338 217.262 29.6338 215.849V213.496H30.3673V215.727C30.3673 216.494 30.5992 217.009 31.2653 217.009C31.7543 217.009 32.0958 216.667 32.2307 216.343C32.2729 216.233 32.2982 216.102 32.2982 215.967V213.496H33.0317V216.427L33.0275 216.423Z" fill="#1B1B43"/>
<path d="M36.4673 217.519L36.4082 217.013H36.3829C36.1595 217.329 35.7253 217.612 35.1519 217.612C34.3383 217.612 33.9209 217.038 33.9209 216.456C33.9209 215.482 34.7851 214.951 36.3408 214.959V214.875C36.3408 214.542 36.248 213.943 35.4259 213.943C35.0507 213.943 34.6587 214.061 34.3762 214.242L34.2076 213.762C34.5406 213.546 35.0212 213.403 35.5313 213.403C36.7624 213.403 37.0617 214.242 37.0617 215.052V216.558C37.0617 216.908 37.0785 217.249 37.1291 217.523H36.463L36.4673 217.519ZM36.3576 215.465C35.5609 215.448 34.6545 215.592 34.6545 216.372C34.6545 216.844 34.9706 217.072 35.3458 217.072C35.8686 217.072 36.2017 216.739 36.3197 216.397C36.345 216.321 36.3619 216.237 36.3619 216.165V215.465H36.3576Z" fill="#1B1B43"/>
<path d="M38.2466 214.748C38.2466 214.276 38.2382 213.867 38.2129 213.492H38.8537L38.879 214.284H38.9127C39.094 213.745 39.5367 213.403 40.0257 213.403C40.11 213.403 40.169 213.411 40.2323 213.428V214.12C40.1564 214.103 40.0805 214.095 39.9835 214.095C39.4692 214.095 39.1024 214.487 39.0012 215.035C38.9844 215.136 38.9675 215.25 38.9675 215.377V217.523H38.2424V214.753L38.2466 214.748Z" fill="#1B1B43"/>
<path d="M41.29 215.642C41.3068 216.634 41.9392 217.038 42.6686 217.038C43.1913 217.038 43.5075 216.946 43.7815 216.832L43.908 217.355C43.6508 217.473 43.2082 217.604 42.5674 217.604C41.3279 217.604 40.5859 216.79 40.5859 215.575C40.5859 214.36 41.3026 213.403 42.4746 213.403C43.79 213.403 44.1399 214.559 44.1399 215.301C44.1399 215.448 44.123 215.567 44.1146 215.642H41.2858H41.29ZM43.4358 215.12C43.4443 214.656 43.2461 213.93 42.4198 213.93C41.6778 213.93 41.3532 214.613 41.2984 215.12H43.4358Z" fill="#1B1B43"/>
<path d="M47.563 211.914V217.523H46.8379V211.914H47.563Z" fill="#1B1B43"/>
<path d="M48.8833 214.584C48.8833 214.166 48.8749 213.829 48.8496 213.496H49.4988L49.541 214.162H49.5579C49.756 213.778 50.224 213.403 50.8901 213.403C51.4466 213.403 52.3108 213.736 52.3108 215.115V217.519H51.5772V215.2C51.5772 214.55 51.3369 214.01 50.6455 214.01C50.1649 214.01 49.7897 214.352 49.6633 214.761C49.6295 214.854 49.6127 214.976 49.6127 215.103V217.523H48.8791V214.588L48.8833 214.584Z" fill="#1B1B43"/>
<path d="M56.3705 217.372C56.1808 217.473 55.755 217.604 55.2154 217.604C54.0012 217.604 53.2129 216.781 53.2129 215.55C53.2129 214.318 54.0603 213.411 55.3756 213.411C55.8098 213.411 56.1893 213.521 56.3916 213.618L56.223 214.183C56.0501 214.082 55.7761 213.993 55.3756 213.993C54.4523 213.993 53.9549 214.677 53.9549 215.516C53.9549 216.448 54.5535 217.022 55.3503 217.022C55.7677 217.022 56.0417 216.912 56.2483 216.823L56.3748 217.372H56.3705Z" fill="#1B1B43"/>
<path d="M57.2259 211.615H57.9594V214.128H57.9763C58.0944 213.922 58.2756 213.736 58.4991 213.614C58.7141 213.487 58.9713 213.407 59.2495 213.407C59.7891 213.407 60.6534 213.74 60.6534 215.128V217.523H59.9198V215.208C59.9198 214.559 59.6795 214.01 58.9881 214.01C58.5159 214.01 58.1407 214.344 58.0058 214.744C57.9637 214.845 57.9552 214.951 57.9552 215.094V217.523H57.2217V211.615H57.2259Z" fill="#1B1B43"/>
<path d="M144.679 74.7908C144.261 75.0017 143.423 75.2083 142.352 75.2083C139.869 75.2083 138.001 73.6395 138.001 70.7506C138.001 67.8617 139.869 66.1199 142.6 66.1199C143.697 66.1199 144.392 66.3561 144.691 66.5121L144.417 67.4399C143.987 67.2291 143.372 67.073 142.638 67.073C140.573 67.073 139.198 68.3931 139.198 70.7084C139.198 72.8677 140.442 74.251 142.584 74.251C143.275 74.251 143.983 74.1076 144.439 73.8841L144.675 74.7866L144.679 74.7908Z" fill="#1B1B43"/>
<path d="M151.197 73.3527C151.197 74.0064 151.209 74.5799 151.247 75.0776H150.227L150.16 74.0443H150.134C149.835 74.5546 149.169 75.221 148.043 75.221C147.048 75.221 145.859 74.6727 145.859 72.4502V68.7515H147.01V72.2562C147.01 73.4581 147.377 74.2679 148.423 74.2679C149.194 74.2679 149.729 73.7322 149.94 73.2219C150.004 73.0532 150.046 72.8424 150.046 72.6315V68.7473H151.197V73.3485V73.3527Z" fill="#1B1B43"/>
<path d="M152.951 73.9009C153.292 74.1245 153.891 74.3564 154.468 74.3564C155.303 74.3564 155.695 73.9389 155.695 73.4159C155.695 72.8677 155.366 72.564 154.519 72.252C153.381 71.8471 152.845 71.2187 152.845 70.4596C152.845 69.439 153.667 68.6039 155.029 68.6039C155.67 68.6039 156.231 68.7853 156.585 68.9961L156.298 69.8312C156.049 69.6751 155.594 69.4643 155.004 69.4643C154.325 69.4643 153.946 69.8565 153.946 70.3288C153.946 70.8518 154.325 71.088 155.147 71.4C156.243 71.8176 156.808 72.3658 156.808 73.3105C156.808 74.4239 155.944 75.2083 154.443 75.2083C153.752 75.2083 153.111 75.0396 152.664 74.7782L152.951 73.9009Z" fill="#1B1B43"/>
<path d="M159.667 66.9339V68.7515H161.315V69.6287H159.667V73.0406C159.667 73.825 159.89 74.2679 160.531 74.2679C160.83 74.2679 161.054 74.2299 161.197 74.1877L161.247 75.0523C161.024 75.1451 160.67 75.2083 160.227 75.2083C159.692 75.2083 159.262 75.0396 158.984 74.7233C158.655 74.3817 158.541 73.8208 158.541 73.0743V69.6203H157.559V68.7431H158.541V67.2248L159.667 66.9254V66.9339Z" fill="#1B1B43"/>
<path d="M168.254 71.8639C168.254 74.2046 166.635 75.2252 165.104 75.2252C163.393 75.2252 162.073 73.9684 162.073 71.9694C162.073 69.8523 163.46 68.6081 165.21 68.6081C166.959 68.6081 168.254 69.9282 168.254 71.8639ZM163.233 71.9314C163.233 73.3189 164.029 74.3649 165.155 74.3649C166.281 74.3649 167.077 73.3316 167.077 71.9061C167.077 70.8349 166.542 69.4727 165.18 69.4727C163.819 69.4727 163.233 70.7295 163.233 71.9314Z" fill="#1B1B43"/>
<path d="M169.704 70.4638C169.704 69.8101 169.691 69.2745 169.653 68.7515H170.661L170.711 69.7721H170.749C171.104 69.1691 171.69 68.6081 172.735 68.6081C173.599 68.6081 174.253 69.1311 174.527 69.8776H174.552C174.746 69.5233 174.995 69.2492 175.256 69.0552C175.636 68.7684 176.053 68.6124 176.656 68.6124C177.491 68.6124 178.734 69.1606 178.734 71.3579V75.086H177.609V71.5013C177.609 70.2867 177.166 69.5528 176.234 69.5528C175.581 69.5528 175.071 70.0378 174.877 70.5987C174.826 70.7548 174.784 70.9656 174.784 71.1723V75.0818H173.658V71.2904C173.658 70.2824 173.216 69.5528 172.339 69.5528C171.618 69.5528 171.095 70.1264 170.914 70.7042C170.846 70.8729 170.821 71.0711 170.821 71.2651V75.0818H169.695V70.468L169.704 70.4638Z" fill="#1B1B43"/>
<path d="M181.243 72.1254C181.268 73.6816 182.263 74.3227 183.414 74.3227C184.236 74.3227 184.733 74.1793 185.168 73.9937L185.361 74.8161C184.957 74.9975 184.265 75.2083 183.258 75.2083C181.31 75.2083 180.146 73.9262 180.146 72.0158C180.146 70.1053 181.272 68.6039 183.114 68.6039C185.18 68.6039 185.728 70.4216 185.728 71.5856C185.728 71.8218 185.703 72.0031 185.69 72.1212H181.247L181.243 72.1254ZM184.615 71.303C184.628 70.5692 184.316 69.4347 183.022 69.4347C181.858 69.4347 181.348 70.506 181.255 71.303H184.615Z" fill="#1B1B43"/>
<path d="M187.149 70.7253C187.149 69.9788 187.137 69.3377 187.099 68.7515H188.106L188.144 69.9957H188.195C188.481 69.1437 189.177 68.6081 189.949 68.6081C190.079 68.6081 190.172 68.6208 190.273 68.6461V69.73C190.155 69.7047 190.037 69.692 189.881 69.692C189.072 69.692 188.494 70.3077 188.338 71.1681C188.313 71.3241 188.287 71.5097 188.287 71.7037V75.0776H187.149V70.7253Z" fill="#1B1B43"/>
<path d="M191.268 73.9009C191.609 74.1245 192.208 74.3564 192.786 74.3564C193.62 74.3564 194.017 73.9389 194.017 73.4159C194.017 72.8677 193.688 72.564 192.84 72.252C191.702 71.8471 191.167 71.2187 191.167 70.4596C191.167 69.439 191.989 68.6039 193.35 68.6039C193.991 68.6039 194.552 68.7853 194.906 68.9961L194.619 69.8312C194.371 69.6751 193.915 69.4643 193.325 69.4643C192.646 69.4643 192.267 69.8565 192.267 70.3288C192.267 70.8518 192.646 71.088 193.468 71.4C194.565 71.8176 195.129 72.3658 195.129 73.3105C195.129 74.4239 194.265 75.2083 192.764 75.2083C192.073 75.2083 191.432 75.0396 190.985 74.7782L191.272 73.9009H191.268Z" fill="#1B1B43"/>
<path d="M138.364 119.259C138.874 119.571 139.62 119.832 140.404 119.832C141.568 119.832 142.247 119.217 142.247 118.327C142.247 117.504 141.774 117.032 140.586 116.577C139.148 116.066 138.258 115.32 138.258 114.08C138.258 112.705 139.397 111.689 141.108 111.689C142.011 111.689 142.664 111.899 143.056 112.119L142.744 113.047C142.457 112.891 141.867 112.629 141.07 112.629C139.869 112.629 139.409 113.35 139.409 113.949C139.409 114.771 139.945 115.176 141.163 115.649C142.651 116.222 143.41 116.943 143.41 118.238C143.41 119.596 142.403 120.777 140.324 120.777C139.473 120.777 138.545 120.528 138.077 120.216L138.364 119.263V119.259Z" fill="#1B1B43"/>
<path d="M150.219 118.917C150.219 119.571 150.232 120.144 150.27 120.642H149.249L149.182 119.609H149.157C148.857 120.119 148.191 120.785 147.066 120.785C146.071 120.785 144.882 120.237 144.882 118.015V114.316H146.033V117.821C146.033 119.023 146.4 119.832 147.445 119.832C148.217 119.832 148.752 119.297 148.963 118.786C149.03 118.618 149.068 118.407 149.068 118.196V114.312H150.219V118.913V118.917Z" fill="#1B1B43"/>
<path d="M152.124 116.382C152.124 115.573 152.099 114.919 152.073 114.316H153.106L153.157 115.4H153.182C153.654 114.628 154.396 114.173 155.429 114.173C156.959 114.173 158.11 115.467 158.11 117.39C158.11 119.668 156.723 120.79 155.235 120.79C154.4 120.79 153.667 120.423 153.287 119.794H153.262V123.232H152.124V116.378V116.382ZM153.262 118.069C153.262 118.238 153.287 118.398 153.313 118.542C153.523 119.339 154.215 119.887 155.037 119.887C156.251 119.887 156.959 118.892 156.959 117.441C156.959 116.172 156.293 115.088 155.079 115.088C154.295 115.088 153.561 115.649 153.342 116.513C153.304 116.657 153.262 116.825 153.262 116.986V118.069Z" fill="#1B1B43"/>
<path d="M159.561 116.382C159.561 115.573 159.536 114.919 159.511 114.316H160.544L160.594 115.4H160.62C161.092 114.628 161.834 114.173 162.867 114.173C164.397 114.173 165.548 115.467 165.548 117.39C165.548 119.668 164.161 120.79 162.673 120.79C161.838 120.79 161.104 120.423 160.725 119.794H160.7V123.232H159.561V116.378V116.382ZM160.7 118.069C160.7 118.238 160.725 118.398 160.75 118.542C160.961 119.339 161.652 119.887 162.474 119.887C163.689 119.887 164.397 118.892 164.397 117.441C164.397 116.172 163.731 115.088 162.517 115.088C161.732 115.088 160.999 115.649 160.78 116.513C160.742 116.657 160.7 116.825 160.7 116.986V118.069Z" fill="#1B1B43"/>
<path d="M166.998 111.36H168.149V120.642H166.998V111.36Z" fill="#1B1B43"/>
<path d="M171.361 112.536C171.374 112.928 171.087 113.241 170.628 113.241C170.223 113.241 169.937 112.928 169.937 112.536C169.937 112.144 170.236 111.815 170.657 111.815C171.079 111.815 171.361 112.127 171.361 112.536ZM170.08 120.642V114.312H171.231V120.642H170.08Z" fill="#1B1B43"/>
<path d="M173.781 117.69C173.806 119.246 174.801 119.887 175.952 119.887C176.774 119.887 177.271 119.744 177.706 119.562L177.9 120.385C177.495 120.566 176.803 120.777 175.796 120.777C173.848 120.777 172.685 119.495 172.685 117.584C172.685 115.674 173.81 114.173 175.653 114.173C177.718 114.173 178.266 115.99 178.266 117.154C178.266 117.39 178.241 117.572 178.228 117.69H173.785H173.781ZM177.153 116.867C177.166 116.134 176.854 114.999 175.56 114.999C174.396 114.999 173.886 116.07 173.793 116.867H177.153Z" fill="#1B1B43"/>
<path d="M179.687 116.29C179.687 115.543 179.675 114.902 179.637 114.316H180.644L180.682 115.56H180.733C181.02 114.708 181.715 114.173 182.482 114.173C182.613 114.173 182.706 114.185 182.811 114.211V115.294C182.693 115.269 182.575 115.256 182.419 115.256C181.61 115.256 181.032 115.872 180.876 116.733C180.851 116.889 180.826 117.074 180.826 117.268V120.642H179.687V116.285V116.29Z" fill="#1B1B43"/>
<path d="M183.806 119.465C184.148 119.689 184.746 119.925 185.324 119.925C186.159 119.925 186.551 119.508 186.551 118.985C186.551 118.436 186.222 118.133 185.374 117.821C184.236 117.416 183.701 116.787 183.701 116.028C183.701 115.008 184.523 114.173 185.885 114.173C186.525 114.173 187.086 114.354 187.44 114.565L187.154 115.4C186.905 115.244 186.45 115.033 185.859 115.033C185.181 115.033 184.801 115.425 184.801 115.897C184.801 116.42 185.181 116.657 186.003 116.969C187.099 117.386 187.664 117.934 187.664 118.879C187.664 119.993 186.799 120.777 185.299 120.777C184.607 120.777 183.966 120.608 183.52 120.347L183.806 119.47V119.465Z" fill="#1B1B43"/>
<path d="M143.081 163.056H139.658V166.236H143.473V167.189H138.52V158.375H143.279V159.328H139.658V162.111H143.081V163.052V163.056Z" fill="#1B1B43"/>
<path d="M144.911 162.575C144.911 161.922 144.898 161.386 144.86 160.863H145.881L145.948 161.909H145.973C146.285 161.306 147.019 160.72 148.064 160.72C148.941 160.72 150.299 161.243 150.299 163.415V167.193H149.148V163.545C149.148 162.525 148.768 161.677 147.685 161.677C146.926 161.677 146.34 162.213 146.142 162.854C146.091 162.997 146.062 163.195 146.062 163.389V167.193H144.911V162.575Z" fill="#1B1B43"/>
<path d="M152.44 160.863L153.683 164.418C153.894 164.996 154.063 165.519 154.193 166.042H154.231C154.375 165.519 154.56 164.996 154.767 164.418L155.998 160.863H157.199L154.716 167.193H153.62L151.213 160.863H152.444H152.44Z" fill="#1B1B43"/>
<path d="M159.561 159.083C159.573 159.476 159.287 159.788 158.827 159.788C158.422 159.788 158.136 159.476 158.136 159.083C158.136 158.691 158.435 158.362 158.857 158.362C159.278 158.362 159.561 158.674 159.561 159.083ZM158.279 167.189V160.859H159.43V167.189H158.279Z" fill="#1B1B43"/>
<path d="M161.34 162.837C161.34 162.09 161.327 161.449 161.289 160.863H162.297L162.335 162.107H162.385C162.672 161.255 163.367 160.72 164.135 160.72C164.265 160.72 164.358 160.732 164.464 160.758V161.842C164.346 161.816 164.227 161.804 164.072 161.804C163.262 161.804 162.684 162.419 162.529 163.28C162.503 163.436 162.478 163.621 162.478 163.815V167.189H161.34V162.833V162.837Z" fill="#1B1B43"/>
<path d="M171.205 163.975C171.205 166.316 169.586 167.337 168.056 167.337C166.344 167.337 165.024 166.08 165.024 164.081C165.024 161.964 166.411 160.72 168.161 160.72C169.911 160.72 171.205 162.04 171.205 163.975ZM166.184 164.043C166.184 165.43 166.981 166.476 168.106 166.476C169.232 166.476 170.029 165.443 170.029 164.018C170.029 162.946 169.493 161.584 168.131 161.584C166.77 161.584 166.184 162.841 166.184 164.043Z" fill="#1B1B43"/>
<path d="M172.655 162.575C172.655 161.922 172.642 161.386 172.604 160.863H173.625L173.692 161.909H173.717C174.029 161.306 174.763 160.72 175.809 160.72C176.685 160.72 178.043 161.243 178.043 163.415V167.193H176.892V163.545C176.892 162.525 176.513 161.677 175.429 161.677C174.67 161.677 174.084 162.213 173.886 162.854C173.836 162.997 173.806 163.195 173.806 163.389V167.193H172.655V162.575Z" fill="#1B1B43"/>
<path d="M179.91 162.575C179.91 161.922 179.897 161.386 179.859 160.863H180.867L180.918 161.884H180.955C181.31 161.281 181.896 160.72 182.941 160.72C183.805 160.72 184.459 161.243 184.733 161.989H184.758C184.956 161.635 185.201 161.361 185.462 161.167C185.842 160.88 186.259 160.724 186.862 160.724C187.697 160.724 188.94 161.272 188.94 163.469V167.198H187.815V163.613C187.815 162.398 187.372 161.664 186.44 161.664C185.787 161.664 185.277 162.149 185.083 162.71C185.032 162.866 184.99 163.077 184.99 163.284V167.193H183.864V163.402C183.864 162.394 183.422 161.664 182.545 161.664C181.824 161.664 181.301 162.238 181.12 162.816C181.052 162.984 181.027 163.183 181.027 163.377V167.193H179.902V162.575H179.91Z" fill="#1B1B43"/>
<path d="M191.45 164.237C191.475 165.793 192.47 166.434 193.621 166.434C194.443 166.434 194.94 166.291 195.37 166.105L195.568 166.928C195.164 167.109 194.472 167.32 193.465 167.32C191.517 167.32 190.354 166.038 190.354 164.127C190.354 162.217 191.479 160.715 193.321 160.715C195.387 160.715 195.935 162.533 195.935 163.697C195.935 163.933 195.91 164.115 195.897 164.233H191.454L191.45 164.237ZM194.822 163.415C194.835 162.681 194.523 161.546 193.229 161.546C192.065 161.546 191.555 162.618 191.462 163.415H194.822Z" fill="#1B1B43"/>
<path d="M197.355 162.575C197.355 161.922 197.343 161.386 197.305 160.863H198.325L198.392 161.909H198.418C198.73 161.306 199.463 160.72 200.509 160.72C201.386 160.72 202.743 161.243 202.743 163.415V167.193H201.592V163.545C201.592 162.525 201.213 161.677 200.129 161.677C199.37 161.677 198.784 162.213 198.586 162.854C198.536 162.997 198.506 163.195 198.506 163.389V167.193H197.355V162.575Z" fill="#1B1B43"/>
<path d="M205.943 159.045V160.863H207.591V161.74H205.943V165.152C205.943 165.937 206.166 166.384 206.807 166.384C207.106 166.384 207.33 166.346 207.473 166.303L207.524 167.168C207.3 167.261 206.95 167.324 206.504 167.324C205.968 167.324 205.538 167.155 205.26 166.839C204.931 166.497 204.817 165.937 204.817 165.19V161.736H203.835V160.859H204.817V159.341L205.943 159.041V159.045Z" fill="#1B1B43"/>
<path d="M144.679 212.42C144.261 212.631 143.423 212.838 142.352 212.838C139.869 212.838 138.001 211.269 138.001 208.38C138.001 205.491 139.869 203.749 142.6 203.749C143.697 203.749 144.392 203.986 144.691 204.142L144.417 205.07C143.987 204.859 143.372 204.703 142.638 204.703C140.573 204.703 139.198 206.023 139.198 208.338C139.198 210.497 140.442 211.881 142.584 211.881C143.275 211.881 143.983 211.737 144.439 211.514L144.675 212.416L144.679 212.42Z" fill="#1B1B43"/>
<path d="M151.643 209.494C151.643 211.834 150.024 212.855 148.494 212.855C146.782 212.855 145.463 211.598 145.463 209.599C145.463 207.482 146.85 206.238 148.599 206.238C150.349 206.238 151.643 207.558 151.643 209.494ZM146.622 209.561C146.622 210.949 147.419 211.994 148.545 211.994C149.67 211.994 150.467 210.961 150.467 209.536C150.467 208.465 149.932 207.102 148.57 207.102C147.208 207.102 146.622 208.359 146.622 209.561Z" fill="#1B1B43"/>
<path d="M153.094 208.093C153.094 207.44 153.081 206.904 153.043 206.381H154.051L154.101 207.402H154.139C154.493 206.799 155.079 206.238 156.125 206.238C156.989 206.238 157.642 206.761 157.916 207.507H157.942C158.136 207.153 158.384 206.879 158.646 206.685C159.025 206.398 159.443 206.242 160.045 206.242C160.88 206.242 162.124 206.79 162.124 208.987V212.716H160.998V209.131C160.998 207.916 160.556 207.182 159.628 207.182C158.975 207.182 158.465 207.667 158.271 208.228C158.22 208.384 158.178 208.595 158.178 208.802V212.711H157.052V208.92C157.052 207.912 156.61 207.182 155.733 207.182C155.012 207.182 154.489 207.756 154.308 208.334C154.244 208.502 154.215 208.701 154.215 208.895V212.711H153.089V208.098L153.094 208.093Z" fill="#1B1B43"/>
<path d="M163.992 208.093C163.992 207.44 163.979 206.904 163.941 206.381H164.949L165 207.402H165.038C165.392 206.799 165.978 206.238 167.023 206.238C167.887 206.238 168.541 206.761 168.815 207.507H168.84C169.034 207.153 169.283 206.879 169.544 206.685C169.924 206.398 170.341 206.242 170.944 206.242C171.779 206.242 173.022 206.79 173.022 208.987V212.716H171.897V209.131C171.897 207.916 171.454 207.182 170.522 207.182C169.869 207.182 169.359 207.667 169.165 208.228C169.114 208.384 169.072 208.595 169.072 208.802V212.711H167.946V208.92C167.946 207.912 167.504 207.182 166.627 207.182C165.906 207.182 165.383 207.756 165.202 208.334C165.134 208.502 165.109 208.701 165.109 208.895V212.711H163.984V208.098L163.992 208.093Z" fill="#1B1B43"/>
<path d="M180.185 210.982C180.185 211.636 180.198 212.21 180.235 212.707H179.215L179.148 211.674H179.122C178.823 212.184 178.157 212.851 177.031 212.851C176.037 212.851 174.848 212.302 174.848 210.08V206.381H175.999V209.886C175.999 211.088 176.365 211.902 177.411 211.902C178.182 211.902 178.718 211.366 178.929 210.856C178.992 210.687 179.034 210.476 179.034 210.265V206.381H180.185V210.982Z" fill="#1B1B43"/>
<path d="M182.095 208.093C182.095 207.44 182.082 206.904 182.044 206.381H183.064L183.132 207.427H183.157C183.469 206.824 184.202 206.238 185.248 206.238C186.125 206.238 187.482 206.761 187.482 208.933V212.711H186.331V209.063C186.331 208.043 185.952 207.195 184.869 207.195C184.11 207.195 183.524 207.731 183.326 208.372C183.275 208.515 183.245 208.713 183.245 208.907V212.711H182.095V208.098V208.093Z" fill="#1B1B43"/>
<path d="M190.627 204.601C190.64 204.994 190.353 205.306 189.894 205.306C189.489 205.306 189.202 204.994 189.202 204.601C189.202 204.209 189.501 203.88 189.923 203.88C190.345 203.88 190.627 204.192 190.627 204.601ZM189.345 212.707V206.377H190.496V212.707H189.345Z" fill="#1B1B43"/>
<path d="M193.789 204.563V206.381H195.437V207.258H193.789V210.67C193.789 211.455 194.012 211.897 194.653 211.897C194.952 211.897 195.176 211.859 195.319 211.817L195.37 212.682C195.146 212.775 194.796 212.838 194.349 212.838C193.814 212.838 193.384 212.669 193.106 212.353C192.777 212.011 192.663 211.45 192.663 210.704V207.25H191.681V206.373H192.663V204.854L193.789 204.555V204.563Z" fill="#1B1B43"/>
<path d="M198.009 204.601C198.022 204.994 197.735 205.306 197.275 205.306C196.871 205.306 196.584 204.994 196.584 204.601C196.584 204.209 196.883 203.88 197.305 203.88C197.726 203.88 198.009 204.192 198.009 204.601ZM196.727 212.707V206.377H197.878V212.707H196.727Z" fill="#1B1B43"/>
<path d="M200.429 209.755C200.454 211.311 201.449 211.952 202.6 211.952C203.422 211.952 203.92 211.809 204.354 211.623L204.548 212.446C204.143 212.627 203.452 212.838 202.444 212.838C200.497 212.838 199.333 211.556 199.333 209.645C199.333 207.735 200.459 206.234 202.301 206.234C204.367 206.234 204.915 208.051 204.915 209.215C204.915 209.451 204.889 209.633 204.877 209.751H200.433L200.429 209.755ZM203.802 208.933C203.814 208.199 203.502 207.064 202.208 207.064C201.045 207.064 200.535 208.136 200.442 208.933H203.802Z" fill="#1B1B43"/>
<path d="M206.179 211.531C206.521 211.754 207.119 211.986 207.697 211.986C208.532 211.986 208.924 211.569 208.924 211.046C208.924 210.497 208.595 210.194 207.748 209.882C206.609 209.477 206.074 208.848 206.074 208.089C206.074 207.069 206.896 206.234 208.258 206.234C208.898 206.234 209.459 206.415 209.813 206.626L209.527 207.461C209.278 207.305 208.823 207.094 208.232 207.094C207.554 207.094 207.174 207.486 207.174 207.958C207.174 208.481 207.554 208.718 208.376 209.03C209.472 209.447 210.037 209.995 210.037 210.94C210.037 212.054 209.172 212.838 207.672 212.838C206.98 212.838 206.339 212.669 205.893 212.408L206.179 211.531Z" fill="#1B1B43"/>
<path d="M138.364 257.732C138.874 258.044 139.62 258.305 140.404 258.305C141.568 258.305 142.247 257.69 142.247 256.8C142.247 255.977 141.774 255.505 140.586 255.05C139.148 254.539 138.258 253.793 138.258 252.553C138.258 251.182 139.397 250.162 141.108 250.162C142.011 250.162 142.664 250.373 143.056 250.592L142.744 251.52C142.457 251.364 141.867 251.102 141.07 251.102C139.869 251.102 139.409 251.823 139.409 252.422C139.409 253.245 139.945 253.654 141.163 254.122C142.651 254.7 143.41 255.416 143.41 256.711C143.41 258.069 142.403 259.246 140.324 259.246C139.473 259.246 138.545 258.997 138.077 258.685L138.364 257.732Z" fill="#1B1B43"/>
<path d="M150.729 255.897C150.729 258.238 149.11 259.258 147.58 259.258C145.868 259.258 144.549 258.002 144.549 256.003C144.549 253.886 145.936 252.641 147.685 252.641C149.435 252.641 150.729 253.961 150.729 255.897ZM145.708 255.965C145.708 257.352 146.505 258.398 147.631 258.398C148.756 258.398 149.553 257.365 149.553 255.939C149.553 254.868 149.018 253.506 147.656 253.506C146.294 253.506 145.708 254.763 145.708 255.965Z" fill="#1B1B43"/>
<path d="M156.686 258.883C156.387 259.039 155.721 259.25 154.869 259.25C152.959 259.25 151.72 257.955 151.72 256.02C151.72 254.084 153.052 252.658 155.118 252.658C155.796 252.658 156.399 252.827 156.711 252.987L156.45 253.877C156.176 253.721 155.746 253.578 155.118 253.578C153.667 253.578 152.883 254.649 152.883 255.969C152.883 257.432 153.823 258.335 155.08 258.335C155.733 258.335 156.163 258.166 156.492 258.023L156.69 258.887L156.686 258.883Z" fill="#1B1B43"/>
<path d="M159.313 251.009C159.325 251.402 159.039 251.714 158.579 251.714C158.174 251.714 157.888 251.402 157.888 251.009C157.888 250.617 158.187 250.288 158.609 250.288C159.03 250.288 159.313 250.6 159.313 251.009ZM158.031 259.115V252.785H159.182V259.115H158.031Z" fill="#1B1B43"/>
<path d="M161.732 256.163C161.757 257.719 162.752 258.36 163.903 258.36C164.725 258.36 165.223 258.217 165.653 258.031L165.847 258.854C165.442 259.035 164.751 259.246 163.743 259.246C161.795 259.246 160.632 257.964 160.632 256.058C160.632 254.151 161.757 252.646 163.6 252.646C165.666 252.646 166.214 254.463 166.214 255.627C166.214 255.864 166.188 256.045 166.176 256.163H161.732ZM165.105 255.341C165.117 254.607 164.805 253.472 163.511 253.472C162.348 253.472 161.838 254.543 161.745 255.341H165.105Z" fill="#1B1B43"/>
<path d="M169.026 250.971V252.789H170.674V253.666H169.026V257.078C169.026 257.863 169.249 258.305 169.89 258.305C170.189 258.305 170.413 258.267 170.556 258.225L170.607 259.09C170.383 259.183 170.033 259.246 169.587 259.246C169.051 259.246 168.621 259.077 168.343 258.761C168.018 258.419 167.9 257.858 167.9 257.112V253.658H166.918V252.781H167.9V251.262L169.026 250.963V250.971Z" fill="#1B1B43"/>
<path d="M172.499 252.789L173.886 256.53C174.03 256.947 174.186 257.445 174.291 257.825H174.316C174.435 257.445 174.565 256.96 174.721 256.505L175.978 252.789H177.192L175.467 257.302C174.645 259.474 174.08 260.583 173.296 261.262C172.736 261.759 172.171 261.953 171.884 262.008L171.597 261.042C171.884 260.95 172.263 260.768 172.605 260.482C172.917 260.233 173.309 259.79 173.57 259.199C173.621 259.081 173.663 258.989 173.663 258.925C173.663 258.862 173.638 258.769 173.583 258.626L171.243 252.793H172.499V252.789Z" fill="#1B1B43"/>
<path d="M73.2627 7.59125V132.004" stroke="#1B1B43" stroke-width="4" stroke-miterlimit="10"/>
<path d="M73.2627 147.777V272.189" stroke="#1B1B43" stroke-width="4" stroke-miterlimit="10"/>
<path d="M115.496 77.123C115.121 77.123 114.75 77.0134 114.434 76.8067L108.212 72.7496C108.001 72.6147 107.942 72.3321 108.081 72.1212C108.216 71.9103 108.498 71.8513 108.709 71.9905L114.932 76.0476C115.176 76.2079 115.463 76.2542 115.745 76.1868C116.028 76.1151 116.26 75.9379 116.403 75.6849C116.668 75.2041 116.512 74.601 116.049 74.3058L107.423 68.8738C107.035 68.6292 106.588 68.5027 106.133 68.5027H102.065V69.5781C102.065 70.5903 101.239 71.4169 100.227 71.4169C99.215 71.4169 98.3887 70.5903 98.3887 69.5781V66.4784C98.3887 66.0018 98.6669 65.5632 99.0969 65.3608L102.638 63.6949C102.697 63.6654 102.765 63.6527 102.832 63.6527H112.507C112.756 63.6527 112.959 63.8552 112.959 64.104C112.959 64.3528 112.756 64.5553 112.507 64.5553H102.933L99.4806 66.1789C99.3667 66.2338 99.2909 66.3476 99.2909 66.4742V69.5739C99.2909 70.0884 99.7082 70.506 100.223 70.506C100.737 70.506 101.154 70.0884 101.154 69.5739V68.0472C101.154 67.7984 101.357 67.596 101.605 67.596H106.129C106.757 67.596 107.373 67.7731 107.904 68.1063L116.529 73.5383C117.402 74.0865 117.693 75.221 117.195 76.1235C116.934 76.5958 116.487 76.9375 115.964 77.0682C115.813 77.1061 115.652 77.123 115.496 77.123Z" fill="#1B1B43"/>
<path d="M111.897 78.5358C111.496 78.5358 111.108 78.4177 110.767 78.19L106.374 75.2378C106.167 75.0987 106.113 74.8161 106.252 74.6095C106.391 74.4028 106.673 74.348 106.88 74.4872L111.273 77.4393C111.526 77.608 111.829 77.6671 112.129 77.608C112.428 77.5448 112.685 77.3718 112.849 77.1146C113.183 76.5958 113.035 75.9 112.516 75.5626L108.524 72.9605C108.313 72.8255 108.254 72.543 108.393 72.3321C108.528 72.1212 108.811 72.0622 109.022 72.2013L113.014 74.8035C113.946 75.4108 114.215 76.6675 113.613 77.6038C113.313 78.0677 112.854 78.384 112.314 78.4979C112.175 78.5274 112.036 78.5401 111.897 78.5401V78.5358Z" fill="#1B1B43"/>
<path d="M108.882 80.2776C108.507 80.2776 108.131 80.1722 107.794 79.9571L104.776 78.0129C104.565 77.8779 104.506 77.5954 104.641 77.3845C104.776 77.1736 105.058 77.1146 105.269 77.2495L108.287 79.1938C108.772 79.5058 109.426 79.3877 109.775 78.9281C109.961 78.6834 110.033 78.3798 109.982 78.0762C109.931 77.7725 109.763 77.511 109.506 77.3423L107.537 76.0181C107.33 75.8789 107.276 75.5963 107.415 75.3897C107.554 75.183 107.836 75.1282 108.043 75.2674L110.012 76.5916C110.475 76.9037 110.783 77.3761 110.876 77.9285C110.969 78.481 110.838 79.0293 110.501 79.4763C110.109 79.9993 109.501 80.2776 108.886 80.2776H108.882Z" fill="#1B1B43"/>
<path d="M105.193 81.4922C104.843 81.4922 104.489 81.3994 104.173 81.2012L103.844 80.9988C103.629 80.868 103.566 80.5897 103.697 80.3746C103.827 80.1595 104.106 80.0963 104.321 80.227L104.649 80.4294C105.117 80.7204 105.737 80.5939 106.058 80.1427C106.226 79.9065 106.289 79.6197 106.235 79.3329C106.18 79.0461 106.015 78.8057 105.771 78.6455L105.033 78.1689C104.822 78.034 104.763 77.7514 104.898 77.5405C105.033 77.3297 105.316 77.2706 105.526 77.4056L106.264 77.8821C106.719 78.1731 107.023 78.6286 107.128 79.16C107.23 79.6914 107.116 80.227 106.8 80.6656C106.42 81.197 105.817 81.488 105.202 81.488L105.193 81.4922Z" fill="#1B1B43"/>
<path d="M102.42 81.9308C102.019 81.9308 101.619 81.8001 101.286 81.5302C100.893 81.2139 100.653 80.7668 100.611 80.2607C100.569 79.7589 100.733 79.2739 101.066 78.8985L101.218 78.7298C101.859 78.0129 102.947 77.9201 103.697 78.519C104.102 78.8437 104.346 79.3118 104.384 79.8095C104.422 80.3071 104.249 80.8048 103.912 81.1759L103.76 81.3446C103.406 81.7326 102.913 81.9308 102.42 81.9308ZM102.571 79.0335C102.323 79.0335 102.074 79.1347 101.893 79.3371L101.741 79.5058C101.572 79.6956 101.492 79.936 101.513 80.1891C101.534 80.4421 101.652 80.6656 101.85 80.8259C102.226 81.1253 102.769 81.0831 103.09 80.7331L103.242 80.5644C103.415 80.3746 103.499 80.1342 103.478 79.8812C103.461 79.6324 103.343 79.4088 103.149 79.2486C102.968 79.1052 102.765 79.0377 102.567 79.0377L102.571 79.0335Z" fill="#1B1B43"/>
<path d="M99.8812 80.6698C99.4723 80.6698 99.0633 80.5349 98.7261 80.2565C98.3382 79.9402 98.1063 79.4932 98.0642 78.9955C98.0262 78.4979 98.1822 78.0171 98.5153 77.6418L100.421 75.4825C101.074 74.7444 102.183 74.6559 102.942 75.28L102.676 75.6512L102.963 75.3011C103.351 75.6216 103.587 76.0729 103.621 76.5748C103.659 77.0766 103.494 77.5574 103.157 77.9328L101.226 80.071C100.868 80.4674 100.37 80.6741 99.8728 80.6741L99.8812 80.6698ZM101.787 75.7693C101.534 75.7693 101.281 75.8747 101.1 76.0813L99.194 78.2406C99.0296 78.4304 98.9495 78.6708 98.9664 78.9196C98.9874 79.1685 99.1055 79.3962 99.2994 79.5522C99.6788 79.8643 100.231 79.8221 100.56 79.4595L102.491 77.3212C102.659 77.1315 102.744 76.8911 102.723 76.638C102.706 76.385 102.588 76.1615 102.394 76.0012C102.2 75.841 101.993 75.7693 101.787 75.7693Z" fill="#1B1B43"/>
<path d="M97.9973 78.6497C97.5968 78.6497 97.1921 78.519 96.8548 78.2575C96.4585 77.9496 96.214 77.5026 96.155 77.0049C96.1002 76.5073 96.2435 76.0181 96.5555 75.6301L97.2047 74.833C97.8413 74.0486 99.0091 73.9136 99.8059 74.5293C100.215 74.8457 100.476 75.3222 100.527 75.8367C100.577 76.3513 100.409 76.8658 100.067 77.2538L99.3885 78.0255C99.026 78.4388 98.5116 78.6497 97.9973 78.6497ZM98.6676 75.0439C98.3852 75.0439 98.1027 75.1662 97.913 75.3981L97.2638 76.1952C97.1036 76.3934 97.0277 76.6422 97.0572 76.8995C97.0867 77.1526 97.2132 77.3803 97.4155 77.5406C97.8076 77.8484 98.3767 77.7978 98.7098 77.4225L99.3885 76.6507C99.5656 76.4483 99.6499 76.1868 99.6246 75.9211C99.5993 75.6512 99.4686 75.4108 99.2536 75.2463C99.0808 75.1113 98.87 75.0481 98.6634 75.0481L98.6676 75.0439Z" fill="#1B1B43"/>
<path d="M96.0957 76.6085C95.7374 76.6085 95.3706 76.4946 95.0586 76.2627C94.6666 75.9717 94.4178 75.5373 94.363 75.065C94.3082 74.5926 94.4516 74.1118 94.7593 73.7491L95.0502 73.4033C95.6488 72.6948 96.6902 72.5809 97.4279 73.1418C97.8031 73.4286 98.0392 73.8419 98.0982 74.31C98.1573 74.7782 98.0266 75.2379 97.7315 75.6048L97.449 75.959C97.1075 76.3892 96.6058 76.6127 96.0957 76.6127V76.6085ZM96.3782 73.6901C96.1421 73.6901 95.9102 73.7913 95.7458 73.9853L95.4549 74.3311C95.3074 74.5083 95.2399 74.7318 95.2652 74.9595C95.2905 75.1873 95.4085 75.3897 95.594 75.5289C95.965 75.803 96.4625 75.7397 96.745 75.3897L97.0274 75.0354C97.1665 74.8583 97.2298 74.639 97.2003 74.4155C97.1708 74.192 97.0611 73.9937 96.8799 73.8588C96.7281 73.7449 96.5552 73.6901 96.3782 73.6901Z" fill="#1B1B43"/>
<path d="M95.3999 74.1456C95.2818 74.1456 95.1638 74.0992 95.0752 74.0064L92.5162 71.3494C92.3645 71.1934 92.3476 70.953 92.4741 70.7717L97.0778 64.26C97.1621 64.1377 97.3012 64.0703 97.4488 64.0703H101.926C102.175 64.0703 102.377 64.2727 102.377 64.5215C102.377 64.7704 102.175 64.9728 101.926 64.9728H97.6806L93.4311 70.9868L95.7287 73.3738C95.9015 73.5551 95.8973 73.8419 95.7161 74.0148C95.6275 74.0992 95.5137 74.1413 95.3999 74.1413V74.1456Z" fill="#1B1B43"/>
<path d="M118.604 72.7538C118.098 72.7538 117.605 72.5092 117.297 72.058C116.142 70.3499 113.642 66.5754 112.251 64.4794C111.795 63.7877 111.951 62.8514 112.609 62.3496L116.702 59.2287C116.901 59.0769 117.187 59.1149 117.339 59.3131C117.491 59.5113 117.453 59.7981 117.255 59.9499L113.165 63.0708C112.883 63.2858 112.815 63.6823 113.014 63.9775C114.401 66.0735 116.901 69.8481 118.052 71.5519C118.254 71.8555 118.659 71.9399 118.966 71.7459L122.297 69.6498C122.508 69.5149 122.79 69.5824 122.921 69.7932C123.056 70.0041 122.988 70.2867 122.777 70.4174L119.447 72.5134C119.186 72.6779 118.89 72.758 118.604 72.758V72.7538Z" fill="#1B1B43"/>
<path d="M91.9345 71.9567C91.6689 71.9567 91.3991 71.8893 91.1546 71.7501L88.0349 69.9872C87.8156 69.8649 87.7398 69.5866 87.862 69.3715C87.9843 69.1522 88.2625 69.0763 88.4775 69.1986L91.5972 70.9614C91.9008 71.1344 92.2802 71.0458 92.4826 70.7632L97.1621 64.0787C97.3645 63.7919 97.3139 63.3997 97.0441 63.1762L92.5542 59.4776C92.3603 59.3173 92.335 59.0347 92.491 58.8407C92.6512 58.6467 92.9336 58.6214 93.1276 58.7775L97.6174 62.4803C98.254 63.0117 98.372 63.9227 97.8999 64.6017L93.2203 71.2862C92.9126 71.7248 92.4277 71.961 91.9303 71.961L91.9345 71.9567Z" fill="#1B1B43"/>
<path d="M115.219 73.7027C115.105 73.7027 114.991 73.6606 114.903 73.572C114.725 73.3949 114.721 73.1081 114.898 72.9309L116.93 70.8602C117.107 70.6831 117.394 70.6789 117.571 70.856C117.748 71.0331 117.752 71.3199 117.575 71.497L115.543 73.5678C115.455 73.6563 115.337 73.7027 115.219 73.7027Z" fill="#1B1B43"/>
<path d="M90.4252 69.5613C90.3366 69.5613 90.2481 69.536 90.168 69.4812C89.9614 69.3378 89.9108 69.0594 90.0499 68.8528L92.4656 65.327C92.6089 65.1204 92.8872 65.0698 93.0938 65.209C93.3003 65.3523 93.3509 65.6307 93.2118 65.8373L90.7961 69.3631C90.7076 69.4896 90.5685 69.5613 90.4209 69.5613H90.4252Z" fill="#1B1B43"/>
<path d="M119.539 70.0589C119.388 70.0589 119.24 69.983 119.156 69.8438L116.871 66.1832C116.74 65.9723 116.803 65.6897 117.014 65.559C117.225 65.4283 117.507 65.4915 117.638 65.7024L119.923 69.3631C120.054 69.5739 119.99 69.8565 119.78 69.9872C119.704 70.0336 119.624 70.0547 119.539 70.0547V70.0589Z" fill="#1B1B43"/>
<path d="M97.1372 38.9769H94.0343C93.7687 38.9769 93.5537 38.7618 93.5537 38.4961V23.5456C93.5537 23.2799 93.7687 23.0648 94.0343 23.0648C94.2999 23.0648 94.5149 23.2799 94.5149 23.5456V38.0111H96.6523V26.0169C96.6523 25.7513 96.8673 25.5362 97.1329 25.5362C97.3985 25.5362 97.6135 25.7513 97.6135 26.0169V38.4919C97.6135 38.7576 97.3985 38.9727 97.1329 38.9727L97.1372 38.9769Z" fill="#1B1B43"/>
<path d="M92.7361 27.8937C91.7538 27.8937 90.957 27.0966 90.957 26.1139V18.9655C90.957 17.1056 92.4705 15.5916 94.3297 15.5916H94.9831C95.2487 15.5916 95.4637 15.8067 95.4637 16.0724C95.4637 16.3381 95.2487 16.5532 94.9831 16.5532H94.3297C93.0017 16.5532 91.9225 17.6328 91.9225 18.9613V26.1097C91.9225 26.561 92.2892 26.9279 92.7403 26.9279C93.1914 26.9279 93.5582 26.561 93.5582 26.1097V21.0742C93.5582 20.8085 93.7732 20.5934 94.0388 20.5934C94.3044 20.5934 94.5194 20.8085 94.5194 21.0742V26.1097C94.5194 27.0924 93.7226 27.8895 92.7403 27.8895L92.7361 27.8937Z" fill="#1B1B43"/>
<path d="M99.2619 16.5574H98.8488C98.5832 16.5574 98.3682 16.3423 98.3682 16.0766C98.3682 15.8109 98.5832 15.5958 98.8488 15.5958H99.2619C99.5275 15.5958 99.7425 15.8109 99.7425 16.0766C99.7425 16.3423 99.5275 16.5574 99.2619 16.5574Z" fill="#1B1B43"/>
<path d="M100.241 38.9769H97.1378C96.8722 38.9769 96.6572 38.7618 96.6572 38.4961V26.0212C96.6572 25.7555 96.8722 25.5404 97.1378 25.5404C97.4034 25.5404 97.6184 25.7555 97.6184 26.0212V38.0154H99.7559V30.5084C99.7559 30.2428 99.9709 30.0277 100.236 30.0277C100.502 30.0277 100.717 30.2428 100.717 30.5084V38.5004C100.717 38.7661 100.502 38.9811 100.236 38.9811L100.241 38.9769Z" fill="#1B1B43"/>
<path d="M97.1379 14.9084C95.46 14.9084 94.0898 13.542 94.0898 11.8592C94.0898 10.1765 95.4558 8.81009 97.1379 8.81009C98.82 8.81009 100.182 10.1765 100.182 11.8592C100.182 13.542 98.8158 14.9084 97.1379 14.9084ZM97.1379 9.78008C95.9912 9.78008 95.0553 10.7163 95.0553 11.8635C95.0553 13.0106 95.9912 13.9468 97.1379 13.9468C98.2846 13.9468 99.2205 13.0106 99.2205 11.8635C99.2205 10.7163 98.2846 9.78008 97.1379 9.78008Z" fill="#1B1B43"/>
<path d="M105.401 41.0266H102.298C102.032 41.0266 101.817 40.8115 101.817 40.5458V24.2794C101.817 24.0137 102.032 23.7986 102.298 23.7986C102.564 23.7986 102.779 24.0137 102.779 24.2794V40.0608H104.916V26.7508C104.916 26.4851 105.131 26.27 105.397 26.27C105.662 26.27 105.877 26.4851 105.877 26.7508V40.5458C105.877 40.8115 105.662 41.0266 105.397 41.0266H105.401Z" fill="#1B1B43"/>
<path d="M100.999 28.6233C100.017 28.6233 99.2197 27.8262 99.2197 26.8436V19.6951C99.2197 17.8353 100.733 16.3212 102.592 16.3212H103.246C103.511 16.3212 103.726 16.5363 103.726 16.802C103.726 17.0677 103.511 17.2828 103.246 17.2828H102.592C101.264 17.2828 100.185 18.3624 100.185 19.6909V26.8393C100.185 27.2906 100.552 27.6575 101.003 27.6575C101.454 27.6575 101.821 27.2906 101.821 26.8393V21.8038C101.821 21.5381 102.036 21.323 102.301 21.323C102.567 21.323 102.782 21.5381 102.782 21.8038V26.8393C102.782 27.822 101.985 28.6191 101.003 28.6191L100.999 28.6233Z" fill="#1B1B43"/>
<path d="M109.798 28.6233C108.815 28.6233 108.019 27.8262 108.019 26.8436V21.808C108.019 21.5423 108.234 21.3272 108.499 21.3272C108.765 21.3272 108.98 21.5423 108.98 21.808V26.8436C108.98 27.2948 109.347 27.6617 109.798 27.6617C110.249 27.6617 110.616 27.2948 110.616 26.8436V19.6951C110.616 18.3666 109.536 17.287 108.208 17.287H107.555C107.289 17.287 107.074 17.0719 107.074 16.8062C107.074 16.5405 107.289 16.3254 107.555 16.3254H108.208C110.067 16.3254 111.581 17.8395 111.581 19.6993V26.8478C111.581 27.8304 110.784 28.6275 109.802 28.6275L109.798 28.6233Z" fill="#1B1B43"/>
<path d="M108.503 41.0266H105.401C105.135 41.0266 104.92 40.8115 104.92 40.5458V26.7508C104.92 26.4851 105.135 26.27 105.401 26.27C105.666 26.27 105.881 26.4851 105.881 26.7508V40.0608H108.019V24.2794C108.019 24.0137 108.234 23.7986 108.499 23.7986C108.765 23.7986 108.98 24.0137 108.98 24.2794V40.5416C108.98 40.8073 108.765 41.0223 108.499 41.0223L108.503 41.0266Z" fill="#1B1B43"/>
<path d="M105.4 15.638C103.722 15.638 102.356 14.2716 102.356 12.5889C102.356 10.9061 103.722 9.5397 105.4 9.5397C107.078 9.5397 108.448 10.9061 108.448 12.5889C108.448 14.2716 107.082 15.638 105.4 15.638ZM105.4 10.5097C104.254 10.5097 103.318 11.446 103.318 12.5931C103.318 13.7402 104.254 14.6765 105.4 14.6765C106.547 14.6765 107.483 13.7402 107.483 12.5931C107.483 11.446 106.547 10.5097 105.4 10.5097Z" fill="#1B1B43"/>
<path d="M116.762 38.9769H113.659C113.394 38.9769 113.179 38.7618 113.179 38.4961V26.0212C113.179 25.7555 113.394 25.5404 113.659 25.5404C113.925 25.5404 114.14 25.7555 114.14 26.0212V38.0154H116.277V23.5456C116.277 23.2799 116.492 23.0648 116.758 23.0648C117.024 23.0648 117.239 23.2799 117.239 23.5456V38.4919C117.239 38.7576 117.024 38.9727 116.758 38.9727L116.762 38.9769Z" fill="#1B1B43"/>
<path d="M118.06 27.8937C117.078 27.8937 116.281 27.0966 116.281 26.114V21.0784C116.281 20.8127 116.496 20.5976 116.762 20.5976C117.027 20.5976 117.242 20.8127 117.242 21.0784V26.114C117.242 26.5652 117.609 26.9321 118.06 26.9321C118.511 26.9321 118.878 26.5652 118.878 26.114V18.9655C118.878 17.637 117.799 16.5574 116.471 16.5574H115.818C115.552 16.5574 115.337 16.3423 115.337 16.0766C115.337 15.8109 115.552 15.5958 115.818 15.5958H116.471C118.33 15.5958 119.844 17.1099 119.844 18.9697V26.1182C119.844 27.1008 119.047 27.8979 118.065 27.8979L118.06 27.8937Z" fill="#1B1B43"/>
<path d="M111.948 16.5574H111.408C111.143 16.5574 110.928 16.3423 110.928 16.0766C110.928 15.8109 111.143 15.5958 111.408 15.5958H111.948C112.214 15.5958 112.429 15.8109 112.429 16.0766C112.429 16.3423 112.214 16.5574 111.948 16.5574Z" fill="#1B1B43"/>
<path d="M113.66 38.9769H110.557C110.291 38.9769 110.076 38.7618 110.076 38.4961V30.5042C110.076 30.2385 110.291 30.0234 110.557 30.0234C110.822 30.0234 111.037 30.2385 111.037 30.5042V38.0111H113.175V26.0169C113.175 25.7512 113.39 25.5362 113.655 25.5362C113.921 25.5362 114.136 25.7512 114.136 26.0169V38.4919C114.136 38.7576 113.921 38.9727 113.655 38.9727L113.66 38.9769Z" fill="#1B1B43"/>
<path d="M113.659 14.9084C111.981 14.9084 110.611 13.542 110.611 11.8592C110.611 10.1765 111.977 8.81009 113.659 8.81009C115.341 8.81009 116.707 10.1765 116.707 11.8592C116.707 13.542 115.341 14.9084 113.659 14.9084ZM113.659 9.78008C112.513 9.78008 111.577 10.7163 111.577 11.8635C111.577 13.0106 112.513 13.9468 113.659 13.9468C114.806 13.9468 115.742 13.0106 115.742 11.8635C115.742 10.7163 114.806 9.78008 113.659 9.78008Z" fill="#1B1B43"/>
<path d="M119.359 41.0266H91.4376C91.172 41.0266 90.957 40.8115 90.957 40.5458C90.957 40.2801 91.172 40.065 91.4376 40.065H119.359C119.625 40.065 119.84 40.2801 119.84 40.5458C119.84 40.8115 119.625 41.0266 119.359 41.0266Z" fill="#1B1B43"/>
<path d="M121.063 38.9769H110.557C110.291 38.9769 110.076 38.7618 110.076 38.4961C110.076 38.2305 110.291 38.0154 110.557 38.0154H121.063C121.328 38.0154 121.543 38.2305 121.543 38.4961C121.543 38.7618 121.328 38.9769 121.063 38.9769Z" fill="#1B1B43"/>
<path d="M100.24 38.9769H89.7345C89.4689 38.9769 89.2539 38.7618 89.2539 38.4961C89.2539 38.2305 89.4689 38.0154 89.7345 38.0154H100.24C100.506 38.0154 100.721 38.2305 100.721 38.4961C100.721 38.7618 100.506 38.9769 100.24 38.9769Z" fill="#1B1B43"/>
<path d="M91.4087 112.19C91.1388 112.19 90.9238 111.971 90.9238 111.705V109.352C90.9238 109.082 91.1431 108.867 91.4087 108.867C91.6742 108.867 91.8935 109.086 91.8935 109.352V111.705C91.8935 111.975 91.6742 112.19 91.4087 112.19Z" fill="#1B1B43"/>
<path d="M89.6079 112.19C89.3381 112.19 89.123 111.971 89.123 111.705V108.361C89.123 107.041 90.1939 105.97 91.5134 105.97C91.6399 105.97 91.7621 106.02 91.8549 106.109L93.4316 107.669L95.0083 106.134C95.1011 106.046 95.2191 105.995 95.3456 105.995C96.6651 105.995 97.736 107.066 97.736 108.386V111.705C97.736 111.975 97.5167 112.19 97.2511 112.19C96.9855 112.19 96.7663 111.971 96.7663 111.705V108.386C96.7663 107.665 96.2267 107.071 95.5311 106.978L93.7689 108.698C93.5792 108.884 93.2756 108.884 93.0901 108.698L91.3279 106.957C90.6323 107.049 90.0969 107.644 90.0969 108.365V111.71C90.0969 111.98 89.8777 112.195 89.6121 112.195L89.6079 112.19Z" fill="#1B1B43"/>
<path d="M95.4555 112.19C95.1857 112.19 94.9707 111.971 94.9707 111.705V109.377C94.9707 109.108 95.1899 108.892 95.4555 108.892C95.7211 108.892 95.9403 109.112 95.9403 109.377V111.705C95.9403 111.975 95.7211 112.19 95.4555 112.19Z" fill="#1B1B43"/>
<path d="M93.4313 105.426C92.1076 105.426 91.0283 104.346 91.0283 103.022C91.0283 101.698 92.1076 100.618 93.4313 100.618C94.7551 100.618 95.8344 101.698 95.8344 103.022C95.8344 104.346 94.7551 105.426 93.4313 105.426ZM93.4313 101.588C92.643 101.588 91.998 102.229 91.998 103.022C91.998 103.815 92.6388 104.456 93.4313 104.456C94.2239 104.456 94.8647 103.815 94.8647 103.022C94.8647 102.229 94.2239 101.588 93.4313 101.588Z" fill="#1B1B43"/>
<path d="M115.345 112.19C115.075 112.19 114.86 111.971 114.86 111.705V109.352C114.86 109.082 115.08 108.867 115.345 108.867C115.611 108.867 115.83 109.086 115.83 109.352V111.705C115.83 111.975 115.611 112.19 115.345 112.19Z" fill="#1B1B43"/>
<path d="M113.545 112.19C113.276 112.19 113.061 111.971 113.061 111.705V108.361C113.061 107.041 114.131 105.97 115.451 105.97C115.577 105.97 115.7 106.02 115.792 106.109L117.369 107.669L118.946 106.134C119.039 106.046 119.157 105.995 119.283 105.995C120.603 105.995 121.673 107.066 121.673 108.386V111.705C121.673 111.975 121.454 112.19 121.189 112.19C120.923 112.19 120.704 111.971 120.704 111.705V108.386C120.704 107.665 120.164 107.071 119.469 106.978L117.706 108.698C117.517 108.884 117.213 108.884 117.028 108.698L115.265 106.957C114.57 107.049 114.034 107.644 114.034 108.365V111.71C114.034 111.98 113.815 112.195 113.55 112.195L113.545 112.19Z" fill="#1B1B43"/>
<path d="M119.388 112.19C119.118 112.19 118.903 111.971 118.903 111.705V109.377C118.903 109.108 119.123 108.892 119.388 108.892C119.654 108.892 119.873 109.112 119.873 109.377V111.705C119.873 111.975 119.654 112.19 119.388 112.19Z" fill="#1B1B43"/>
<path d="M117.365 105.426C116.041 105.426 114.962 104.346 114.962 103.022C114.962 101.698 116.041 100.618 117.365 100.618C118.689 100.618 119.768 101.698 119.768 103.022C119.768 104.346 118.689 105.426 117.365 105.426ZM117.365 101.588C116.577 101.588 115.932 102.229 115.932 103.022C115.932 103.815 116.572 104.456 117.365 104.456C118.157 104.456 118.798 103.815 118.798 103.022C118.798 102.229 118.157 101.588 117.365 101.588Z" fill="#1B1B43"/>
<path d="M91.4087 130.291C91.1388 130.291 90.9238 130.072 90.9238 129.806V127.453C90.9238 127.183 91.1431 126.968 91.4087 126.968C91.6742 126.968 91.8935 127.187 91.8935 127.453V129.806C91.8935 130.076 91.6742 130.291 91.4087 130.291Z" fill="#1B1B43"/>
<path d="M97.2557 130.291C96.9859 130.291 96.7709 130.072 96.7709 129.806V126.487C96.7709 125.766 96.2313 125.167 95.5357 125.079L93.7735 126.799C93.5837 126.985 93.2802 126.985 93.0947 126.799L91.3325 125.058C90.6369 125.15 90.1015 125.745 90.1015 126.466V129.811C90.1015 130.081 89.8823 130.296 89.6167 130.296C89.3511 130.296 89.1318 130.076 89.1318 129.811V126.466C89.1318 125.146 90.2027 124.075 91.5222 124.075C91.6487 124.075 91.7709 124.126 91.8637 124.214L93.4404 125.775L95.0171 124.239C95.1099 124.151 95.2279 124.1 95.3544 124.1C96.6739 124.1 97.7448 125.171 97.7448 126.492V129.811C97.7448 130.081 97.5255 130.296 97.2599 130.296L97.2557 130.291Z" fill="#1B1B43"/>
<path d="M95.4555 130.291C95.1857 130.291 94.9707 130.072 94.9707 129.806V127.478C94.9707 127.208 95.1899 126.993 95.4555 126.993C95.7211 126.993 95.9403 127.213 95.9403 127.478V129.806C95.9403 130.076 95.7211 130.291 95.4555 130.291Z" fill="#1B1B43"/>
<path d="M93.4313 123.531C92.1076 123.531 91.0283 122.451 91.0283 121.127C91.0283 119.803 92.1076 118.723 93.4313 118.723C94.7551 118.723 95.8344 119.803 95.8344 121.127C95.8344 122.451 94.7551 123.531 93.4313 123.531ZM93.4313 119.693C92.643 119.693 91.998 120.334 91.998 121.127C91.998 121.92 92.6388 122.561 93.4313 122.561C94.2239 122.561 94.8647 121.92 94.8647 121.127C94.8647 120.334 94.2239 119.693 93.4313 119.693Z" fill="#1B1B43"/>
<path d="M115.345 130.291C115.075 130.291 114.86 130.072 114.86 129.806V127.453C114.86 127.183 115.08 126.968 115.345 126.968C115.611 126.968 115.83 127.187 115.83 127.453V129.806C115.83 130.076 115.611 130.291 115.345 130.291Z" fill="#1B1B43"/>
<path d="M121.188 130.291C120.919 130.291 120.704 130.072 120.704 129.806V126.487C120.704 125.766 120.164 125.167 119.468 125.079L117.706 126.799C117.516 126.985 117.213 126.985 117.027 126.799L115.265 125.058C114.569 125.15 114.034 125.745 114.034 126.466V129.811C114.034 130.081 113.815 130.296 113.549 130.296C113.284 130.296 113.064 130.076 113.064 129.811V126.466C113.064 125.146 114.135 124.075 115.455 124.075C115.581 124.075 115.704 124.126 115.796 124.214L117.373 125.775L118.95 124.239C119.042 124.151 119.161 124.1 119.287 124.1C120.607 124.1 121.677 125.171 121.677 126.492V129.811C121.677 130.081 121.458 130.296 121.193 130.296L121.188 130.291Z" fill="#1B1B43"/>
<path d="M119.388 130.291C119.118 130.291 118.903 130.072 118.903 129.806V127.478C118.903 127.208 119.123 126.993 119.388 126.993C119.654 126.993 119.873 127.213 119.873 127.478V129.806C119.873 130.076 119.654 130.291 119.388 130.291Z" fill="#1B1B43"/>
<path d="M117.365 123.531C116.041 123.531 114.962 122.451 114.962 121.127C114.962 119.803 116.041 118.723 117.365 118.723C118.689 118.723 119.768 119.803 119.768 121.127C119.768 122.451 118.689 123.531 117.365 123.531ZM117.365 119.693C116.577 119.693 115.932 120.334 115.932 121.127C115.932 121.92 116.572 122.561 117.365 122.561C118.157 122.561 118.798 121.92 118.798 121.127C118.798 120.334 118.157 119.693 117.365 119.693Z" fill="#1B1B43"/>
<path d="M112.12 103.511H98.6801C98.4103 103.511 98.1953 103.292 98.1953 103.026C98.1953 102.76 98.4145 102.541 98.6801 102.541H112.12C112.39 102.541 112.605 102.76 112.605 103.026C112.605 103.292 112.386 103.511 112.12 103.511Z" fill="#1B1B43"/>
<path d="M111.231 130.291H99.5698C99.3 130.291 99.085 130.072 99.085 129.806C99.085 129.541 99.3042 129.321 99.5698 129.321H111.231C111.501 129.321 111.716 129.541 111.716 129.806C111.716 130.072 111.496 130.291 111.231 130.291Z" fill="#1B1B43"/>
<path d="M88.7563 122.797C88.4865 122.797 88.2715 122.578 88.2715 122.312V114.472C88.2715 114.202 88.4907 113.987 88.7563 113.987C89.0219 113.987 89.2411 114.206 89.2411 114.472V122.312C89.2411 122.582 89.0219 122.797 88.7563 122.797Z" fill="#1B1B43"/>
<path d="M122.044 122.797C121.775 122.797 121.56 122.578 121.56 122.312V114.472C121.56 114.202 121.779 113.987 122.044 113.987C122.31 113.987 122.529 114.206 122.529 114.472V122.312C122.529 122.582 122.31 122.797 122.044 122.797Z" fill="#1B1B43"/>
<path d="M90.0464 116.948C89.8862 116.948 89.7303 116.872 89.6375 116.728L88.7522 115.37L87.8669 116.728C87.7193 116.952 87.42 117.015 87.1966 116.872C86.9731 116.724 86.9099 116.425 87.0532 116.201L88.3433 114.215C88.5245 113.941 88.9798 113.941 89.1569 114.215L90.447 116.201C90.5945 116.425 90.5313 116.728 90.3036 116.872C90.2235 116.927 90.1308 116.952 90.038 116.952L90.0464 116.948Z" fill="#1B1B43"/>
<path d="M122.044 122.886C121.88 122.886 121.728 122.801 121.635 122.666L120.345 120.68C120.198 120.456 120.261 120.153 120.489 120.009C120.712 119.862 121.016 119.929 121.159 120.153L122.044 121.511L122.93 120.153C123.077 119.929 123.376 119.866 123.6 120.009C123.823 120.157 123.886 120.456 123.743 120.68L122.453 122.666C122.365 122.806 122.209 122.886 122.044 122.886Z" fill="#1B1B43"/>
<path d="M100.666 104.802C100.577 104.802 100.485 104.776 100.4 104.721L98.4145 103.431C98.2754 103.342 98.1953 103.186 98.1953 103.022C98.1953 102.857 98.2796 102.706 98.4145 102.613L100.4 101.322C100.624 101.175 100.927 101.242 101.071 101.466C101.214 101.689 101.155 101.993 100.927 102.136L99.5697 103.018L100.927 103.899C101.151 104.047 101.214 104.346 101.071 104.57C100.978 104.713 100.822 104.789 100.662 104.789L100.666 104.802Z" fill="#1B1B43"/>
<path d="M109.313 131.582C109.153 131.582 108.997 131.506 108.904 131.363C108.756 131.139 108.819 130.835 109.047 130.692L110.405 129.806L109.047 128.925C108.824 128.777 108.76 128.478 108.904 128.254C109.051 128.031 109.351 127.968 109.574 128.111L111.56 129.402C111.699 129.49 111.779 129.646 111.779 129.811C111.779 129.975 111.695 130.127 111.56 130.22L109.574 131.51C109.494 131.565 109.401 131.59 109.309 131.59L109.313 131.582Z" fill="#1B1B43"/>
<path d="M111.96 166.24C111.016 166.24 110.101 165.878 109.228 165.152C109.152 165.093 109.102 165.009 109.072 164.916C109.047 164.836 108.495 162.972 109.768 161.525C111.079 160.036 113.765 159.623 117.753 160.306C117.904 160.332 118.035 160.429 118.107 160.568C118.178 160.707 118.178 160.867 118.107 161.006C118.014 161.188 115.851 165.494 112.757 166.152C112.491 166.211 112.222 166.236 111.96 166.236V166.24ZM109.979 164.498C110.826 165.156 111.669 165.384 112.555 165.194C114.57 164.764 116.227 162.314 116.901 161.167C112.888 160.589 111.21 161.378 110.51 162.166C109.764 163.01 109.903 164.115 109.979 164.498Z" fill="#1B1B43"/>
<path d="M98.8369 166.24C98.5713 166.24 98.3057 166.211 98.0401 166.156C94.9457 165.498 92.7788 161.196 92.6902 161.011C92.6228 160.872 92.6228 160.707 92.6902 160.572C92.7619 160.433 92.8926 160.336 93.0444 160.311C97.0325 159.627 99.718 160.036 101.029 161.529C102.302 162.976 101.75 164.844 101.725 164.92C101.695 165.013 101.64 165.093 101.569 165.156C100.696 165.878 99.7812 166.244 98.8369 166.244V166.24ZM93.896 161.167C94.5747 162.314 96.2315 164.768 98.2425 165.194C99.1278 165.38 99.971 165.152 100.818 164.498C100.894 164.119 101.033 163.01 100.287 162.166C99.5873 161.378 97.9094 160.589 93.896 161.167Z" fill="#1B1B43"/>
<path d="M105.4 167.311C105.324 167.311 105.253 167.295 105.185 167.261L98.0353 163.731C97.7907 163.613 97.6938 163.318 97.8118 163.073C97.9299 162.828 98.225 162.731 98.4695 162.849L105.4 166.27L112.331 162.849C112.576 162.727 112.867 162.828 112.989 163.073C113.107 163.318 113.01 163.609 112.765 163.731L105.615 167.261C105.548 167.295 105.472 167.311 105.4 167.311Z" fill="#1B1B43"/>
<path d="M118.402 181.667H92.3947C92.1924 181.667 92.0153 181.545 91.9394 181.359C91.8635 181.174 91.9141 180.959 92.0575 180.824C92.1629 180.723 92.2767 180.621 92.3905 180.516C99.8061 173.836 110.991 173.836 118.406 180.516C118.52 180.621 118.634 180.723 118.739 180.824C118.887 180.963 118.933 181.174 118.857 181.359C118.782 181.545 118.604 181.667 118.402 181.667ZM93.689 180.685H117.104C110.291 175.08 100.502 175.08 93.689 180.685Z" fill="#1B1B43"/>
<path d="M105.885 142.838C105.793 142.716 105.645 142.64 105.489 142.644C105.333 142.644 105.19 142.72 105.097 142.842C102.698 146.102 101.859 148.688 102.606 150.526C103.133 151.829 104.292 152.361 104.916 152.563L104.899 156.561L104.907 176.025C104.907 176.294 105.127 176.514 105.396 176.514C105.666 176.514 105.885 176.294 105.885 176.025V152.496C106.775 152.049 107.416 151.441 107.795 150.678C107.913 150.442 108.006 150.193 108.078 149.927C108.875 146.866 106.004 142.998 105.881 142.838H105.885ZM107.133 149.683C106.952 150.379 106.543 150.931 105.902 151.361L105.919 148.839C105.919 148.569 105.704 148.346 105.434 148.346C105.165 148.346 104.941 148.561 104.941 148.835L104.924 151.522C104.456 151.319 103.82 150.919 103.512 150.155C103.12 149.177 103.171 147.325 105.485 143.994C106.206 145.115 107.656 147.692 107.133 149.687V149.683Z" fill="#1B1B43"/>
<path d="M105.401 271.805C95.8812 271.805 88.1367 264.058 88.1367 254.535C88.1367 245.013 95.8812 237.265 105.401 237.265C114.92 237.265 122.664 245.013 122.664 254.535C122.664 264.058 114.92 271.805 105.401 271.805ZM105.401 238.201C96.3955 238.201 89.0726 245.531 89.0726 254.535C89.0726 263.539 96.3997 270.869 105.401 270.869C114.401 270.869 121.728 263.539 121.728 254.535C121.728 245.531 114.401 238.201 105.401 238.201Z" fill="#1B1B43"/>
<path d="M105.4 271.805C101.247 271.805 97.7396 265.753 97.0651 257.42C97.044 257.162 97.2337 256.939 97.4909 256.918C97.7523 256.893 97.9715 257.087 97.9926 257.344C98.6165 265.057 101.799 270.873 105.4 270.873C109.544 270.873 112.917 263.543 112.917 254.539C112.917 253.97 112.904 253.392 112.874 252.827C112.862 252.57 113.06 252.35 113.317 252.338C113.57 252.329 113.793 252.523 113.806 252.781C113.836 253.363 113.848 253.953 113.848 254.539C113.848 264.222 110.134 271.809 105.396 271.809L105.4 271.805Z" fill="#1B1B43"/>
<path d="M112.744 248.399C112.524 248.399 112.33 248.247 112.288 248.023C111.095 242.149 108.325 238.197 105.4 238.197C103.22 238.197 101.142 240.301 99.6915 243.971C99.5987 244.211 99.3247 244.329 99.0844 244.232C98.8441 244.139 98.726 243.865 98.823 243.625C100.421 239.58 102.82 237.261 105.4 237.261C108.831 237.261 111.896 241.411 113.203 247.834C113.254 248.087 113.094 248.331 112.841 248.386C112.811 248.395 112.777 248.395 112.748 248.395L112.744 248.399Z" fill="#1B1B43"/>
<path d="M97.5032 252.481C97.5032 252.481 97.4821 252.481 97.4694 252.481C97.2123 252.464 97.0183 252.241 97.0352 251.984C97.1111 250.908 97.2376 249.841 97.4146 248.816C97.4568 248.563 97.6971 248.39 97.9543 248.433C98.2072 248.475 98.3801 248.715 98.3379 248.972C98.1693 249.968 98.047 251.005 97.9711 252.051C97.9543 252.296 97.7477 252.485 97.5074 252.485L97.5032 252.481Z" fill="#1B1B43"/>
<path d="M105.4 248.154C103.794 248.154 102.204 247.935 100.674 247.5C100.425 247.429 100.282 247.172 100.353 246.923C100.425 246.674 100.682 246.53 100.931 246.602C102.377 247.015 103.882 247.222 105.4 247.222C109.632 247.222 113.612 245.624 116.664 242.714C113.612 239.8 109.632 238.205 105.4 238.205C101.167 238.205 97.1874 239.804 94.1351 242.714C94.8223 243.367 95.5685 243.966 96.3526 244.489C96.5676 244.633 96.6267 244.924 96.4833 245.139C96.34 245.354 96.0491 245.413 95.8341 245.269C94.8644 244.624 93.958 243.874 93.136 243.047C92.9547 242.866 92.9547 242.57 93.136 242.389C96.4032 239.091 100.758 237.273 105.396 237.273C110.033 237.273 114.388 239.091 117.655 242.389C117.836 242.57 117.836 242.866 117.655 243.047C114.388 246.345 110.033 248.163 105.396 248.163L105.4 248.154Z" fill="#1B1B43"/>
<path d="M105.399 271.805C100.762 271.805 96.4071 269.987 93.1399 266.689C92.9586 266.508 92.9586 266.213 93.1399 266.032C95.6778 263.472 98.886 261.789 102.415 261.173C102.672 261.131 102.912 261.3 102.954 261.553C102.996 261.806 102.828 262.05 102.575 262.093C99.3877 262.649 96.4788 264.121 94.1348 266.361C97.1871 269.271 101.167 270.869 105.399 270.869C109.632 270.869 113.612 269.271 116.664 266.361C114.455 264.252 111.723 262.814 108.743 262.194C108.49 262.143 108.329 261.894 108.38 261.641C108.431 261.388 108.679 261.228 108.932 261.279C112.246 261.966 115.264 263.611 117.663 266.032C117.845 266.213 117.845 266.508 117.663 266.689C114.396 269.987 110.041 271.805 105.404 271.805H105.399Z" fill="#1B1B43"/>
<path d="M122.195 255.003H100.547C100.29 255.003 100.079 254.792 100.079 254.535C100.079 254.278 100.29 254.067 100.547 254.067H122.195C122.452 254.067 122.663 254.278 122.663 254.535C122.663 254.792 122.452 255.003 122.195 255.003Z" fill="#1B1B43"/>
<path d="M94.3628 255.003H88.5998C88.3426 255.003 88.1318 254.792 88.1318 254.535C88.1318 254.278 88.3426 254.067 88.5998 254.067H94.3628C94.62 254.067 94.8308 254.278 94.8308 254.535C94.8308 254.792 94.62 255.003 94.3628 255.003Z" fill="#1B1B43"/>
<path d="M98.4103 247.825C97.5292 247.825 96.8125 247.108 96.8125 246.227C96.8125 245.345 97.5292 244.628 98.4103 244.628C99.2914 244.628 100.008 245.345 100.008 246.227C100.008 247.108 99.2914 247.825 98.4103 247.825ZM98.4103 245.56C98.0435 245.56 97.7442 245.86 97.7442 246.227C97.7442 246.594 98.0435 246.893 98.4103 246.893C98.7771 246.893 99.0764 246.594 99.0764 246.227C99.0764 245.86 98.7771 245.56 98.4103 245.56Z" fill="#1B1B43"/>
<path d="M113.06 251.996C112.179 251.996 111.462 251.279 111.462 250.398C111.462 249.516 112.179 248.799 113.06 248.799C113.941 248.799 114.658 249.516 114.658 250.398C114.658 251.279 113.941 251.996 113.06 251.996ZM113.06 249.731C112.693 249.731 112.394 250.031 112.394 250.398C112.394 250.765 112.693 251.064 113.06 251.064C113.426 251.064 113.726 250.765 113.726 250.398C113.726 250.031 113.426 249.731 113.06 249.731Z" fill="#1B1B43"/>
<path d="M105.543 262.987C104.662 262.987 103.945 262.27 103.945 261.388C103.945 260.507 104.662 259.79 105.543 259.79C106.424 259.79 107.141 260.507 107.141 261.388C107.141 262.27 106.424 262.987 105.543 262.987ZM105.543 260.722C105.176 260.722 104.877 261.021 104.877 261.388C104.877 261.755 105.176 262.055 105.543 262.055C105.91 262.055 106.209 261.755 106.209 261.388C106.209 261.021 105.91 260.722 105.543 260.722Z" fill="#1B1B43"/>
<path d="M117.326 261.852C116.445 261.852 115.729 261.135 115.729 260.254C115.729 259.372 116.445 258.655 117.326 258.655C118.207 258.655 118.924 259.372 118.924 260.254C118.924 261.135 118.207 261.852 117.326 261.852ZM117.326 259.587C116.96 259.587 116.66 259.887 116.66 260.254C116.66 260.621 116.96 260.92 117.326 260.92C117.693 260.92 117.992 260.621 117.992 260.254C117.992 259.887 117.693 259.587 117.326 259.587Z" fill="#1B1B43"/>
<path d="M97.4152 256.138C96.5341 256.138 95.8174 255.421 95.8174 254.539C95.8174 253.658 96.5341 252.941 97.4152 252.941C98.2963 252.941 99.013 253.658 99.013 254.539C99.013 255.421 98.2963 256.138 97.4152 256.138ZM97.4152 253.873C97.0484 253.873 96.7491 254.172 96.7491 254.539C96.7491 254.906 97.0484 255.206 97.4152 255.206C97.782 255.206 98.0813 254.906 98.0813 254.539C98.0813 254.172 97.782 253.873 97.4152 253.873Z" fill="#1B1B43"/>
<path d="M123.124 220.792H105.738V219.463H105.649V221.087C105.649 221.235 105.54 221.357 105.4 221.378C105.413 221.378 105.43 221.382 105.443 221.382H123.419C123.583 221.382 123.714 221.252 123.714 221.087V207.288L123.124 206.925V220.796V220.792Z" fill="#1B1B43"/>
<path d="M105.648 218.877H105.737V207.343L105.648 207.288V218.877Z" fill="#1B1B43"/>
<path d="M114.43 201.573L107.082 206.094L114.43 201.573Z" fill="#1B1B43"/>
<path d="M123.124 206.925L114.431 201.573L123.124 206.925Z" fill="#1B1B43"/>
<path d="M107.082 205.403L114.274 200.974L107.082 205.403Z" fill="#1B1B43"/>
<path d="M125.007 204.606L121.803 202.632V199.983C121.803 199.819 121.673 199.688 121.508 199.688H118.309C118.144 199.688 118.013 199.819 118.013 199.983V200.295L114.582 198.178C114.489 198.119 114.367 198.119 114.274 198.178L105.396 203.652L105.956 203.998L114.426 198.773L118.153 201.071C118.245 201.126 118.359 201.131 118.452 201.08C118.545 201.029 118.604 200.928 118.604 200.823V200.279H121.213V202.796C121.213 202.898 121.268 202.995 121.352 203.045L124.556 205.019V207.115L114.582 200.974L123.57 206.508C123.658 206.562 123.709 206.655 123.709 206.756V207.284L124.696 207.891C124.788 207.946 124.902 207.95 124.995 207.895C125.088 207.845 125.147 207.743 125.147 207.638V204.85C125.147 204.749 125.092 204.652 125.007 204.601V204.606Z" fill="#1B1B43"/>
<path d="M105.961 206.786L106.496 206.457V205.765L105.4 206.44L105.961 206.786Z" fill="#1B1B43"/>
<path d="M123.57 206.508L114.582 200.974C114.485 200.915 114.367 200.915 114.274 200.974L107.082 205.403V206.094L114.426 201.569L123.119 206.921L123.709 207.284V206.756C123.709 206.655 123.654 206.558 123.57 206.508Z" fill="#1B1B43"/>
<path d="M109.519 219.172C109.519 219.337 109.388 219.468 109.224 219.468H109.961C110.126 219.468 110.257 219.337 110.257 219.172C110.257 219.008 110.126 218.877 109.961 218.877H109.224C109.388 218.877 109.519 219.008 109.519 219.172Z" fill="#1B1B43"/>
<path d="M115.26 218.877H113.937C113.772 218.877 113.642 219.008 113.642 219.172C113.642 219.337 113.772 219.468 113.937 219.468H115.26C115.425 219.468 115.556 219.337 115.556 219.172C115.556 219.008 115.425 218.877 115.26 218.877Z" fill="#1B1B43"/>
<path d="M117.909 218.877H116.585C116.421 218.877 116.29 219.008 116.29 219.172C116.29 219.337 116.421 219.468 116.585 219.468H117.909C118.073 219.468 118.204 219.337 118.204 219.172C118.204 219.008 118.073 218.877 117.909 218.877Z" fill="#1B1B43"/>
<path d="M112.609 218.877H111.285C111.121 218.877 110.99 219.008 110.99 219.172C110.99 219.337 111.121 219.468 111.285 219.468H112.609C112.774 219.468 112.904 219.337 112.904 219.172C112.904 219.008 112.774 218.877 112.609 218.877Z" fill="#1B1B43"/>
<path d="M119.97 218.877H119.233C119.068 218.877 118.938 219.008 118.938 219.172C118.938 219.337 119.068 219.468 119.233 219.468H119.97C120.135 219.468 120.265 219.337 120.265 219.172C120.265 219.008 120.135 218.877 119.97 218.877Z" fill="#1B1B43"/>
<path d="M105.737 218.877H105.648V219.468H105.737V218.877Z" fill="#1B1B43"/>
<path d="M108.929 219.172C108.929 219.337 109.059 219.468 109.224 219.468C109.388 219.468 109.519 219.337 109.519 219.172C109.519 219.008 109.388 218.877 109.224 218.877C109.059 218.877 108.929 219.008 108.929 219.172Z" fill="#1B1B43"/>
<path d="M87.382 218.877H87.6771V206.925L87.0869 207.288V219.172C87.0869 219.008 87.2176 218.877 87.382 218.877Z" fill="#1B1B43"/>
<path d="M105.147 221.087V207.288L105.058 207.343V220.796H87.6722V219.468H87.3771C87.2127 219.468 87.082 219.337 87.082 219.172V221.091C87.082 221.256 87.2127 221.387 87.3771 221.387H105.353C105.353 221.387 105.383 221.387 105.396 221.382C105.252 221.361 105.147 221.239 105.147 221.091V221.087Z" fill="#1B1B43"/>
<path d="M105.649 221.087V219.463H105.443C105.278 219.463 105.147 219.333 105.147 219.168V221.087C105.147 221.235 105.257 221.357 105.396 221.378C105.54 221.357 105.645 221.235 105.645 221.087H105.649Z" fill="#1B1B43"/>
<path d="M105.442 218.877H105.649V207.288L105.4 207.132L105.151 207.288V219.172C105.151 219.008 105.282 218.877 105.446 218.877H105.442Z" fill="#1B1B43"/>
<path d="M105.062 206.925V207.343L105.147 207.288V206.98L105.062 206.925Z" fill="#1B1B43"/>
<path d="M105.147 206.98V207.288L105.4 207.132L105.147 206.98Z" fill="#1B1B43"/>
<path d="M105.443 218.877C105.278 218.877 105.147 219.008 105.147 219.172C105.147 219.337 105.278 219.468 105.443 219.468H105.649V218.877H105.443Z" fill="#1B1B43"/>
<path d="M87.2258 206.508L96.2139 200.974L86.2393 207.115V205.019L96.3657 198.773L100.093 201.071C100.185 201.126 100.299 201.131 100.392 201.08C100.485 201.029 100.544 200.928 100.544 200.823V200.279H103.153V202.796C103.153 202.898 103.208 202.995 103.292 203.045L104.84 203.998L105.4 203.652L103.743 202.632V199.983C103.743 199.819 103.613 199.688 103.448 199.688H100.248C100.084 199.688 99.9534 199.819 99.9534 199.983V200.295L96.5217 198.178C96.429 198.119 96.3067 198.119 96.2139 198.178L85.7924 204.606C85.7039 204.66 85.6533 204.753 85.6533 204.854V207.642C85.6533 207.748 85.7123 207.849 85.8051 207.899C85.8515 207.925 85.8978 207.937 85.9484 207.937C86.0032 207.937 86.0538 207.925 86.1044 207.895L87.0909 207.288V206.761C87.0909 206.659 87.1457 206.562 87.23 206.512L87.2258 206.508Z" fill="#1B1B43"/>
<path d="M96.5215 200.974L103.714 205.403L96.5215 200.974Z" fill="#1B1B43"/>
<path d="M103.714 206.094L96.3701 201.573L103.714 206.094Z" fill="#1B1B43"/>
<path d="M87.6768 206.925L96.3698 201.573L87.6768 206.925Z" fill="#1B1B43"/>
<path d="M105.648 206.98V207.288L105.737 207.343V206.925L105.648 206.98Z" fill="#1B1B43"/>
<path d="M105.401 204.344L105.961 203.998L105.401 203.652L104.84 203.998L105.401 204.344Z" fill="#1B1B43"/>
<path d="M106.496 206.457L107.082 206.094V205.403L106.496 205.765V206.457Z" fill="#1B1B43"/>
<path d="M105.51 206.508C105.599 206.562 105.649 206.655 105.649 206.756V206.976L105.738 206.921L105.961 206.782L105.4 206.436L105.51 206.503V206.508Z" fill="#1B1B43"/>
<path d="M87.6771 206.925L96.3701 201.573L103.714 206.099V205.407L96.5219 200.979C96.4249 200.92 96.3069 200.92 96.2142 200.979L87.226 206.512C87.1375 206.567 87.0869 206.659 87.0869 206.761V207.288L87.6771 206.925Z" fill="#1B1B43"/>
<path d="M105.4 206.44L104.304 205.765V206.457L104.839 206.786L105.4 206.44Z" fill="#1B1B43"/>
<path d="M105.4 207.132L105.649 207.288V206.98L105.4 207.132Z" fill="#1B1B43"/>
<path d="M105.286 206.508L105.396 206.44L104.835 206.786L105.058 206.925L105.147 206.98V206.761C105.147 206.659 105.202 206.562 105.286 206.512V206.508Z" fill="#1B1B43"/>
<path d="M104.304 205.765L103.714 205.403V206.094L104.304 206.457V205.765Z" fill="#1B1B43"/>
<path d="M105.649 206.761C105.649 206.659 105.594 206.562 105.51 206.512L105.4 206.444L105.29 206.512C105.202 206.567 105.151 206.659 105.151 206.761V206.98L105.4 207.136L105.649 206.98V206.761Z" fill="#1B1B43"/>
<path d="M91.4582 219.172C91.4582 219.337 91.3275 219.468 91.1631 219.468H91.9009C92.0653 219.468 92.196 219.337 92.196 219.172C92.196 219.008 92.0653 218.877 91.9009 218.877H91.1631C91.3275 218.877 91.4582 219.008 91.4582 219.172Z" fill="#1B1B43"/>
<path d="M94.5486 218.877H93.2248C93.0604 218.877 92.9297 219.008 92.9297 219.172C92.9297 219.337 93.0604 219.468 93.2248 219.468H94.5486C94.713 219.468 94.8437 219.337 94.8437 219.172C94.8437 219.008 94.713 218.877 94.5486 218.877Z" fill="#1B1B43"/>
<path d="M97.196 218.877H95.8723C95.7078 218.877 95.5771 219.008 95.5771 219.172C95.5771 219.337 95.7078 219.468 95.8723 219.468H97.196C97.3604 219.468 97.4911 219.337 97.4911 219.172C97.4911 219.008 97.3604 218.877 97.196 218.877Z" fill="#1B1B43"/>
<path d="M99.8484 218.877H98.5246C98.3602 218.877 98.2295 219.008 98.2295 219.172C98.2295 219.337 98.3602 219.468 98.5246 219.468H99.8484C100.013 219.468 100.143 219.337 100.143 219.172C100.143 219.008 100.013 218.877 99.8484 218.877Z" fill="#1B1B43"/>
<path d="M101.91 218.877H101.172C101.008 218.877 100.877 219.008 100.877 219.172C100.877 219.337 101.008 219.468 101.172 219.468H101.91C102.074 219.468 102.205 219.337 102.205 219.172C102.205 219.008 102.074 218.877 101.91 218.877Z" fill="#1B1B43"/>
<path d="M87.382 219.463H87.6771V218.873H87.382C87.2176 218.873 87.0869 219.004 87.0869 219.168C87.0869 219.333 87.2176 219.463 87.382 219.463Z" fill="#1B1B43"/>
<path d="M90.8682 219.172C90.8682 219.337 90.9989 219.468 91.1633 219.468C91.3277 219.468 91.4584 219.337 91.4584 219.172C91.4584 219.008 91.3277 218.877 91.1633 218.877C90.9989 218.877 90.8682 219.008 90.8682 219.172Z" fill="#1B1B43"/>
</g>
<defs>
<clipPath id="clip0_513_4324">
<rect width="218" height="279" fill="white" transform="translate(0.126953)"/>
</clipPath>
</defs>
</svg>
