<svg width="380" height="42" viewBox="0 0 380 42" fill="none" xmlns="http://www.w3.org/2000/svg">
<g clip-path="url(#clip0_513_4270)">
<path d="M258.608 35V11.0073H274.834V15.5835H264.603V19.7891H274.029V24.3652H264.603V30.4238H274.834V35H258.608ZM284.229 35H278.589V9.92773H284.229V35ZM297.812 35.4834C294.396 35.4834 291.775 34.667 289.949 33.0342C288.133 31.4014 287.226 29.0757 287.226 26.0571C287.226 23.103 288.074 20.7451 289.771 18.9834C291.469 17.2217 293.843 16.3408 296.894 16.3408C299.665 16.3408 301.749 17.0874 303.146 18.5806C304.542 20.0737 305.24 22.2114 305.24 24.9937V27.0239H292.881C292.935 27.8618 293.112 28.5654 293.413 29.1348C293.714 29.6934 294.111 30.1392 294.605 30.4722C295.089 30.8052 295.653 31.0469 296.297 31.1973C296.942 31.3369 297.646 31.4067 298.408 31.4067C299.063 31.4067 299.708 31.3369 300.342 31.1973C300.976 31.0469 301.556 30.8535 302.082 30.6172C302.544 30.4131 302.968 30.1929 303.355 29.9565C303.752 29.7202 304.075 29.5107 304.322 29.3281H304.918V33.9849C304.456 34.1675 304.032 34.3394 303.645 34.5005C303.269 34.6509 302.748 34.8066 302.082 34.9678C301.47 35.1289 300.836 35.2524 300.181 35.3384C299.536 35.4351 298.747 35.4834 297.812 35.4834ZM299.681 23.624C299.649 22.4316 299.37 21.5239 298.843 20.9009C298.328 20.2778 297.533 19.9663 296.458 19.9663C295.363 19.9663 294.503 20.2939 293.88 20.9492C293.268 21.6045 292.93 22.4961 292.865 23.624H299.681ZM325.076 16.9048L318.582 35H312.427L305.981 16.9048H311.911L315.617 28.877L319.275 16.9048H325.076ZM337.225 30.2788V26.5083C336.269 26.605 335.496 26.6909 334.905 26.7661C334.314 26.8306 333.734 26.9648 333.165 27.1689C332.67 27.3408 332.284 27.604 332.004 27.9585C331.736 28.3022 331.602 28.7642 331.602 29.3442C331.602 30.1929 331.827 30.7783 332.278 31.1006C332.74 31.4121 333.417 31.5679 334.309 31.5679C334.803 31.5679 335.308 31.4551 335.823 31.2295C336.339 31.0039 336.806 30.687 337.225 30.2788ZM337.225 33.0825C336.838 33.4048 336.489 33.6948 336.178 33.9526C335.877 34.2104 335.469 34.4683 334.953 34.7261C334.448 34.9731 333.954 35.1611 333.471 35.29C332.998 35.4189 332.332 35.4834 331.473 35.4834C329.872 35.4834 328.54 34.9463 327.477 33.8721C326.424 32.7979 325.897 31.4443 325.897 29.8115C325.897 28.4688 326.166 27.3838 326.703 26.5566C327.24 25.7295 328.014 25.0742 329.023 24.5908C330.044 24.0967 331.263 23.7529 332.681 23.5596C334.099 23.3662 335.625 23.2158 337.257 23.1084V23.0117C337.257 22.0127 336.887 21.3252 336.146 20.9492C335.415 20.5625 334.314 20.3691 332.842 20.3691C332.176 20.3691 331.397 20.4927 330.506 20.7397C329.614 20.9761 328.744 21.2822 327.896 21.6582H327.412V17.2915C327.971 17.1304 328.873 16.9424 330.119 16.7275C331.365 16.502 332.622 16.3892 333.89 16.3892C337.005 16.3892 339.271 16.9102 340.689 17.9521C342.118 18.9834 342.833 20.5625 342.833 22.6895V35H337.225V33.0825ZM353.935 35.3545C351.636 35.3545 349.96 34.8818 348.907 33.9365C347.865 32.9912 347.344 31.4443 347.344 29.2959V20.8364H345.185V16.9048H347.344V11.7324H352.984V16.9048H358.414V20.8364H352.984V27.2495C352.984 27.8833 352.989 28.4365 353 28.9092C353.011 29.3818 353.097 29.8062 353.258 30.1821C353.408 30.5581 353.671 30.8589 354.047 31.0845C354.434 31.2993 354.993 31.4067 355.723 31.4067C356.024 31.4067 356.416 31.3423 356.899 31.2134C357.394 31.0845 357.737 30.9663 357.931 30.8589H358.414V34.8389C357.802 35 357.152 35.1235 356.464 35.2095C355.777 35.3062 354.934 35.3545 353.935 35.3545ZM370 35.4834C366.583 35.4834 363.962 34.667 362.136 33.0342C360.321 31.4014 359.413 29.0757 359.413 26.0571C359.413 23.103 360.262 20.7451 361.959 18.9834C363.656 17.2217 366.03 16.3408 369.081 16.3408C371.853 16.3408 373.937 17.0874 375.333 18.5806C376.729 20.0737 377.428 22.2114 377.428 24.9937V27.0239H365.069C365.123 27.8618 365.3 28.5654 365.601 29.1348C365.901 29.6934 366.299 30.1392 366.793 30.4722C367.276 30.8052 367.84 31.0469 368.485 31.1973C369.129 31.3369 369.833 31.4067 370.596 31.4067C371.251 31.4067 371.896 31.3369 372.529 31.1973C373.163 31.0469 373.743 30.8535 374.27 30.6172C374.731 30.4131 375.156 30.1929 375.542 29.9565C375.94 29.7202 376.262 29.5107 376.509 29.3281H377.105V33.9849C376.644 34.1675 376.219 34.3394 375.833 34.5005C375.457 34.6509 374.936 34.8066 374.27 34.9678C373.657 35.1289 373.023 35.2524 372.368 35.3384C371.724 35.4351 370.934 35.4834 370 35.4834ZM371.869 23.624C371.836 22.4316 371.557 21.5239 371.031 20.9009C370.515 20.2778 369.72 19.9663 368.646 19.9663C367.55 19.9663 366.691 20.2939 366.068 20.9492C365.456 21.6045 365.117 22.4961 365.053 23.624H371.869Z" fill="black"/>
<path d="M60.5049 5.59503C69.437 5.59503 74.8393 12.0113 74.8393 21.0626C74.8393 30.1138 69.437 37 60.0454 37C52.0236 37 45.7109 31.1327 45.7109 21.572C45.7109 12.6481 50.2801 5.59064 60.5049 5.59064V5.59503ZM60.1699 33.9785C67.4402 33.9785 69.188 27.6018 69.188 21.1855C69.188 14.7693 67.5261 8.52429 60.419 8.52429C53.3119 8.52429 51.1518 15.024 51.1518 21.4007C51.1518 27.7775 52.8567 33.9785 60.1699 33.9785Z" fill="#121A33"/>
<path d="M74.8392 36.0251V33.434H77.1238C77.5403 33.434 78.3305 33.1792 78.3305 31.8178V17.7073C78.3305 16.8158 77.7465 16.605 77.3299 16.605H73.8472L73.1172 14.3125L82.8181 13.4605V16.0077L82.3586 18.2211C84.0634 15.0328 86.6013 13.3332 89.9638 13.3332C93.3262 13.3332 96.8175 15.3753 96.8175 19.1127V32.1999C96.8175 32.7533 97.3157 33.434 97.9383 33.434H100.347V36.0251H89.2509V33.434H91.2435C91.8662 33.434 92.4073 32.9245 92.4073 32.3273V20.1315C92.4073 17.8347 90.4963 16.7324 88.5037 16.7324C85.721 16.7324 82.8095 19.1961 82.8095 22.2132V31.8178C82.8095 33.008 83.2647 33.434 84.0548 33.434H86.3394V36.0251H74.8306H74.8392Z" fill="#121A33"/>
<path d="M110.079 13.3288C117.268 13.3288 120.218 18.5988 120.218 25.5245H104.26C104.26 31.6905 107.249 33.5569 110.783 33.5569C116.104 33.5569 117.182 28.669 117.182 28.669H119.964C119.964 31.7695 116.434 36.6575 110.199 36.6575C102.968 36.6575 99.2314 31.7256 99.2314 25.0546C99.2314 18.3836 103.345 13.3244 110.079 13.3244V13.3288ZM104.385 22.6743H114.94C114.94 19.3191 113.733 16.1702 109.911 16.1702C106.334 16.1702 104.385 19.1873 104.385 22.6743Z" fill="#121A33"/>
<path d="M119.303 33.1748C120.84 33.1748 121.836 33.1748 122.459 31.5587L131.808 6.4426H136.338L145.855 31.9847C146.271 33.087 147.598 33.1748 148.68 33.1748H149.346V36.0206H136.922V33.1748H139.495C140.289 33.1748 140.577 32.4107 140.577 31.7739C140.577 31.5587 140.534 31.4313 138.747 26.4599H127.526C126.406 29.9425 125.826 31.4752 125.826 31.8968C125.826 33.087 126.822 33.1704 128.776 33.1704H129.562V36.0162H118.968V33.1704H119.298L119.303 33.1748ZM137.627 23.6141L133.68 12.692L133.225 10.5269L132.684 12.7359L128.656 23.6141H137.631H137.627Z" fill="#121A33"/>
<path d="M150.759 36.0251H148.513V27.694H150.84C151.338 31.3479 154.04 33.7282 158.072 33.7282C160.107 33.7282 162.852 32.9201 162.852 30.2851C162.852 28.669 161.52 27.9487 160.107 27.6062L153.623 25.9505C150.548 25.1424 148.35 23.3594 148.35 19.9998C148.35 15.2831 152.588 13.3288 156.578 13.3288C158.948 13.3288 160.983 13.8821 162.856 15.3709L163.685 13.3288H165.763V21.2338H163.436C162.645 17.6239 160.318 16.2185 156.745 16.2185C154.916 16.2185 152.588 16.8992 152.588 19.1917C152.588 20.6366 153.627 21.4886 154.916 21.7828L162.31 23.6097C165.218 24.3344 167.09 26.4556 167.09 29.4331C167.09 34.3167 162.852 36.6575 158.57 36.6575C155.706 36.6575 153.541 35.8933 151.3 34.1498L150.759 36.0207V36.0251Z" fill="#121A33"/>
<path d="M179.183 13.3727C182.546 13.3727 186.87 15.1601 186.87 19.2356C186.87 21.1065 185.5 22.5074 183.671 22.5074C182.09 22.5074 180.802 21.4446 180.802 19.789C180.802 18.6427 181.343 17.7073 182.382 17.11C181.674 16.2185 179.93 16.2185 178.891 16.2185C174.236 16.2185 172.948 20.7639 172.948 24.8438C172.948 28.9237 174.318 33.2188 179.016 33.2188C182.382 33.2188 184.628 31.2205 184.628 28.0322H187.578C187.578 33.3022 183.795 36.574 178.23 36.574C171.621 36.574 167.799 31.6861 167.799 25.1864C167.799 18.3002 172.243 13.3727 179.183 13.3727Z" fill="#121A33"/>
<path d="M199.001 13.3288C206.189 13.3288 209.14 18.5988 209.14 25.5245H193.182C193.182 31.6905 196.175 33.5569 199.705 33.5569C205.021 33.5569 206.104 28.669 206.104 28.669H208.886C208.886 31.7695 205.352 36.6575 199.121 36.6575C191.889 36.6575 188.153 31.7256 188.153 25.0546C188.153 18.3836 192.267 13.3244 199.001 13.3244V13.3288ZM193.307 22.6743H203.862C203.862 19.3191 202.66 16.1702 198.833 16.1702C195.26 16.1702 193.307 19.1873 193.307 22.6743Z" fill="#121A33"/>
<path d="M209.101 36.0251V33.434H211.386C211.802 33.434 212.592 33.1792 212.592 31.8178V17.7073C212.592 16.8158 212.008 16.605 211.592 16.605H208.848V14.1808L217.076 13.4562V16.0033L216.62 18.2167C218.325 15.0284 220.859 13.3288 224.226 13.3288C227.592 13.3288 231.084 15.3709 231.084 19.1083V32.1955C231.084 32.7489 231.582 33.4296 232.204 33.4296H234.614V36.0207H223.517V33.4296H225.514C226.137 33.4296 226.678 32.9201 226.678 32.3229V20.1271C226.678 17.8303 224.767 16.728 222.774 16.728C219.991 16.728 217.08 19.1917 217.08 22.2088V31.8134C217.08 33.0036 217.539 33.4296 218.33 33.4296H220.614V36.0207H209.101V36.0251Z" fill="#121A33"/>
<path d="M245.586 14.1369V16.5567H240.721V31.6421C240.721 33.2144 241.305 33.5964 242.924 33.5964C243.881 33.5964 244.753 33.4691 246.123 33.1704V35.7615C243.963 36.3105 242.842 36.5696 240.763 36.5696C238.685 36.5696 237.397 36.0602 236.817 35.0808C236.4 34.4045 236.233 33.5525 236.233 31.4269V16.5611H232.574V14.1412C236.856 14.0973 237.642 11.335 237.642 5.47205H240.716V14.1412H245.582L245.586 14.1369Z" fill="#121A33"/>
<g opacity="0.6">
<g opacity="0.6">
<g opacity="0.6">
<path opacity="0.6" d="M0.126953 5.14706V30.878L10.4891 12.7139L0.126953 5.14706Z" fill="#1A9AD7"/>
</g>
</g>
</g>
<g opacity="0.6">
<g opacity="0.6">
<g opacity="0.6">
<path opacity="0.6" d="M24.9912 12.7139L35.3534 30.878V5.14706L24.9912 12.7139Z" fill="#1A9AD7"/>
</g>
</g>
</g>
<g opacity="0.6">
<g opacity="0.6">
<g opacity="0.6">
<path opacity="0.6" d="M24.9912 12.7139L17.7381 0L10.4893 12.7139L17.7381 18.0103L24.9912 12.7139Z" fill="#1A9AD7"/>
</g>
</g>
</g>
<path d="M0.126953 30.878H35.3532L17.7379 18.0103L0.126953 30.878Z" fill="#1A9AD7"/>
<g opacity="0.8">
<g opacity="0.8">
<g opacity="0.8">
<path opacity="0.8" d="M17.7383 18.0103L35.3536 30.878L24.9914 12.714L17.7383 18.0103Z" fill="#1A9AD7"/>
</g>
</g>
</g>
<g opacity="0.8">
<g opacity="0.8">
<g opacity="0.8">
<path opacity="0.8" d="M10.4891 12.714L0.126953 30.878L17.7379 18.0103L10.4891 12.714Z" fill="#1A9AD7"/>
</g>
</g>
</g>
<path d="M35.3532 33.4515H0.126953V36.025H35.3532V33.4515Z" fill="#1A9AD7"/>
</g>
<defs>
<clipPath id="clip0_513_4270">
<rect width="379.127" height="42" fill="white"/>
</clipPath>
</defs>
</svg>
