<svg width="226" height="23" viewBox="0 0 226 23" fill="none" xmlns="http://www.w3.org/2000/svg">
<g clip-path="url(#clip0_414_1967)">
<path d="M35.3371 3.94718C40.5647 3.94718 43.7265 7.70238 43.7265 12.9998C43.7265 18.2971 40.5647 22.3274 35.0681 22.3274C30.3733 22.3274 26.6787 18.8934 26.6787 13.2979C26.6787 8.07508 29.3529 3.94461 35.3371 3.94461V3.94718ZM35.141 20.559C39.396 20.559 40.419 16.8269 40.419 13.0717C40.419 9.31653 39.4463 5.66157 35.2868 5.66157C31.1273 5.66157 29.8631 9.46561 29.8631 13.1977C29.8631 16.9297 30.8609 20.559 35.141 20.559" fill="white"/>
<path d="M43.7265 21.7568V20.2403H45.0635C45.3073 20.2403 45.7698 20.0912 45.7698 19.2944V11.0361C45.7698 10.5143 45.428 10.3909 45.1842 10.3909H43.1459L42.7186 9.04922L48.3962 8.55058V10.0414L48.1273 11.3368C49.125 9.47075 50.6104 8.47604 52.5783 8.47604C54.5462 8.47604 56.5896 9.67123 56.5896 11.8586V19.518C56.5896 19.8419 56.8811 20.2403 57.2455 20.2403H58.6555V21.7568H52.1611V20.2403H53.3273C53.6917 20.2403 54.0084 19.9421 54.0084 19.5926V12.4549C54.0084 11.1106 52.89 10.4655 51.7238 10.4655C50.0952 10.4655 48.3912 11.9074 48.3912 13.6732V19.2944C48.3912 19.991 48.6576 20.2403 49.12 20.2403H50.4571V21.7568H43.7214H43.7265Z" fill="white"/>
<path d="M64.3507 8.47349C68.558 8.47349 70.2846 11.5578 70.2846 15.6112H60.9452C60.9452 19.2199 62.6944 20.3123 64.7629 20.3123C67.8769 20.3123 68.5077 17.4515 68.5077 17.4515H70.1363C70.1363 19.2662 68.0704 22.1269 64.4211 22.1269C60.1887 22.1269 58.0021 19.2405 58.0021 15.3362C58.0021 11.4319 60.4098 8.47092 64.3507 8.47092V8.47349ZM61.018 13.9431H67.1957C67.1957 11.9794 66.4895 10.1365 64.2527 10.1365C62.1591 10.1365 61.018 11.9023 61.018 13.9431" fill="white"/>
<path d="M69.7493 20.0887C70.649 20.0887 71.2321 20.0887 71.5965 19.1428L77.068 4.44327H79.7195L85.289 19.3921C85.5328 20.0373 86.3094 20.0887 86.9428 20.0887H87.3324V21.7542H80.0614V20.0887H81.5668C82.0318 20.0887 82.2002 19.6414 82.2002 19.2687C82.2002 19.1428 82.175 19.0683 81.1295 16.1587H74.5622C73.9063 18.1969 73.567 19.094 73.567 19.3407C73.567 20.0373 74.1501 20.0861 75.2936 20.0861H75.7536V21.7516H69.5532V20.0861H69.7468L69.7493 20.0887ZM80.4735 14.4931L78.1638 8.1008L77.8974 6.83364L77.5807 8.1265L75.2232 14.4931H80.4761H80.4735Z" fill="white"/>
<path d="M88.1593 21.7568H86.8448V16.8809H88.207C88.4986 19.0194 90.0795 20.4125 92.4394 20.4125C93.6308 20.4125 95.2368 19.9396 95.2368 18.3974C95.2368 17.4515 94.4576 17.03 93.6308 16.8295L89.8357 15.8605C88.0361 15.3876 86.7493 14.344 86.7493 12.3778C86.7493 9.61726 89.23 8.47348 91.5648 8.47348C92.9522 8.47348 94.1435 8.79734 95.2393 9.66867L95.7243 8.47348H96.9408V13.1H95.5786C95.1161 10.9872 93.7539 10.1647 91.6628 10.1647C90.5922 10.1647 89.23 10.5631 89.23 11.9048C89.23 12.7505 89.8382 13.2491 90.5922 13.4213L94.9201 14.4905C96.6216 14.9146 97.7174 16.1561 97.7174 17.8988C97.7174 20.7569 95.2368 22.1269 92.731 22.1269C91.0546 22.1269 89.7879 21.6797 88.476 20.6593L88.1593 21.7542V21.7568Z" fill="white"/>
<path d="M104.795 8.49918C106.763 8.49918 109.294 9.54529 109.294 11.9305C109.294 13.0255 108.492 13.8454 107.421 13.8454C106.496 13.8454 105.742 13.2234 105.742 12.2544C105.742 11.5835 106.059 11.0361 106.667 10.6865C106.253 10.1647 105.232 10.1647 104.624 10.1647C101.899 10.1647 101.145 12.825 101.145 15.2128C101.145 17.6006 101.947 20.1143 104.697 20.1143C106.667 20.1143 107.982 18.9449 107.982 17.0788H109.708C109.708 20.1632 107.494 22.078 104.237 22.078C100.369 22.078 98.132 19.2173 98.132 15.4133C98.132 11.383 100.733 8.49918 104.795 8.49918" fill="white"/>
<path d="M116.394 8.47349C120.601 8.47349 122.328 11.5578 122.328 15.6112H112.988C112.988 19.2199 114.74 20.3123 116.806 20.3123C119.917 20.3123 120.551 17.4515 120.551 17.4515H122.179C122.179 19.2662 120.111 22.1269 116.464 22.1269C112.232 22.1269 110.045 19.2405 110.045 15.3362C110.045 11.4319 112.453 8.47092 116.394 8.47092V8.47349ZM113.061 13.9431H119.239C119.239 11.9794 118.535 10.1365 116.296 10.1365C114.205 10.1365 113.061 11.9023 113.061 13.9431Z" fill="white"/>
<path d="M122.305 21.7568V20.2403H123.642C123.886 20.2403 124.348 20.0912 124.348 19.2944V11.0361C124.348 10.5143 124.007 10.3909 123.763 10.3909H122.157V8.97212L126.972 8.54802V10.0388L126.706 11.3342C127.704 9.46818 129.186 8.47348 131.157 8.47348C133.127 8.47348 135.171 9.66867 135.171 11.856V19.5155C135.171 19.8393 135.462 20.2377 135.827 20.2377H137.237V21.7542H130.742V20.2377H131.911C132.275 20.2377 132.592 19.9396 132.592 19.59V12.4523C132.592 11.108 131.474 10.4629 130.307 10.4629C128.679 10.4629 126.975 11.9048 126.975 13.6706V19.2919C126.975 19.9884 127.244 20.2377 127.706 20.2377H129.043V21.7542H122.305V21.7568Z" fill="white"/>
<path d="M143.658 8.94641V10.3626H140.811V19.1916C140.811 20.1118 141.152 20.3354 142.1 20.3354C142.66 20.3354 143.171 20.2608 143.972 20.0861V21.6025C142.708 21.9238 142.052 22.0755 140.836 22.0755C139.619 22.0755 138.865 21.7773 138.526 21.2041C138.282 20.8083 138.184 20.3097 138.184 19.0657V10.3652H136.043V8.94898C138.549 8.92327 139.008 7.30656 139.008 3.87521H140.808V8.94898H143.656L143.658 8.94641Z" fill="white"/>
<g opacity="0.6">
<g opacity="0.6">
<g opacity="0.6">
<path opacity="0.6" d="M0 3.68503V18.7444L6.06461 8.11365L0 3.68503Z" fill="#1A9AD7"/>
</g>
</g>
</g>
<g opacity="0.6">
<g opacity="0.6">
<g opacity="0.6">
<path opacity="0.6" d="M14.552 8.11365L20.6166 18.7444V3.68503L14.552 8.11365Z" fill="#1A9AD7"/>
</g>
</g>
</g>
<g opacity="0.6">
<g opacity="0.6">
<g opacity="0.6">
<path opacity="0.6" d="M14.552 8.11364L10.307 0.672638L6.06458 8.11364L10.307 11.2134L14.552 8.11364Z" fill="#1A9AD7"/>
</g>
</g>
</g>
<path d="M0 18.7444H20.6167L10.3071 11.2134L0 18.7444Z" fill="#1A9AD7"/>
<g opacity="0.8">
<g opacity="0.8">
<g opacity="0.8">
<path opacity="0.8" d="M10.3071 11.2134L20.6167 18.7444L14.5521 8.11365L10.3071 11.2134Z" fill="#1A9AD7"/>
</g>
</g>
</g>
<g opacity="0.8">
<g opacity="0.8">
<g opacity="0.8">
<path opacity="0.8" d="M6.06461 8.11365L0 18.7444L10.3071 11.2134L6.06461 8.11365Z" fill="#1A9AD7"/>
</g>
</g>
</g>
<path d="M20.6167 20.2506H0V21.7568H20.6167V20.2506Z" fill="#1A9AD7"/>
</g>
<path d="M149.241 21.0865H150.921C151.145 21.0865 151.297 21.0466 151.377 20.9666C151.457 20.8706 151.497 20.7186 151.497 20.5106V6.11317C151.497 5.88921 151.457 5.73724 151.377 5.65725C151.297 5.57727 151.145 5.53727 150.921 5.53727H149.241V4.76941H162.727L162.871 10.3364H162.103C162.103 10.2245 162.015 9.86452 161.839 9.25662C161.679 8.64873 161.447 8.09683 161.143 7.60091C160.775 6.96102 160.351 6.45711 159.871 6.08918C159.392 5.72124 158.856 5.53727 158.264 5.53727H155.624C155.416 5.53727 155.264 5.57727 155.168 5.65725C155.088 5.73724 155.048 5.88921 155.048 6.11317V12.736H156.272C156.704 12.736 157.104 12.56 157.472 12.2081C157.84 11.8562 158.128 11.4242 158.336 10.9123C158.56 10.3844 158.672 9.88851 158.672 9.42459H159.44V16.9353H158.672C158.672 16.4554 158.56 15.9594 158.336 15.4475C158.128 14.9196 157.84 14.4797 157.472 14.1278C157.104 13.7758 156.704 13.5999 156.272 13.5999H155.048V20.5106C155.048 20.7186 155.088 20.8706 155.168 20.9666C155.264 21.0466 155.416 21.0865 155.624 21.0865H158.24C159.12 21.0865 159.855 20.7346 160.447 20.0307C161.039 19.3269 161.487 18.543 161.791 17.6791C161.919 17.3112 162.031 16.8553 162.127 16.3114C162.223 15.7675 162.279 15.4075 162.295 15.2316H163.063L162.919 21.8544H149.241V21.0865Z" fill="white"/>
<path d="M164.945 21.2785H166.289C166.433 21.2785 166.529 21.2545 166.577 21.2065C166.641 21.1425 166.673 21.0386 166.673 20.8946V5.72924C166.673 5.58527 166.641 5.48928 166.577 5.44129C166.529 5.3773 166.433 5.34531 166.289 5.34531H164.945V4.76941H169.456V20.8946C169.456 21.0386 169.48 21.1425 169.528 21.2065C169.592 21.2545 169.696 21.2785 169.84 21.2785H171.184V21.8544H164.945V21.2785Z" fill="white"/>
<path d="M177.965 22.1424C176.974 22.1424 176.086 21.8784 175.302 21.3505C174.534 20.8066 173.934 20.0787 173.502 19.1669C173.07 18.255 172.854 17.2552 172.854 16.1674C172.854 15.0476 173.07 14.0318 173.502 13.1199C173.934 12.2081 174.518 11.4962 175.254 10.9843C176.006 10.4564 176.822 10.1925 177.701 10.1925C178.677 10.1925 179.517 10.5444 180.221 11.2483C180.925 11.9362 181.389 12.848 181.613 13.9838C181.725 14.4957 181.781 15.2956 181.781 16.3834H175.926C175.926 17.1512 175.942 17.7591 175.974 18.2071C176.006 18.639 176.078 19.0629 176.19 19.4788C176.334 20.0707 176.606 20.5426 177.006 20.8946C177.422 21.2465 177.901 21.4225 178.445 21.4225C179.229 21.4225 179.861 21.0785 180.341 20.3907C180.821 19.7028 181.109 18.8949 181.205 17.9671H181.829C181.733 19.0709 181.373 20.0467 180.749 20.8946C180.125 21.7264 179.197 22.1424 177.965 22.1424ZM178.997 15.7115C178.997 14.0318 178.885 12.792 178.661 11.9921C178.453 11.1763 178.053 10.7684 177.462 10.7684C176.87 10.7684 176.462 11.1763 176.238 11.9921C176.03 12.792 175.926 14.0318 175.926 15.7115H178.997Z" fill="white"/>
<path d="M185.396 12.4481C185.22 11.9362 185.02 11.5762 184.797 11.3683C184.589 11.1603 184.277 11.0563 183.861 11.0563H183.453V10.4804H189.332V11.0563H188.636C188.492 11.0563 188.356 11.1123 188.228 11.2243C188.116 11.3363 188.06 11.4882 188.06 11.6802C188.06 11.8402 188.108 12.0641 188.204 12.3521L190.34 18.279L192.235 13.024C192.347 12.672 192.403 12.3201 192.403 11.9681C192.403 11.7442 192.323 11.5362 192.163 11.3443C192.003 11.1523 191.803 11.0563 191.563 11.0563H190.939V10.4804H195.019V11.0563H194.491C193.947 11.0563 193.499 11.5522 193.147 12.544L189.692 22.1424H188.924L185.396 12.4481Z" fill="white"/>
<path d="M199.009 22.1424C198.129 22.1424 197.377 21.9264 196.753 21.4945C196.145 21.0626 195.841 20.3347 195.841 19.3109C195.841 18.271 196.217 17.4552 196.969 16.8633C197.737 16.2554 198.705 15.7515 199.873 15.3516L201.648 14.7277V13.0959C201.648 12.2801 201.48 11.6882 201.144 11.3203C200.808 10.9523 200.377 10.7684 199.849 10.7684C199.401 10.7684 199.009 10.8723 198.673 11.0803C198.353 11.2723 198.193 11.5442 198.193 11.8962C198.193 11.9921 198.217 12.1121 198.265 12.2561C198.329 12.3841 198.433 12.4961 198.577 12.592C198.817 12.736 198.985 12.888 199.081 13.048C199.193 13.2079 199.249 13.4159 199.249 13.6718C199.249 14.0558 199.105 14.3597 198.817 14.5837C198.545 14.7917 198.241 14.8956 197.905 14.8956C197.489 14.8956 197.129 14.7597 196.825 14.4877C196.537 14.1998 196.393 13.7918 196.393 13.2639C196.393 12.656 196.577 12.1201 196.945 11.6562C197.313 11.1763 197.785 10.8163 198.361 10.5764C198.937 10.3204 199.521 10.1925 200.113 10.1925C201.264 10.1925 202.272 10.5044 203.136 11.1283C204 11.7362 204.432 12.712 204.432 14.0558V20.1267C204.432 20.7026 204.592 20.9906 204.912 20.9906C205.2 20.9906 205.416 20.7506 205.56 20.2707C205.704 19.7908 205.776 19.2389 205.776 18.615H206.447C206.447 19.7828 206.272 20.6386 205.92 21.1825C205.744 21.4705 205.496 21.7024 205.176 21.8784C204.856 22.0544 204.488 22.1424 204.072 22.1424C203.416 22.1424 202.92 22.0464 202.584 21.8544C202.248 21.6464 201.968 21.3105 201.744 20.8466H201.696C201.056 21.7104 200.161 22.1424 199.009 22.1424ZM200.185 21.1825C200.808 21.1825 201.296 20.8306 201.648 20.1267V15.3755L200.305 15.8555C199.777 16.0474 199.385 16.4154 199.129 16.9593C198.889 17.4872 198.769 18.1991 198.769 19.0949C198.769 19.8788 198.913 20.4227 199.201 20.7266C199.489 21.0306 199.817 21.1825 200.185 21.1825Z" fill="white"/>
<path d="M212.01 22.1424C211.002 22.1424 210.218 21.8864 209.658 21.3745C209.115 20.8466 208.843 20.1107 208.843 19.1669V11.1523H207.403V10.4804C208.347 10.3524 209.091 9.9605 209.634 9.30461C210.194 8.64873 210.474 7.79288 210.474 6.73706V5.87322H211.626V10.4804H214.074V11.1523H211.626V19.3349C211.626 19.8628 211.698 20.2867 211.842 20.6066C211.986 20.9266 212.282 21.0865 212.73 21.0865C213.402 21.0865 213.85 20.6306 214.074 19.7188C214.298 18.791 214.41 17.7591 214.41 16.6233H215.081C215.081 17.5352 215.017 18.375 214.89 19.1429C214.778 19.9108 214.594 20.5026 214.338 20.9186C213.826 21.7344 213.05 22.1424 212.01 22.1424Z" fill="white"/>
<path d="M221.926 22.1424C220.935 22.1424 220.047 21.8784 219.263 21.3505C218.495 20.8066 217.895 20.0787 217.463 19.1669C217.031 18.255 216.815 17.2552 216.815 16.1674C216.815 15.0476 217.031 14.0318 217.463 13.1199C217.895 12.2081 218.479 11.4962 219.215 10.9843C219.967 10.4564 220.783 10.1925 221.663 10.1925C222.638 10.1925 223.478 10.5444 224.182 11.2483C224.886 11.9362 225.35 12.848 225.574 13.9838C225.686 14.4957 225.742 15.2956 225.742 16.3834H219.887C219.887 17.1512 219.903 17.7591 219.935 18.2071C219.967 18.639 220.039 19.0629 220.151 19.4788C220.295 20.0707 220.567 20.5426 220.967 20.8946C221.383 21.2465 221.862 21.4225 222.406 21.4225C223.19 21.4225 223.822 21.0785 224.302 20.3907C224.782 19.7028 225.07 18.8949 225.166 17.9671H225.79C225.694 19.0709 225.334 20.0467 224.71 20.8946C224.086 21.7264 223.158 22.1424 221.926 22.1424ZM222.958 15.7115C222.958 14.0318 222.846 12.792 222.622 11.9921C222.414 11.1763 222.014 10.7684 221.423 10.7684C220.831 10.7684 220.423 11.1763 220.199 11.9921C219.991 12.792 219.887 14.0318 219.887 15.7115H222.958Z" fill="white"/>
<defs>
<clipPath id="clip0_414_1967">
<rect width="143.975" height="21.6547" fill="white" transform="translate(0 0.672638)"/>
</clipPath>
</defs>
</svg>
