<svg width="41" height="24" viewBox="0 0 41 24" fill="none" xmlns="http://www.w3.org/2000/svg">
<path d="M38.1237 22.7919H20.7377V21.4634H20.6491V23.0871C20.6491 23.2347 20.5395 23.357 20.4004 23.3781C20.413 23.3781 20.4299 23.3823 20.4425 23.3823H38.4188C38.5832 23.3823 38.7139 23.2516 38.7139 23.0871V9.28787L38.1237 8.92517V22.7961V22.7919Z" fill="#1B1B43"/>
<path d="M20.6484 20.8772H20.737V9.3427L20.6484 9.28787V20.8772Z" fill="#1B1B43"/>
<path d="M29.4302 3.57333L22.082 8.09435L29.4302 3.57333Z" fill="#1B1B43"/>
<path d="M38.1237 8.92518L29.4307 3.57333L38.1237 8.92518Z" fill="#1B1B43"/>
<path d="M22.082 7.40271L29.2742 2.97447L22.082 7.40271Z" fill="#1B1B43"/>
<path d="M40.0075 6.60561L36.8035 4.63189V1.98338C36.8035 1.8189 36.6728 1.68816 36.5084 1.68816H33.3086C33.1441 1.68816 33.0135 1.8189 33.0135 1.98338V2.29546L29.5818 0.178346C29.489 0.119303 29.3668 0.119303 29.274 0.178346L20.3955 5.65249L20.9562 5.99831L29.4258 0.772997L33.1526 3.07145C33.2453 3.12628 33.3592 3.13051 33.4519 3.0799C33.5447 3.02929 33.6037 2.92807 33.6037 2.82263V2.2786H36.2133V4.79636C36.2133 4.89757 36.2681 4.99458 36.3524 5.04519L39.5564 7.01892V9.11495L29.5818 2.97446L38.5699 8.50765C38.6584 8.56247 38.709 8.65525 38.709 8.75647V9.28364L39.6955 9.89094C39.7883 9.94577 39.9021 9.94999 39.9949 9.89517C40.0876 9.84456 40.1466 9.74333 40.1466 9.6379V6.85023C40.1466 6.74901 40.0918 6.65201 40.0075 6.6014V6.60561Z" fill="#1B1B43"/>
<path d="M20.9611 8.786L21.4965 8.45705V7.7654L20.4004 8.44018L20.9611 8.786Z" fill="#1B1B43"/>
<path d="M38.5701 8.50766L29.582 2.97447C29.485 2.91543 29.367 2.91543 29.2742 2.97447L22.082 7.40271V8.09435L29.426 3.56912L38.119 8.92097L38.7092 9.28365V8.75648C38.7092 8.65526 38.6544 8.55827 38.5701 8.50766Z" fill="#1B1B43"/>
<path d="M24.5187 21.1724C24.5187 21.3369 24.388 21.4676 24.2236 21.4676H24.9614C25.1258 21.4676 25.2565 21.3369 25.2565 21.1724C25.2565 21.0079 25.1258 20.8772 24.9614 20.8772H24.2236C24.388 20.8772 24.5187 21.0079 24.5187 21.1724Z" fill="#1B1B43"/>
<path d="M30.2605 20.8772H28.9367C28.7723 20.8772 28.6416 21.0079 28.6416 21.1724C28.6416 21.3369 28.7723 21.4676 28.9367 21.4676H30.2605C30.4249 21.4676 30.5556 21.3369 30.5556 21.1724C30.5556 21.0079 30.4249 20.8772 30.2605 20.8772Z" fill="#1B1B43"/>
<path d="M32.9089 20.8772H31.5851C31.4207 20.8772 31.29 21.0079 31.29 21.1724C31.29 21.3369 31.4207 21.4676 31.5851 21.4676H32.9089C33.0733 21.4676 33.204 21.3369 33.204 21.1724C33.204 21.0079 33.0733 20.8772 32.9089 20.8772Z" fill="#1B1B43"/>
<path d="M27.6091 20.8772H26.2853C26.1209 20.8772 25.9902 21.0079 25.9902 21.1724C25.9902 21.3369 26.1209 21.4676 26.2853 21.4676H27.6091C27.7735 21.4676 27.9042 21.3369 27.9042 21.1724C27.9042 21.0079 27.7735 20.8772 27.6091 20.8772Z" fill="#1B1B43"/>
<path d="M34.9704 20.8772H34.2326C34.0682 20.8772 33.9375 21.0079 33.9375 21.1724C33.9375 21.3369 34.0682 21.4676 34.2326 21.4676H34.9704C35.1348 21.4676 35.2655 21.3369 35.2655 21.1724C35.2655 21.0079 35.1348 20.8772 34.9704 20.8772Z" fill="#1B1B43"/>
<path d="M20.737 20.8772H20.6484V21.4676H20.737V20.8772Z" fill="#1B1B43"/>
<path d="M23.9287 21.1724C23.9287 21.3369 24.0594 21.4676 24.2238 21.4676C24.3882 21.4676 24.5189 21.3369 24.5189 21.1724C24.5189 21.0079 24.3882 20.8772 24.2238 20.8772C24.0594 20.8772 23.9287 21.0079 23.9287 21.1724Z" fill="#1B1B43"/>
<path d="M2.38202 20.8772H2.67713V8.92517L2.08691 9.28787V21.1724C2.08691 21.0079 2.2176 20.8772 2.38202 20.8772Z" fill="#1B1B43"/>
<path d="M20.1468 23.0871V9.28787L20.0583 9.3427V22.7961H2.67225V21.4676H2.37714C2.21273 21.4676 2.08203 21.3369 2.08203 21.1724V23.0913C2.08203 23.2558 2.21273 23.3865 2.37714 23.3865H20.3534C20.3534 23.3865 20.3829 23.3865 20.3955 23.3823C20.2522 23.3612 20.1468 23.2389 20.1468 23.0913V23.0871Z" fill="#1B1B43"/>
<path d="M20.6491 23.0871V21.4634H20.4426C20.2782 21.4634 20.1475 21.3327 20.1475 21.1682V23.0871C20.1475 23.2347 20.2571 23.357 20.3962 23.3781C20.5395 23.357 20.6449 23.2347 20.6449 23.0871H20.6491Z" fill="#1B1B43"/>
<path d="M20.4423 20.8772H20.6488V9.28788L20.4001 9.13184L20.1514 9.28788V21.1724C20.1514 21.0079 20.2821 20.8772 20.4465 20.8772H20.4423Z" fill="#1B1B43"/>
<path d="M20.0625 8.92517V9.3427L20.1468 9.28787V8.98L20.0625 8.92517Z" fill="#1B1B43"/>
<path d="M20.1475 8.98V9.28787L20.4004 9.13183L20.1475 8.98Z" fill="#1B1B43"/>
<path d="M20.4426 20.8772C20.2782 20.8772 20.1475 21.0079 20.1475 21.1724C20.1475 21.3369 20.2782 21.4676 20.4426 21.4676H20.6491V20.8772H20.4426Z" fill="#1B1B43"/>
<path d="M2.22583 8.50765L11.2139 2.97446L1.23932 9.11495V7.01892L11.3657 0.772997L15.0925 3.07145C15.1852 3.12628 15.2991 3.13051 15.3918 3.0799C15.4846 3.02929 15.5436 2.92807 15.5436 2.82263V2.2786H18.1532V4.79636C18.1532 4.89757 18.208 4.99458 18.2923 5.04519L19.8395 5.99831L20.4002 5.65249L18.7434 4.63189V1.98338C18.7434 1.8189 18.6127 1.68816 18.4483 1.68816H15.2485C15.0841 1.68816 14.9534 1.8189 14.9534 1.98338V2.29546L11.5217 0.178346C11.429 0.119303 11.3067 0.119303 11.2139 0.178346L0.792443 6.60561C0.703911 6.66044 0.65332 6.75322 0.65332 6.85443V9.64212C0.65332 9.74756 0.712342 9.84877 0.80509 9.89938C0.851464 9.92468 0.897843 9.93733 0.948433 9.93733C1.00324 9.93733 1.05383 9.92469 1.10442 9.89517L2.09092 9.28786V8.76069C2.09092 8.65948 2.14572 8.56248 2.23004 8.51187L2.22583 8.50765Z" fill="#1B1B43"/>
<path d="M11.5215 2.97447L18.7137 7.40271L11.5215 2.97447Z" fill="#1B1B43"/>
<path d="M18.7141 8.09435L11.3701 3.57333L18.7141 8.09435Z" fill="#1B1B43"/>
<path d="M2.67676 8.92518L11.3698 3.57333L2.67676 8.92518Z" fill="#1B1B43"/>
<path d="M20.6484 8.98V9.28787L20.737 9.3427V8.92517L20.6484 8.98Z" fill="#1B1B43"/>
<path d="M20.4005 6.34414L20.9612 5.99831L20.4005 5.6525L19.8398 5.99831L20.4005 6.34414Z" fill="#1B1B43"/>
<path d="M21.4961 8.45705L22.0821 8.09435V7.40271L21.4961 7.7654V8.45705Z" fill="#1B1B43"/>
<path d="M20.51 8.50766C20.5985 8.56249 20.6491 8.65527 20.6491 8.75648V8.97578L20.7377 8.92097L20.9611 8.78179L20.4004 8.43596L20.51 8.50344V8.50766Z" fill="#1B1B43"/>
<path d="M2.67713 8.92518L11.3701 3.57334L18.7141 8.09858V7.40692L11.5219 2.97868C11.4249 2.91964 11.3069 2.91964 11.2142 2.97868L2.22604 8.51188C2.1375 8.56671 2.08691 8.65949 2.08691 8.76071V9.28788L2.67713 8.92518Z" fill="#1B1B43"/>
<path d="M20.3998 8.44018L19.3037 7.7654V8.45705L19.8391 8.786L20.3998 8.44018Z" fill="#1B1B43"/>
<path d="M20.4004 9.13183L20.6491 9.28787V8.98L20.4004 9.13183Z" fill="#1B1B43"/>
<path d="M20.2861 8.50765L20.3957 8.44017L19.835 8.786L20.0584 8.92517L20.1469 8.97999V8.76069C20.1469 8.65948 20.2017 8.56248 20.2861 8.51187V8.50765Z" fill="#1B1B43"/>
<path d="M19.3041 7.7654L18.7139 7.40271V8.09435L19.3041 8.45705V7.7654Z" fill="#1B1B43"/>
<path d="M20.6488 8.7607C20.6488 8.65948 20.594 8.56248 20.5097 8.51188L20.4001 8.4444L20.2905 8.51188C20.202 8.5667 20.1514 8.65948 20.1514 8.7607V8.98L20.4001 9.13604L20.6488 8.98V8.7607Z" fill="#1B1B43"/>
<path d="M6.45819 21.1724C6.45819 21.3369 6.3275 21.4676 6.16309 21.4676H6.90085C7.06527 21.4676 7.19596 21.3369 7.19596 21.1724C7.19596 21.0079 7.06527 20.8772 6.90085 20.8772H6.16309C6.3275 20.8772 6.45819 21.0079 6.45819 21.1724Z" fill="#1B1B43"/>
<path d="M9.54856 20.8772H8.22479C8.06038 20.8772 7.92969 21.0079 7.92969 21.1724C7.92969 21.3369 8.06038 21.4676 8.22479 21.4676H9.54856C9.71298 21.4676 9.84367 21.3369 9.84367 21.1724C9.84367 21.0079 9.71298 20.8772 9.54856 20.8772Z" fill="#1B1B43"/>
<path d="M12.196 20.8772H10.8723C10.7078 20.8772 10.5771 21.0079 10.5771 21.1724C10.5771 21.3369 10.7078 21.4676 10.8723 21.4676H12.196C12.3604 21.4676 12.4911 21.3369 12.4911 21.1724C12.4911 21.0079 12.3604 20.8772 12.196 20.8772Z" fill="#1B1B43"/>
<path d="M14.8484 20.8772H13.5246C13.3602 20.8772 13.2295 21.0079 13.2295 21.1724C13.2295 21.3369 13.3602 21.4676 13.5246 21.4676H14.8484C15.0128 21.4676 15.1435 21.3369 15.1435 21.1724C15.1435 21.0079 15.0128 20.8772 14.8484 20.8772Z" fill="#1B1B43"/>
<path d="M16.9098 20.8772H16.1721C16.0076 20.8772 15.877 21.0079 15.877 21.1724C15.877 21.3369 16.0076 21.4676 16.1721 21.4676H16.9098C17.0742 21.4676 17.2049 21.3369 17.2049 21.1724C17.2049 21.0079 17.0742 20.8772 16.9098 20.8772Z" fill="#1B1B43"/>
<path d="M2.38202 21.4634H2.67713V20.873H2.38202C2.2176 20.873 2.08691 21.0037 2.08691 21.1682C2.08691 21.3327 2.2176 21.4634 2.38202 21.4634Z" fill="#1B1B43"/>
<path d="M5.86816 21.1724C5.86816 21.3369 5.99885 21.4676 6.16327 21.4676C6.32769 21.4676 6.45838 21.3369 6.45838 21.1724C6.45838 21.0079 6.32769 20.8772 6.16327 20.8772C5.99885 20.8772 5.86816 21.0079 5.86816 21.1724Z" fill="#1B1B43"/>
</svg>
