<svg width="36" height="24" viewBox="0 0 36 24" fill="none" xmlns="http://www.w3.org/2000/svg">
<path d="M28.4965 19.123C28.1213 19.123 27.7503 19.0134 27.4341 18.8067L21.2115 14.7496C21.0007 14.6147 20.9417 14.3321 21.0808 14.1212C21.2157 13.9103 21.4982 13.8513 21.709 13.9905L27.9315 18.0476C28.1761 18.2079 28.4627 18.2542 28.7452 18.1868C29.0277 18.1151 29.2595 17.9379 29.4029 17.6849C29.6685 17.2041 29.5125 16.601 29.0487 16.3058L20.4232 10.8738C20.0353 10.6292 19.5884 10.5027 19.1331 10.5027H15.0649V11.5781C15.0649 12.5903 14.2386 13.4169 13.2268 13.4169C12.215 13.4169 11.3887 12.5903 11.3887 11.5781V8.47838C11.3887 8.00182 11.6669 7.56321 12.0969 7.36078L15.6382 5.69492C15.6972 5.6654 15.7647 5.65274 15.8321 5.65274H25.5075C25.7562 5.65274 25.9585 5.85518 25.9585 6.104C25.9585 6.35283 25.7562 6.55526 25.5075 6.55526H15.9333L12.4806 8.17895C12.3667 8.23377 12.2909 8.34764 12.2909 8.47416V11.5739C12.2909 12.0884 12.7082 12.506 13.2225 12.506C13.7369 12.506 14.1542 12.0884 14.1542 11.5739V10.0472C14.1542 9.79842 14.3566 9.59598 14.6053 9.59598H19.1289C19.7571 9.59598 20.3726 9.77311 20.9038 10.1063L29.5293 15.5383C30.402 16.0865 30.6929 17.221 30.1954 18.1235C29.9341 18.5958 29.4872 18.9375 28.9644 19.0682C28.8126 19.1061 28.6525 19.123 28.4965 19.123Z" fill="#1B1B43"/>
<path d="M24.8967 20.5358C24.4962 20.5358 24.1084 20.4177 23.7669 20.19L19.374 17.2378C19.1674 17.0987 19.1126 16.8161 19.2517 16.6095C19.3908 16.4028 19.6733 16.348 19.8799 16.4872L24.2728 19.4393C24.5257 19.608 24.8293 19.6671 25.1286 19.608C25.4279 19.5448 25.6851 19.3718 25.8495 19.1146C26.1825 18.5958 26.035 17.9 25.5164 17.5626L21.5241 14.9605C21.3133 14.8255 21.2542 14.543 21.3934 14.3321C21.5283 14.1212 21.8107 14.0622 22.0215 14.2013L26.0139 16.8035C26.9456 17.4108 27.2154 18.6675 26.6125 19.6038C26.3132 20.0677 25.8537 20.384 25.3141 20.4979C25.1749 20.5274 25.0358 20.5401 24.8967 20.5401V20.5358Z" fill="#1B1B43"/>
<path d="M21.8817 22.2776C21.5065 22.2776 21.1313 22.1722 20.7941 21.9571L17.7755 20.0129C17.5647 19.8779 17.5057 19.5954 17.6406 19.3845C17.7755 19.1736 18.058 19.1146 18.2688 19.2495L21.2873 21.1938C21.7721 21.5058 22.4256 21.3877 22.7755 20.9281C22.961 20.6834 23.0327 20.3798 22.9821 20.0762C22.9315 19.7725 22.7629 19.511 22.5057 19.3423L20.5369 18.0181C20.3303 17.8789 20.2755 17.5963 20.4146 17.3897C20.5538 17.183 20.8362 17.1282 21.0428 17.2674L23.0116 18.5916C23.4753 18.9037 23.7831 19.3761 23.8758 19.9285C23.9686 20.481 23.8379 21.0293 23.5006 21.4763C23.1085 21.9993 22.5015 22.2776 21.886 22.2776H21.8817Z" fill="#1B1B43"/>
<path d="M18.1933 23.4922C17.8434 23.4922 17.4892 23.3994 17.1731 23.2012L16.8442 22.9988C16.6292 22.868 16.566 22.5897 16.6967 22.3746C16.8274 22.1595 17.1056 22.0963 17.3206 22.227L17.6494 22.4294C18.1174 22.7204 18.7371 22.5939 19.0575 22.1427C19.2262 21.9065 19.2894 21.6197 19.2346 21.3329C19.1798 21.0461 19.0154 20.8057 18.7709 20.6455L18.0331 20.1689C17.8223 20.034 17.7633 19.7514 17.8982 19.5405C18.0331 19.3297 18.3155 19.2706 18.5263 19.4056L19.2641 19.8821C19.7194 20.1731 20.023 20.6286 20.1283 21.16C20.2295 21.6914 20.1157 22.227 19.7995 22.6656C19.4201 23.197 18.8172 23.488 18.2017 23.488L18.1933 23.4922Z" fill="#1B1B43"/>
<path d="M15.4196 23.9308C15.0191 23.9308 14.6186 23.8001 14.2855 23.5302C13.8934 23.2139 13.6531 22.7668 13.611 22.2607C13.5688 21.7589 13.7332 21.2739 14.0663 20.8985L14.2181 20.7298C14.8589 20.0129 15.9465 19.9201 16.697 20.519C17.1017 20.8437 17.3462 21.3118 17.3841 21.8095C17.4221 22.3071 17.2492 22.8048 16.912 23.1759L16.7602 23.3446C16.4061 23.7326 15.9128 23.9308 15.4196 23.9308ZM15.5713 21.0335C15.3226 21.0335 15.0739 21.1347 14.8926 21.3371L14.7408 21.5058C14.5722 21.6956 14.4921 21.936 14.5132 22.1891C14.5343 22.4421 14.6523 22.6656 14.8504 22.8259C15.2256 23.1253 15.7695 23.0831 16.0899 22.7331L16.2417 22.5644C16.4145 22.3746 16.4988 22.1342 16.4777 21.8812C16.4609 21.6324 16.3428 21.4088 16.1489 21.2486C15.9676 21.1052 15.7653 21.0377 15.5671 21.0377L15.5713 21.0335Z" fill="#1B1B43"/>
<path d="M12.8812 22.6698C12.4723 22.6698 12.0633 22.5349 11.7261 22.2565C11.3382 21.9402 11.1063 21.4932 11.0642 20.9955C11.0262 20.4979 11.1822 20.0171 11.5153 19.6418L13.4208 17.4825C14.0743 16.7444 15.183 16.6559 15.9419 17.28L15.6763 17.6512L15.963 17.3011C16.3508 17.6216 16.5869 18.0729 16.6206 18.5748C16.6586 19.0766 16.4942 19.5574 16.1569 19.9328L14.226 22.071C13.8677 22.4674 13.3702 22.6741 12.8728 22.6741L12.8812 22.6698ZM14.7867 17.7693C14.5338 17.7693 14.2808 17.8747 14.0996 18.0813L12.194 20.2406C12.0296 20.4304 11.9495 20.6708 11.9664 20.9196C11.9874 21.1685 12.1055 21.3962 12.2994 21.5522C12.6788 21.8643 13.2311 21.8221 13.5599 21.4595L15.4908 19.3212C15.6594 19.1315 15.7437 18.8911 15.7227 18.638C15.7058 18.385 15.5878 18.1615 15.3938 18.0012C15.1999 17.841 14.9933 17.7693 14.7867 17.7693Z" fill="#1B1B43"/>
<path d="M10.9973 20.6497C10.5968 20.6497 10.1921 20.519 9.85483 20.2575C9.45854 19.9496 9.21402 19.5026 9.155 19.0049C9.1002 18.5073 9.24353 18.0181 9.5555 17.6301L10.2047 16.833C10.8413 16.0486 12.0091 15.9136 12.8059 16.5293C13.2148 16.8457 13.4762 17.3222 13.5268 17.8367C13.5774 18.3513 13.4088 18.8658 13.0673 19.2538L12.3885 20.0255C12.026 20.4388 11.5116 20.6497 10.9973 20.6497ZM11.6676 17.0439C11.3852 17.0439 11.1027 17.1662 10.913 17.3981L10.2638 18.1952C10.1036 18.3934 10.0277 18.6422 10.0572 18.8995C10.0867 19.1526 10.2132 19.3803 10.4155 19.5406C10.8076 19.8484 11.3767 19.7978 11.7098 19.4225L12.3885 18.6507C12.5656 18.4483 12.6499 18.1868 12.6246 17.9211C12.5993 17.6512 12.4686 17.4108 12.2536 17.2463C12.0808 17.1113 11.87 17.0481 11.6634 17.0481L11.6676 17.0439Z" fill="#1B1B43"/>
<path d="M9.09572 18.6085C8.73738 18.6085 8.3706 18.4946 8.05863 18.2627C7.66656 17.9717 7.41783 17.5373 7.36302 17.065C7.30822 16.5926 7.45156 16.1118 7.75931 15.7491L8.0502 15.4033C8.64885 14.6948 9.69016 14.5809 10.4279 15.1418C10.8031 15.4286 11.0392 15.8419 11.0982 16.31C11.1573 16.7782 11.0266 17.2379 10.7315 17.6048L10.449 17.959C10.1075 18.3892 9.60584 18.6127 9.09572 18.6127V18.6085ZM9.37818 15.6901C9.1421 15.6901 8.91023 15.7913 8.74581 15.9853L8.45492 16.3311C8.30736 16.5083 8.23991 16.7318 8.26521 16.9595C8.2905 17.1873 8.40854 17.3897 8.59404 17.5289C8.96503 17.803 9.4625 17.7397 9.74496 17.3897L10.0274 17.0354C10.1665 16.8583 10.2298 16.639 10.2003 16.4155C10.1708 16.192 10.0611 15.9937 9.87987 15.8588C9.7281 15.7449 9.55525 15.6901 9.37818 15.6901Z" fill="#1B1B43"/>
<path d="M8.39986 16.1456C8.28182 16.1456 8.16378 16.0992 8.07524 16.0064L5.51624 13.3494C5.36447 13.1934 5.34761 12.953 5.47408 12.7717L10.0778 6.26005C10.1621 6.13774 10.3012 6.07027 10.4488 6.07027H14.926C15.1747 6.07027 15.377 6.2727 15.377 6.52153C15.377 6.77035 15.1747 6.97278 14.926 6.97278H10.6806L6.43108 12.9868L8.7287 15.3738C8.90155 15.5551 8.89733 15.8419 8.71605 16.0148C8.62752 16.0992 8.51369 16.1413 8.39986 16.1413V16.1456Z" fill="#1B1B43"/>
<path d="M31.6038 14.7538C31.0979 14.7538 30.6046 14.5092 30.2969 14.058C29.1417 12.3499 26.6418 8.57538 25.2505 6.47935C24.7952 5.7877 24.9512 4.85145 25.6089 4.34958L29.7024 1.22873C29.9006 1.0769 30.1873 1.11486 30.339 1.31308C30.4908 1.51129 30.4529 1.79807 30.2547 1.9499L26.1654 5.07075C25.8829 5.28584 25.8155 5.68227 26.0136 5.97748C27.4006 8.07352 29.9006 11.8481 31.0515 13.5519C31.2539 13.8555 31.6586 13.9399 31.9664 13.7459L35.2968 11.6498C35.5076 11.5149 35.7901 11.5824 35.9208 11.7932C36.0557 12.0041 35.9882 12.2867 35.7774 12.4174L32.4469 14.5134C32.1856 14.6779 31.8905 14.758 31.6038 14.758V14.7538Z" fill="#1B1B43"/>
<path d="M4.93449 13.9567C4.6689 13.9567 4.39908 13.8893 4.15456 13.7501L1.03486 11.9872C0.815637 11.8649 0.739751 11.5866 0.86201 11.3715C0.984269 11.1522 1.26252 11.0763 1.47752 11.1986L4.59723 12.9614C4.90076 13.1344 5.28019 13.0458 5.48255 12.7632L10.1621 6.0787C10.3645 5.79192 10.3139 5.39971 10.0441 5.17619L5.55422 1.47755C5.36029 1.31729 5.33499 1.03473 5.49098 0.840731C5.65118 0.646732 5.93364 0.621424 6.12757 0.777467L10.6174 4.48032C11.254 5.0117 11.372 5.92266 10.8999 6.60165L6.22032 13.2862C5.91256 13.7248 5.42774 13.961 4.93027 13.961L4.93449 13.9567Z" fill="#1B1B43"/>
<path d="M28.2187 15.7027C28.1049 15.7027 27.991 15.6606 27.9025 15.572C27.7254 15.3949 27.7212 15.1081 27.8983 14.9309L29.9303 12.8602C30.1074 12.6831 30.394 12.6789 30.5711 12.856C30.7482 13.0331 30.7524 13.3199 30.5753 13.497L28.5433 15.5678C28.4548 15.6563 28.3367 15.7027 28.2187 15.7027Z" fill="#1B1B43"/>
<path d="M3.42515 11.5613C3.33662 11.5613 3.24809 11.536 3.16799 11.4812C2.96141 11.3378 2.91082 11.0594 3.04995 10.8528L5.46561 7.32704C5.60895 7.12039 5.88719 7.06978 6.09377 7.20896C6.30034 7.35235 6.35093 7.6307 6.21181 7.83735L3.79615 11.3631C3.70762 11.4896 3.56849 11.5613 3.42093 11.5613H3.42515Z" fill="#1B1B43"/>
<path d="M32.5393 12.0589C32.3875 12.0589 32.24 11.983 32.1556 11.8438L29.8707 8.18317C29.74 7.9723 29.8032 7.68974 30.014 7.559C30.2248 7.42826 30.5073 7.49152 30.638 7.70239L32.9229 11.3631C33.0536 11.5739 32.9904 11.8565 32.7796 11.9872C32.7037 12.0336 32.6236 12.0547 32.5393 12.0547V12.0589Z" fill="#1B1B43"/>
</svg>
