<svg width="33" height="34" viewBox="0 0 33 34" fill="none" xmlns="http://www.w3.org/2000/svg">
<path d="M8.13716 30.9769H5.03431C4.76872 30.9769 4.55371 30.7618 4.55371 30.4961V15.5456C4.55371 15.2799 4.76872 15.0648 5.03431 15.0648C5.29991 15.0648 5.51492 15.2799 5.51492 15.5456V30.0111H7.65234V18.0169C7.65234 17.7513 7.86735 17.5362 8.13294 17.5362C8.39854 17.5362 8.61355 17.7513 8.61355 18.0169V30.4919C8.61355 30.7576 8.39854 30.9727 8.13294 30.9727L8.13716 30.9769Z" fill="#1B1B43"/>
<path d="M3.73611 19.8937C2.75382 19.8937 1.95703 19.0966 1.95703 18.1139V10.9655C1.95703 9.10565 3.47051 7.59161 5.32969 7.59161H5.98314C6.24874 7.59161 6.46374 7.8067 6.46374 8.07239C6.46374 8.33809 6.24874 8.55317 5.98314 8.55317H5.32969C4.0017 8.55317 2.92246 9.63282 2.92246 10.9613V18.1097C2.92246 18.561 3.28923 18.9279 3.74032 18.9279C4.19141 18.9279 4.55819 18.561 4.55819 18.1097V13.0742C4.55819 12.8085 4.7732 12.5934 5.03879 12.5934C5.30439 12.5934 5.5194 12.8085 5.5194 13.0742V18.1097C5.5194 19.0924 4.72261 19.8895 3.74032 19.8895L3.73611 19.8937Z" fill="#1B1B43"/>
<path d="M10.2619 8.5574H9.84877C9.58317 8.5574 9.36816 8.34231 9.36816 8.07662C9.36816 7.81093 9.58317 7.59584 9.84877 7.59584H10.2619C10.5275 7.59584 10.7425 7.81093 10.7425 8.07662C10.7425 8.34231 10.5275 8.5574 10.2619 8.5574Z" fill="#1B1B43"/>
<path d="M11.2407 30.9769H8.13783C7.87223 30.9769 7.65723 30.7618 7.65723 30.4961V18.0212C7.65723 17.7555 7.87223 17.5404 8.13783 17.5404C8.40343 17.5404 8.61843 17.7555 8.61843 18.0212V30.0154H10.7559V22.5084C10.7559 22.2428 10.9709 22.0277 11.2365 22.0277C11.5021 22.0277 11.7171 22.2428 11.7171 22.5084V30.5004C11.7171 30.7661 11.5021 30.9811 11.2365 30.9811L11.2407 30.9769Z" fill="#1B1B43"/>
<path d="M8.13788 6.9084C6.45998 6.9084 5.08984 5.54198 5.08984 3.85925C5.08984 2.17652 6.45577 0.810089 8.13788 0.810089C9.81999 0.810089 11.1817 2.17652 11.1817 3.85925C11.1817 5.54198 9.81578 6.9084 8.13788 6.9084ZM8.13788 1.78008C6.99118 1.78008 6.05526 2.71634 6.05526 3.86346C6.05526 5.01059 6.99118 5.94684 8.13788 5.94684C9.28458 5.94684 10.2205 5.01059 10.2205 3.86346C10.2205 2.71634 9.28458 1.78008 8.13788 1.78008Z" fill="#1B1B43"/>
<path d="M16.4008 33.0266H13.298C13.0324 33.0266 12.8174 32.8115 12.8174 32.5458V16.2794C12.8174 16.0137 13.0324 15.7986 13.298 15.7986C13.5636 15.7986 13.7786 16.0137 13.7786 16.2794V32.0608H15.916V18.7508C15.916 18.4851 16.131 18.27 16.3966 18.27C16.6622 18.27 16.8772 18.4851 16.8772 18.7508V32.5458C16.8772 32.8115 16.6622 33.0266 16.3966 33.0266H16.4008Z" fill="#1B1B43"/>
<path d="M11.9988 20.6233C11.0165 20.6233 10.2197 19.8262 10.2197 18.8436V11.6951C10.2197 9.83526 11.7332 8.32123 13.5924 8.32123H14.2458C14.5114 8.32123 14.7264 8.53631 14.7264 8.80201C14.7264 9.0677 14.5114 9.28279 14.2458 9.28279H13.5924C12.2644 9.28279 11.1851 10.3624 11.1851 11.6909V18.8393C11.1851 19.2906 11.5519 19.6575 12.003 19.6575C12.4541 19.6575 12.8209 19.2906 12.8209 18.8393V13.8038C12.8209 13.5381 13.0359 13.323 13.3015 13.323C13.5671 13.323 13.7821 13.5381 13.7821 13.8038V18.8393C13.7821 19.822 12.9853 20.6191 12.003 20.6191L11.9988 20.6233Z" fill="#1B1B43"/>
<path d="M20.7976 20.6233C19.8154 20.6233 19.0186 19.8262 19.0186 18.8436V13.808C19.0186 13.5423 19.2336 13.3272 19.4992 13.3272C19.7648 13.3272 19.9798 13.5423 19.9798 13.808V18.8436C19.9798 19.2948 20.3466 19.6617 20.7976 19.6617C21.2487 19.6617 21.6155 19.2948 21.6155 18.8436V11.6951C21.6155 10.3666 20.5363 9.287 19.2083 9.287H18.5548C18.2892 9.287 18.0742 9.07191 18.0742 8.80622C18.0742 8.54052 18.2892 8.32544 18.5548 8.32544H19.2083C21.0675 8.32544 22.5809 9.83947 22.5809 11.6993V18.8478C22.5809 19.8304 21.7841 20.6275 20.8019 20.6275L20.7976 20.6233Z" fill="#1B1B43"/>
<path d="M19.5034 33.0266H16.4005C16.1349 33.0266 15.9199 32.8115 15.9199 32.5458V18.7508C15.9199 18.4851 16.1349 18.27 16.4005 18.27C16.6661 18.27 16.8811 18.4851 16.8811 18.7508V32.0608H19.0185V16.2794C19.0185 16.0137 19.2336 15.7986 19.4991 15.7986C19.7647 15.7986 19.9798 16.0137 19.9798 16.2794V32.5416C19.9798 32.8073 19.7647 33.0223 19.4991 33.0223L19.5034 33.0266Z" fill="#1B1B43"/>
<path d="M16.4003 7.63802C14.7224 7.63802 13.3564 6.27159 13.3564 4.58886C13.3564 2.90613 14.7224 1.5397 16.4003 1.5397C18.0782 1.5397 19.4483 2.90613 19.4483 4.58886C19.4483 6.27159 18.0824 7.63802 16.4003 7.63802ZM16.4003 2.5097C15.2536 2.5097 14.3177 3.44595 14.3177 4.59308C14.3177 5.7402 15.2536 6.67646 16.4003 6.67646C17.547 6.67646 18.4829 5.7402 18.4829 4.59308C18.4829 3.44595 17.547 2.5097 16.4003 2.5097Z" fill="#1B1B43"/>
<path d="M27.7622 30.9769H24.6593C24.3937 30.9769 24.1787 30.7618 24.1787 30.4961V18.0212C24.1787 17.7555 24.3937 17.5404 24.6593 17.5404C24.9249 17.5404 25.1399 17.7555 25.1399 18.0212V30.0154H27.2773V15.5456C27.2773 15.2799 27.4923 15.0648 27.7579 15.0648C28.0235 15.0648 28.2385 15.2799 28.2385 15.5456V30.4919C28.2385 30.7576 28.0235 30.9727 27.7579 30.9727L27.7622 30.9769Z" fill="#1B1B43"/>
<path d="M29.0603 19.8937C28.078 19.8937 27.2813 19.0966 27.2813 18.114V13.0784C27.2813 12.8127 27.4963 12.5976 27.7619 12.5976C28.0275 12.5976 28.2425 12.8127 28.2425 13.0784V18.114C28.2425 18.5652 28.6092 18.9321 29.0603 18.9321C29.5114 18.9321 29.8782 18.5652 29.8782 18.114V10.9655C29.8782 9.63705 28.799 8.5574 27.471 8.5574H26.8175C26.5519 8.5574 26.3369 8.34231 26.3369 8.07662C26.3369 7.81093 26.5519 7.59584 26.8175 7.59584H27.471C29.3301 7.59584 30.8436 9.10988 30.8436 10.9697V18.1182C30.8436 19.1008 30.0468 19.8979 29.0645 19.8979L29.0603 19.8937Z" fill="#1B1B43"/>
<path d="M22.948 8.5574H22.4083C22.1427 8.5574 21.9277 8.34231 21.9277 8.07662C21.9277 7.81093 22.1427 7.59584 22.4083 7.59584H22.948C23.2136 7.59584 23.4286 7.81093 23.4286 8.07662C23.4286 8.34231 23.2136 8.5574 22.948 8.5574Z" fill="#1B1B43"/>
<path d="M24.6596 30.9769H21.5568C21.2912 30.9769 21.0762 30.7618 21.0762 30.4961V22.5042C21.0762 22.2385 21.2912 22.0234 21.5568 22.0234C21.8224 22.0234 22.0374 22.2385 22.0374 22.5042V30.0111H24.1748V18.0169C24.1748 17.7512 24.3898 17.5362 24.6554 17.5362C24.921 17.5362 25.136 17.7512 25.136 18.0169V30.4919C25.136 30.7576 24.921 30.9727 24.6554 30.9727L24.6596 30.9769Z" fill="#1B1B43"/>
<path d="M24.6594 6.9084C22.9815 6.9084 21.6113 5.54198 21.6113 3.85925C21.6113 2.17652 22.9772 0.810089 24.6594 0.810089C26.3415 0.810089 27.7074 2.17652 27.7074 3.85925C27.7074 5.54198 26.3415 6.9084 24.6594 6.9084ZM24.6594 1.78008C23.5127 1.78008 22.5767 2.71634 22.5767 3.86346C22.5767 5.01059 23.5127 5.94684 24.6594 5.94684C25.8061 5.94684 26.742 5.01059 26.742 3.86346C26.742 2.71634 25.8061 1.78008 24.6594 1.78008Z" fill="#1B1B43"/>
<path d="M30.359 33.0266H2.43763C2.17204 33.0266 1.95703 32.8115 1.95703 32.5458C1.95703 32.2801 2.17204 32.065 2.43763 32.065H30.359C30.6246 32.065 30.8396 32.2801 30.8396 32.5458C30.8396 32.8115 30.6246 33.0266 30.359 33.0266Z" fill="#1B1B43"/>
<path d="M32.0626 30.9769H21.5568C21.2912 30.9769 21.0762 30.7618 21.0762 30.4961C21.0762 30.2305 21.2912 30.0154 21.5568 30.0154H32.0626C32.3282 30.0154 32.5432 30.2305 32.5432 30.4961C32.5432 30.7618 32.3282 30.9769 32.0626 30.9769Z" fill="#1B1B43"/>
<path d="M11.2403 30.9769H0.734509C0.468913 30.9769 0.253906 30.7618 0.253906 30.4961C0.253906 30.2305 0.468913 30.0154 0.734509 30.0154H11.2403C11.5059 30.0154 11.7209 30.2305 11.7209 30.4961C11.7209 30.7618 11.5059 30.9769 11.2403 30.9769Z" fill="#1B1B43"/>
</svg>
