<svg width="28" height="40" viewBox="0 0 28 40" fill="none" xmlns="http://www.w3.org/2000/svg">
<path d="M20.9601 24.2402C20.0158 24.2402 19.101 23.8775 18.2283 23.1522C18.1524 23.0931 18.1018 23.0088 18.0723 22.916C18.047 22.8359 17.4947 20.9718 18.7679 19.5252C20.079 18.0365 22.7645 17.6232 26.7527 18.3064C26.9044 18.3317 27.0351 18.4287 27.1068 18.5679C27.1785 18.7071 27.1785 18.8673 27.1068 19.0065C27.0141 19.1878 24.8513 23.4938 21.7569 24.1517C21.4913 24.2107 21.2215 24.236 20.9601 24.236V24.2402ZM18.9787 22.4985C19.8261 23.1564 20.6692 23.3841 21.5546 23.1943C23.5697 22.7642 25.2265 20.3139 25.9011 19.1667C21.8876 18.589 20.2097 19.3776 19.5099 20.1663C18.7637 21.0097 18.9028 22.1147 18.9787 22.4985Z" fill="#1B1B43"/>
<path d="M7.8369 24.2402C7.57131 24.2402 7.30571 24.2107 7.04011 24.1559C3.9457 23.498 1.77877 19.1963 1.69024 19.0107C1.62279 18.8715 1.62279 18.707 1.69024 18.5721C1.76191 18.4329 1.8926 18.3359 2.04437 18.3106C6.03253 17.6274 8.71801 18.0365 10.0291 19.5294C11.3023 20.976 10.75 22.8443 10.7247 22.9202C10.6952 23.013 10.6404 23.0931 10.5688 23.1564C9.69608 23.8775 8.78125 24.2445 7.8369 24.2445V24.2402ZM2.89596 19.1667C3.57471 20.3139 5.23153 22.7684 7.24247 23.1943C8.12779 23.3799 8.97096 23.1521 9.81834 22.4985C9.89422 22.1189 10.0333 21.0097 9.28715 20.1663C8.58732 19.3776 6.90942 18.589 2.89596 19.1667Z" fill="#1B1B43"/>
<path d="M14.4003 25.3114C14.3244 25.3114 14.2527 25.2946 14.1853 25.2608L7.03526 21.7309C6.79074 21.6128 6.69378 21.3176 6.81182 21.073C6.92986 20.8284 7.22497 20.7314 7.46949 20.8495L14.4003 24.2697L21.3311 20.8495C21.5756 20.7272 21.8665 20.8284 21.9888 21.073C22.1068 21.3176 22.0098 21.6086 21.7653 21.7309L14.6153 25.2608C14.5478 25.2946 14.472 25.3114 14.4003 25.3114Z" fill="#1B1B43"/>
<path d="M27.4021 39.6674H1.39472C1.19237 39.6674 1.0153 39.5451 0.939415 39.3595C0.86353 39.1739 0.91412 38.9588 1.05746 38.8239C1.16285 38.7227 1.27668 38.6215 1.39051 38.516C8.80614 31.8357 19.9907 31.8357 27.4063 38.516C27.5202 38.6215 27.634 38.7227 27.7394 38.8239C27.8869 38.9631 27.9333 39.1739 27.8574 39.3595C27.7815 39.5451 27.6045 39.6674 27.4021 39.6674ZM2.68898 38.6847H26.1036C19.2909 33.0798 9.50174 33.0798 2.68898 38.6847Z" fill="#1B1B43"/>
<path d="M14.8855 0.838053C14.7927 0.715749 14.6452 0.63984 14.4892 0.644057C14.3332 0.644057 14.1899 0.719971 14.0971 0.842274C11.6983 4.1023 10.8594 6.68755 11.6056 8.52632C12.1326 9.82949 13.2919 10.3609 13.9158 10.5633L13.899 14.5614L13.9074 34.0245C13.9074 34.2944 14.1266 34.5137 14.3965 34.5137C14.6663 34.5137 14.8855 34.2944 14.8855 34.0245V10.4958C15.775 10.0488 16.4158 9.44148 16.7953 8.67814C16.9133 8.44197 17.006 8.19314 17.0777 7.92745C17.8745 4.86564 15.0035 0.998313 14.8813 0.838053H14.8855ZM16.1334 7.68285C15.9521 8.37871 15.5432 8.93118 14.9023 9.36135L14.9192 6.83937C14.9192 6.56946 14.7042 6.34593 14.4344 6.34593C14.1646 6.34593 13.9411 6.56102 13.9411 6.83515L13.9243 9.52161C13.4563 9.31918 12.8197 8.91853 12.512 8.15519C12.1199 7.17676 12.1705 5.32533 14.485 1.99361C15.2059 3.11543 16.6561 5.69224 16.1334 7.68705V7.68285Z" fill="#1B1B43"/>
</svg>
