<svg width="35" height="35" viewBox="0 0 35 35" fill="none" xmlns="http://www.w3.org/2000/svg">
<path d="M17.4005 34.8055C7.88118 34.8055 0.136719 27.0582 0.136719 17.5353C0.136719 8.01253 7.88118 0.265247 17.4005 0.265247C26.9198 0.265247 34.6643 8.01253 34.6643 17.5353C34.6643 27.0582 26.9198 34.8055 17.4005 34.8055ZM17.4005 1.20149C8.39551 1.20149 1.07263 8.53127 1.07263 17.5353C1.07263 26.5394 8.39973 33.8692 17.4005 33.8692C26.4013 33.8692 33.7284 26.5394 33.7284 17.5353C33.7284 8.53127 26.4013 1.20149 17.4005 1.20149Z" fill="#1B1B43"/>
<path d="M17.3998 34.8052C13.2472 34.8052 9.73961 28.7533 9.06508 20.4197C9.044 20.1625 9.23371 19.939 9.49087 19.9179C9.75225 19.8926 9.97148 20.0866 9.99255 20.3438C10.6165 28.0574 13.7994 33.8732 17.3998 33.8732C21.5439 33.8732 24.9166 26.5434 24.9166 17.5393C24.9166 16.9699 24.9039 16.3921 24.8744 15.827C24.8617 15.5698 25.0599 15.3505 25.3171 15.3378C25.57 15.3294 25.7934 15.5234 25.8061 15.7806C25.8356 16.3626 25.8482 16.9531 25.8482 17.5393C25.8482 27.2223 22.1341 34.8094 17.3955 34.8094L17.3998 34.8052Z" fill="#1B1B43"/>
<path d="M24.7436 11.3988C24.5244 11.3988 24.3305 11.2469 24.2883 11.0234C23.0953 5.14863 20.3255 1.19696 17.3997 1.19696C15.2201 1.19696 13.1417 3.30143 11.6915 6.97054C11.5987 7.21093 11.3247 7.32901 11.0844 7.23201C10.8441 7.13923 10.726 6.8651 10.823 6.62471C12.4208 2.58026 14.8196 0.260717 17.3997 0.260717C20.8314 0.260717 23.8963 4.41061 25.2032 10.8337C25.2538 11.0867 25.0936 11.3313 24.8406 11.3861C24.8111 11.3946 24.7774 11.3946 24.7479 11.3946L24.7436 11.3988Z" fill="#1B1B43"/>
<path d="M9.50316 15.4812C9.50316 15.4812 9.48208 15.4812 9.46943 15.4812C9.21227 15.4643 9.01834 15.2408 9.0352 14.9835C9.11109 13.9081 9.23756 12.8411 9.41463 11.8163C9.45679 11.5633 9.69709 11.3904 9.95425 11.4325C10.2072 11.4747 10.3801 11.7151 10.3379 11.9723C10.1693 12.9676 10.047 14.0051 9.97111 15.051C9.95425 15.2956 9.74768 15.4854 9.50738 15.4854L9.50316 15.4812Z" fill="#1B1B43"/>
<path d="M17.3998 11.1542C15.7936 11.1542 14.2042 10.9349 12.6738 10.5005C12.4251 10.4288 12.2818 10.1715 12.3534 9.9227C12.4251 9.67387 12.6823 9.53048 12.931 9.60217C14.377 10.0155 15.8821 10.2221 17.3998 10.2221C21.6325 10.2221 25.6122 8.62376 28.6644 5.71377C25.6122 2.79957 21.6325 1.20541 17.3998 1.20541C13.1671 1.20541 9.18737 2.80379 6.13511 5.71377C6.82229 6.36747 7.56849 6.96632 8.35263 7.48927C8.56764 7.63266 8.62666 7.92367 8.48332 8.13876C8.33998 8.35385 8.0491 8.41289 7.83409 8.2695C6.86445 7.62424 5.95804 6.87354 5.13596 6.04694C4.95468 5.86559 4.95468 5.57037 5.13596 5.38903C8.40322 2.09105 12.7582 0.273357 17.3956 0.273357C22.033 0.273357 26.3879 2.09105 29.6552 5.38903C29.8364 5.57037 29.8364 5.86559 29.6552 6.04694C26.3879 9.34492 22.033 11.1626 17.3956 11.1626L17.3998 11.1542Z" fill="#1B1B43"/>
<path d="M17.3995 34.8052C12.7621 34.8052 8.40713 32.9875 5.13987 29.6895C4.95859 29.5082 4.95859 29.2129 5.13987 29.0316C7.67779 26.4716 10.886 24.7889 14.4147 24.1732C14.6718 24.131 14.9121 24.2997 14.9543 24.5527C14.9965 24.8058 14.8278 25.0504 14.5749 25.0926C11.3877 25.6493 8.4788 27.1211 6.1348 29.3606C9.18705 32.2705 13.1668 33.8689 17.3995 33.8689C21.6322 33.8689 25.6119 32.2705 28.6641 29.3606C26.455 27.2519 23.7232 25.8137 20.7426 25.1938C20.4897 25.1432 20.3295 24.8944 20.38 24.6413C20.4306 24.3883 20.6794 24.228 20.9323 24.2786C24.246 24.9661 27.2645 26.6108 29.6633 29.0316C29.8446 29.2129 29.8446 29.5082 29.6633 29.6895C26.396 32.9875 22.0411 34.8052 17.4037 34.8052H17.3995Z" fill="#1B1B43"/>
<path d="M34.1953 18.0032H12.5471C12.2899 18.0032 12.0791 17.7923 12.0791 17.535C12.0791 17.2778 12.2899 17.0669 12.5471 17.0669H34.1953C34.4524 17.0669 34.6632 17.2778 34.6632 17.535C34.6632 17.7923 34.4524 18.0032 34.1953 18.0032Z" fill="#1B1B43"/>
<path d="M6.36282 18.0032H0.599792C0.342627 18.0032 0.131836 17.7923 0.131836 17.535C0.131836 17.2778 0.342627 17.0669 0.599792 17.0669H6.36282C6.61998 17.0669 6.83077 17.2778 6.83077 17.535C6.83077 17.7923 6.61998 18.0032 6.36282 18.0032Z" fill="#1B1B43"/>
<path d="M10.4103 10.8252C9.52919 10.8252 8.8125 10.1083 8.8125 9.22685C8.8125 8.34542 9.52919 7.62845 10.4103 7.62845C11.2914 7.62845 12.0081 8.34542 12.0081 9.22685C12.0081 10.1083 11.2914 10.8252 10.4103 10.8252ZM10.4103 8.5605C10.0435 8.5605 9.7442 8.85994 9.7442 9.22685C9.7442 9.59376 10.0435 9.89317 10.4103 9.89317C10.7771 9.89317 11.0764 9.59376 11.0764 9.22685C11.0764 8.85994 10.7771 8.5605 10.4103 8.5605Z" fill="#1B1B43"/>
<path d="M25.0597 14.9962C24.1786 14.9962 23.4619 14.2792 23.4619 13.3978C23.4619 12.5164 24.1786 11.7994 25.0597 11.7994C25.9408 11.7994 26.6575 12.5164 26.6575 13.3978C26.6575 14.2792 25.9408 14.9962 25.0597 14.9962ZM25.0597 12.7315C24.6929 12.7315 24.3936 13.0309 24.3936 13.3978C24.3936 13.7647 24.6929 14.0642 25.0597 14.0642C25.4265 14.0642 25.7258 13.7647 25.7258 13.3978C25.7258 13.0309 25.4265 12.7315 25.0597 12.7315Z" fill="#1B1B43"/>
<path d="M17.5431 25.9867C16.662 25.9867 15.9453 25.2697 15.9453 24.3883C15.9453 23.5068 16.662 22.7899 17.5431 22.7899C18.4242 22.7899 19.1409 23.5068 19.1409 24.3883C19.1409 25.2697 18.4242 25.9867 17.5431 25.9867ZM17.5431 23.7219C17.1763 23.7219 16.877 24.0214 16.877 24.3883C16.877 24.7552 17.1763 25.0546 17.5431 25.0546C17.9099 25.0546 18.2092 24.7552 18.2092 24.3883C18.2092 24.0214 17.9099 23.7219 17.5431 23.7219Z" fill="#1B1B43"/>
<path d="M29.3263 24.8522C28.4452 24.8522 27.7285 24.1352 27.7285 23.2538C27.7285 22.3724 28.4452 21.6554 29.3263 21.6554C30.2074 21.6554 30.9241 22.3724 30.9241 23.2538C30.9241 24.1352 30.2074 24.8522 29.3263 24.8522ZM29.3263 22.5875C28.9595 22.5875 28.6602 22.8869 28.6602 23.2538C28.6602 23.6207 28.9595 23.9201 29.3263 23.9201C29.6931 23.9201 29.9924 23.6207 29.9924 23.2538C29.9924 22.8869 29.6931 22.5875 29.3263 22.5875Z" fill="#1B1B43"/>
<path d="M9.41518 19.1377C8.53408 19.1377 7.81738 18.4207 7.81738 17.5393C7.81738 16.6578 8.53408 15.9409 9.41518 15.9409C10.2963 15.9409 11.013 16.6578 11.013 17.5393C11.013 18.4207 10.2963 19.1377 9.41518 19.1377ZM9.41518 16.8729C9.04841 16.8729 8.74908 17.1724 8.74908 17.5393C8.74908 17.9062 9.04841 18.2056 9.41518 18.2056C9.78196 18.2056 10.0813 17.9062 10.0813 17.5393C10.0813 17.1724 9.78196 16.8729 9.41518 16.8729Z" fill="#1B1B43"/>
</svg>
