<svg width="38" height="32" viewBox="0 0 38 32" fill="none" xmlns="http://www.w3.org/2000/svg">
<path d="M5.40865 12.1904C5.13884 12.1904 4.92383 11.9711 4.92383 11.7054V9.35215C4.92383 9.08224 5.14305 8.86716 5.40865 8.86716C5.67425 8.86716 5.89347 9.08646 5.89347 9.35215V11.7054C5.89347 11.9753 5.67425 12.1904 5.40865 12.1904Z" fill="#1B1B43"/>
<path d="M3.60786 12.1904C3.33805 12.1904 3.12305 11.9711 3.12305 11.7054V8.36107C3.12305 7.04103 4.19386 5.96982 5.51342 5.96982C5.63989 5.96982 5.76215 6.02043 5.8549 6.10899L7.43161 7.66942L9.00833 6.1343C9.10107 6.04573 9.21912 5.99512 9.34559 5.99512C10.6651 5.99512 11.736 7.06633 11.736 8.38637V11.7054C11.736 11.9753 11.5167 12.1904 11.2511 12.1904C10.9855 12.1904 10.7663 11.9711 10.7663 11.7054V8.38637C10.7663 7.6652 10.2267 7.07055 9.53109 6.97777L7.76887 8.69845C7.57916 8.88401 7.27562 8.88401 7.09013 8.69845L5.32792 6.95668C4.63231 7.04946 4.0969 7.64412 4.0969 8.36529V11.7097C4.0969 11.9796 3.87767 12.1947 3.61208 12.1947L3.60786 12.1904Z" fill="#1B1B43"/>
<path d="M9.45552 12.1904C9.18571 12.1904 8.9707 11.9711 8.9707 11.7054V9.37745C8.9707 9.10754 9.18992 8.89246 9.45552 8.89246C9.72112 8.89246 9.94034 9.11176 9.94034 9.37745V11.7054C9.94034 11.9753 9.72112 12.1904 9.45552 12.1904Z" fill="#1B1B43"/>
<path d="M7.43134 5.42578C6.10758 5.42578 5.02832 4.34613 5.02832 3.02188C5.02832 1.69763 6.10758 0.617981 7.43134 0.617981C8.75511 0.617981 9.83436 1.69763 9.83436 3.02188C9.83436 4.34613 8.75511 5.42578 7.43134 5.42578ZM7.43134 1.58798C6.64298 1.58798 5.99796 2.22901 5.99796 3.02188C5.99796 3.81474 6.63877 4.45578 7.43134 4.45578C8.22392 4.45578 8.86472 3.81474 8.86472 3.02188C8.86472 2.22901 8.22392 1.58798 7.43134 1.58798Z" fill="#1B1B43"/>
<path d="M29.3452 12.1904C29.0754 12.1904 28.8604 11.9711 28.8604 11.7054V9.35215C28.8604 9.08224 29.0796 8.86716 29.3452 8.86716C29.6108 8.86716 29.83 9.08646 29.83 9.35215V11.7054C29.83 11.9753 29.6108 12.1904 29.3452 12.1904Z" fill="#1B1B43"/>
<path d="M27.5454 12.1904C27.2756 12.1904 27.0605 11.9711 27.0605 11.7054V8.36107C27.0605 7.04103 28.1314 5.96982 29.4509 5.96982C29.5774 5.96982 29.6996 6.02043 29.7924 6.10899L31.3691 7.66942L32.9458 6.1343C33.0386 6.04573 33.1566 5.99512 33.2831 5.99512C34.6027 5.99512 35.6735 7.06633 35.6735 8.38637V11.7054C35.6735 11.9753 35.4542 12.1904 35.1886 12.1904C34.923 12.1904 34.7038 11.9711 34.7038 11.7054V8.38637C34.7038 7.6652 34.1642 7.07055 33.4686 6.97777L31.7064 8.69845C31.5167 8.88401 31.2131 8.88401 31.0276 8.69845L29.2654 6.95668C28.5698 7.04946 28.0344 7.64412 28.0344 8.36529V11.7097C28.0344 11.9796 27.8152 12.1947 27.5496 12.1947L27.5454 12.1904Z" fill="#1B1B43"/>
<path d="M33.3881 12.1904C33.1183 12.1904 32.9033 11.9711 32.9033 11.7054V9.37745C32.9033 9.10754 33.1226 8.89246 33.3881 8.89246C33.6537 8.89246 33.873 9.11176 33.873 9.37745V11.7054C33.873 11.9753 33.6537 12.1904 33.3881 12.1904Z" fill="#1B1B43"/>
<path d="M31.3649 5.42578C30.0412 5.42578 28.9619 4.34613 28.9619 3.02188C28.9619 1.69763 30.0412 0.617981 31.3649 0.617981C32.6887 0.617981 33.7679 1.69763 33.7679 3.02188C33.7679 4.34613 32.6887 5.42578 31.3649 5.42578ZM31.3649 1.58798C30.5766 1.58798 29.9315 2.22901 29.9315 3.02188C29.9315 3.81474 30.5723 4.45578 31.3649 4.45578C32.1575 4.45578 32.7983 3.81474 32.7983 3.02188C32.7983 2.22901 32.1575 1.58798 31.3649 1.58798Z" fill="#1B1B43"/>
<path d="M5.40865 30.2914C5.13884 30.2914 4.92383 30.0721 4.92383 29.8064V27.4531C4.92383 27.1832 5.14305 26.9681 5.40865 26.9681C5.67425 26.9681 5.89347 27.1874 5.89347 27.4531V29.8064C5.89347 30.0763 5.67425 30.2914 5.40865 30.2914Z" fill="#1B1B43"/>
<path d="M11.2557 30.2914C10.9859 30.2914 10.7709 30.0721 10.7709 29.8064V26.4873C10.7709 25.7661 10.2313 25.1673 9.53567 25.0787L7.77346 26.7994C7.58375 26.985 7.28021 26.985 7.09471 26.7994L5.33249 25.0576C4.63688 25.1504 4.10148 25.7451 4.10148 26.4662V29.8106C4.10148 30.0805 3.88226 30.2956 3.61666 30.2956C3.35106 30.2956 3.13184 30.0763 3.13184 29.8106V26.4662C3.13184 25.1462 4.20265 24.075 5.5222 24.075C5.64868 24.075 5.77094 24.1256 5.86369 24.2141L7.4404 25.7746L9.01712 24.2395C9.10987 24.1509 9.22791 24.1003 9.35439 24.1003C10.6739 24.1003 11.7448 25.1715 11.7448 26.4915V29.8106C11.7448 30.0805 11.5255 30.2956 11.2599 30.2956L11.2557 30.2914Z" fill="#1B1B43"/>
<path d="M9.45552 30.2914C9.18571 30.2914 8.9707 30.0721 8.9707 29.8064V27.4784C8.9707 27.2085 9.18992 26.9934 9.45552 26.9934C9.72112 26.9934 9.94034 27.2127 9.94034 27.4784V29.8064C9.94034 30.0763 9.72112 30.2914 9.45552 30.2914Z" fill="#1B1B43"/>
<path d="M7.43134 23.5309C6.10758 23.5309 5.02832 22.4513 5.02832 21.127C5.02832 19.8028 6.10758 18.7231 7.43134 18.7231C8.75511 18.7231 9.83436 19.8028 9.83436 21.127C9.83436 22.4513 8.75511 23.5309 7.43134 23.5309ZM7.43134 19.6931C6.64298 19.6931 5.99796 20.3342 5.99796 21.127C5.99796 21.9199 6.63877 22.5609 7.43134 22.5609C8.22392 22.5609 8.86472 21.9199 8.86472 21.127C8.86472 20.3342 8.22392 19.6931 7.43134 19.6931Z" fill="#1B1B43"/>
<path d="M29.3452 30.2914C29.0754 30.2914 28.8604 30.0721 28.8604 29.8064V27.4531C28.8604 27.1832 29.0796 26.9681 29.3452 26.9681C29.6108 26.9681 29.83 27.1874 29.83 27.4531V29.8064C29.83 30.0763 29.6108 30.2914 29.3452 30.2914Z" fill="#1B1B43"/>
<path d="M35.1883 30.2914C34.9185 30.2914 34.7035 30.0721 34.7035 29.8064V26.4873C34.7035 25.7661 34.1639 25.1673 33.4683 25.0787L31.7061 26.7994C31.5163 26.985 31.2128 26.985 31.0273 26.7994L29.2651 25.0576C28.5695 25.1504 28.0341 25.7451 28.0341 26.4662V29.8106C28.0341 30.0805 27.8149 30.2956 27.5493 30.2956C27.2837 30.2956 27.0645 30.0763 27.0645 29.8106V26.4662C27.0645 25.1462 28.1353 24.075 29.4548 24.075C29.5813 24.075 29.7035 24.1256 29.7963 24.2141L31.373 25.7746L32.9497 24.2395C33.0425 24.1509 33.1605 24.1003 33.287 24.1003C34.6065 24.1003 35.6774 25.1715 35.6774 26.4915V29.8106C35.6774 30.0805 35.4581 30.2956 35.1926 30.2956L35.1883 30.2914Z" fill="#1B1B43"/>
<path d="M33.3881 30.2914C33.1183 30.2914 32.9033 30.0721 32.9033 29.8064V27.4784C32.9033 27.2085 33.1226 26.9934 33.3881 26.9934C33.6537 26.9934 33.873 27.2127 33.873 27.4784V29.8064C33.873 30.0763 33.6537 30.2914 33.3881 30.2914Z" fill="#1B1B43"/>
<path d="M31.3649 23.5309C30.0412 23.5309 28.9619 22.4513 28.9619 21.127C28.9619 19.8028 30.0412 18.7231 31.3649 18.7231C32.6887 18.7231 33.7679 19.8028 33.7679 21.127C33.7679 22.4513 32.6887 23.5309 31.3649 23.5309ZM31.3649 19.6931C30.5766 19.6931 29.9315 20.3342 29.9315 21.127C29.9315 21.9199 30.5723 22.5609 31.3649 22.5609C32.1575 22.5609 32.7983 21.9199 32.7983 21.127C32.7983 20.3342 32.1575 19.6931 31.3649 19.6931Z" fill="#1B1B43"/>
<path d="M26.1202 3.51109H12.6801C12.4103 3.51109 12.1953 3.29178 12.1953 3.02609C12.1953 2.76039 12.4145 2.54109 12.6801 2.54109H26.1202C26.39 2.54109 26.605 2.76039 26.605 3.02609C26.605 3.29178 26.3858 3.51109 26.1202 3.51109Z" fill="#1B1B43"/>
<path d="M25.2307 30.2914H13.5698C13.3 30.2914 13.085 30.0721 13.085 29.8064C13.085 29.5407 13.3042 29.3214 13.5698 29.3214H25.2307C25.5006 29.3214 25.7156 29.5407 25.7156 29.8064C25.7156 30.0721 25.4963 30.2914 25.2307 30.2914Z" fill="#1B1B43"/>
<path d="M2.7563 22.7971C2.48649 22.7971 2.27148 22.5778 2.27148 22.3121V14.472C2.27148 14.2021 2.4907 13.987 2.7563 13.987C3.0219 13.987 3.24112 14.2063 3.24112 14.472V22.3121C3.24112 22.582 3.0219 22.7971 2.7563 22.7971Z" fill="#1B1B43"/>
<path d="M36.0444 22.7971C35.7746 22.7971 35.5596 22.5778 35.5596 22.3121V14.472C35.5596 14.2021 35.7788 13.987 36.0444 13.987C36.31 13.987 36.5292 14.2063 36.5292 14.472V22.3121C36.5292 22.582 36.31 22.7971 36.0444 22.7971Z" fill="#1B1B43"/>
<path d="M4.04644 16.9476C3.88624 16.9476 3.73026 16.8717 3.63752 16.7283L2.75219 15.3703L1.86687 16.7283C1.71931 16.9519 1.41999 17.0151 1.19655 16.8717C0.973114 16.7241 0.909879 16.4247 1.05322 16.2012L2.34326 14.2148C2.52454 13.9407 2.97984 13.9407 3.15691 14.2148L4.44695 16.2012C4.59451 16.4247 4.53126 16.7283 4.30361 16.8717C4.22351 16.9265 4.13077 16.9519 4.03802 16.9519L4.04644 16.9476Z" fill="#1B1B43"/>
<path d="M36.0442 22.8857C35.8798 22.8857 35.728 22.8013 35.6352 22.6664L34.3452 20.68C34.1977 20.4565 34.2609 20.1528 34.4885 20.0094C34.712 19.8618 35.0155 19.9293 35.1589 20.1528L36.0442 21.5108L36.9295 20.1528C37.0771 19.9293 37.3764 19.866 37.5998 20.0094C37.8233 20.157 37.8865 20.4565 37.7432 20.68L36.4531 22.6664C36.3646 22.8055 36.2086 22.8857 36.0442 22.8857Z" fill="#1B1B43"/>
<path d="M14.6658 4.8016C14.5773 4.8016 14.4845 4.7763 14.4002 4.72147L12.4145 3.43096C12.2754 3.3424 12.1953 3.18635 12.1953 3.02187C12.1953 2.8574 12.2796 2.70557 12.4145 2.61279L14.4002 1.32228C14.6236 1.17467 14.9272 1.24214 15.0705 1.46566C15.2138 1.68919 15.1548 1.99283 14.9272 2.13622L13.5697 3.01766L14.9272 3.89909C15.1506 4.0467 15.2138 4.34613 15.0705 4.56965C14.9778 4.71304 14.8218 4.78895 14.6616 4.78895L14.6658 4.8016Z" fill="#1B1B43"/>
<path d="M23.3127 31.5819C23.1525 31.5819 22.9965 31.506 22.9038 31.3626C22.7562 31.1391 22.8195 30.8354 23.0471 30.692L24.4046 29.8064L23.0471 28.925C22.8237 28.7774 22.7605 28.4779 22.9038 28.2544C23.0514 28.0309 23.3507 27.9676 23.5741 28.111L25.5598 29.4015C25.6989 29.4901 25.779 29.6461 25.779 29.8106C25.779 29.9751 25.6947 30.1269 25.5598 30.2197L23.5741 31.5102C23.494 31.565 23.4013 31.5903 23.3085 31.5903L23.3127 31.5819Z" fill="#1B1B43"/>
</svg>
